<svg width="356" height="356" viewBox="0 0 356 356" fill="none" xmlns="http://www.w3.org/2000/svg">
<path fill-rule="evenodd" clip-rule="evenodd" d="M0 178C0 79.6933 79.6933 0 178 0C276.307 0 356 79.6933 356 178V356H178C79.6933 356 0 276.307 0 178ZM141.878 268.905C141.878 249.077 177.775 197.111 177.775 197.111C177.775 197.111 213.672 249.077 213.672 268.905C213.672 288.732 197.597 304.802 177.775 304.802C157.953 304.802 141.878 288.732 141.878 268.905ZM177.775 158.649C177.775 158.649 141.878 106.683 141.878 86.8552C141.878 67.0277 157.953 50.9581 177.775 50.9581C197.597 50.9581 213.672 67.0277 213.672 86.8552C213.672 106.683 177.775 158.649 177.775 158.649ZM236.544 254.479C219.373 244.565 192.317 187.494 192.317 187.494C192.317 187.494 255.27 182.39 272.441 192.303C289.612 202.217 295.491 224.173 285.581 241.34C275.67 258.506 253.715 264.393 236.544 254.479ZM163.232 171.148C163.232 171.148 100.279 176.253 83.108 166.339C65.9369 156.425 60.0578 134.469 69.9688 117.303C79.8797 100.136 101.834 94.2496 119.005 104.163C136.176 114.077 163.232 171.148 163.232 171.148ZM273.247 165.548C256.076 175.462 193.123 170.357 193.123 170.357C193.123 170.357 220.179 113.286 237.35 103.373C254.521 93.4589 276.475 99.3457 286.386 116.512C296.297 133.678 290.418 155.634 273.247 165.548ZM164.037 186.704C164.037 186.704 136.981 243.775 119.81 253.688C102.639 263.602 80.6849 257.715 70.7739 240.549C60.863 223.383 66.742 201.427 83.9132 191.513C101.084 181.599 164.037 186.704 164.037 186.704Z" fill="white"/>
</svg>
