<svg width="945" height="356" viewBox="0 0 945 356" fill="none" xmlns="http://www.w3.org/2000/svg">
<path fill-rule="evenodd" clip-rule="evenodd" d="M0 127.316C0 57.0012 57.0708 0 127.385 0C197.777 0 254.91 57.0636 254.91 127.455V254.631H127.316C57.0012 254.631 0 197.63 0 127.316ZM101.59 192.336C101.59 178.154 127.294 140.985 127.294 140.985C127.294 140.985 152.998 178.154 152.998 192.336C152.998 206.518 141.487 218.012 127.294 218.012C113.101 218.012 101.59 206.518 101.59 192.336ZM127.294 113.475C127.294 113.475 101.59 76.3055 101.59 62.1237C101.59 47.942 113.101 36.4482 127.294 36.4482C141.487 36.4482 152.998 47.942 152.998 62.1237C152.998 76.3055 127.294 113.475 127.294 113.475ZM169.375 182.018C157.08 174.927 137.707 134.106 137.707 134.106C137.707 134.106 182.784 130.455 195.079 137.546C207.374 144.637 211.584 160.342 204.487 172.62C197.39 184.898 181.67 189.109 169.375 182.018ZM116.881 122.415C116.881 122.415 71.8039 126.066 59.5087 118.975C47.2135 111.884 43.0038 96.1798 50.1005 83.9015C57.1971 71.6232 72.9172 67.4127 85.2124 74.5036C97.5076 81.5944 116.881 122.415 116.881 122.415ZM195.656 118.409C183.361 125.5 138.284 121.849 138.284 121.849C138.284 121.849 157.657 81.0288 169.952 73.938C182.247 66.8471 197.967 71.0576 205.064 83.3359C212.161 95.6142 207.951 111.319 195.656 118.409ZM117.457 133.541C117.457 133.541 98.0841 174.361 85.7888 181.452C73.4936 188.543 57.7736 184.333 50.6769 172.054C43.5803 159.776 47.7899 144.072 60.0851 136.981C72.3803 129.89 117.457 133.541 117.457 133.541Z" fill="#0DE5A8"/>
<path d="M831.213 325.005L847.414 312.961C855.452 325.005 867.132 331.027 882.455 331.027C895.014 331.027 905.061 326.887 912.597 318.606C920.384 310.326 924.277 300.541 924.277 289.25V242.204C912.723 252.491 899.159 257.635 883.585 257.635C866.253 257.635 851.684 251.739 839.879 239.946C828.073 228.153 822.17 213.6 822.17 196.287V99.561H842.893V196.287C842.893 207.578 846.912 217.238 854.95 225.268C863.239 233.046 872.784 236.935 883.585 236.935C895.391 236.935 905.061 232.92 912.597 224.891C920.384 216.611 924.277 207.076 924.277 196.287V99.561H945V289.25C945 306.563 938.846 321.241 926.538 333.285C914.481 345.579 899.787 351.727 882.455 351.727C860.853 351.727 843.772 342.819 831.213 325.005Z" fill="white"/>
<path d="M501.324 310.836C513.381 327.145 530.085 335.3 551.436 335.3C568.517 335.3 583.085 329.403 595.142 317.611C607.45 306.069 613.604 291.265 613.604 273.199V230.67C597.277 248.735 577.057 257.768 552.943 257.768C530.839 257.768 511.749 249.739 495.673 233.681C479.597 217.622 471.559 198.553 471.559 176.473C471.559 153.891 479.597 134.696 495.673 118.889C511.749 103.081 530.839 95.1777 552.943 95.1777C575.363 95.1777 594.642 103.264 610.779 119.438C611.094 119.754 611.408 120.072 611.721 120.394L611.986 99.1889L634.327 99.3178V273.199C634.327 296.283 626.164 315.854 609.837 331.913C593.51 347.971 574.043 356 551.436 356C524.308 356 502.329 345.211 485.5 323.632L501.324 310.836ZM552.943 115.878C535.862 115.878 521.419 121.774 509.613 133.567C498.059 145.109 492.282 159.411 492.282 176.473C492.282 193.535 498.059 207.962 509.613 219.755C521.419 231.297 535.862 237.068 552.943 237.068C569.773 237.068 584.09 231.172 595.896 219.379C607.702 207.586 613.604 193.284 613.604 176.473C613.604 159.662 607.702 145.36 595.896 133.567C584.09 121.774 569.773 115.878 552.943 115.878Z" fill="white"/>
<path d="M676.63 310.836C688.687 327.145 705.391 335.3 726.742 335.3C743.822 335.3 758.391 329.403 770.448 317.611C782.756 306.069 788.91 291.265 788.91 273.199V230.67C772.583 248.735 752.363 257.768 728.249 257.768C706.144 257.768 687.054 249.739 670.978 233.681C654.902 217.622 646.865 198.553 646.865 176.473C646.865 153.891 654.902 134.696 670.978 118.889C687.054 103.081 706.144 95.1777 728.249 95.1777C750.669 95.1777 769.948 103.264 786.085 119.438C786.4 119.754 786.714 120.072 787.026 120.394L787.292 99.1889L809.633 99.3178V273.199C809.633 296.283 801.47 315.854 785.142 331.913C768.815 347.971 749.348 356 726.742 356C699.614 356 677.635 345.211 660.805 323.632L676.63 310.836ZM728.249 115.878C711.168 115.878 696.725 121.774 684.919 133.567C673.365 145.109 667.587 159.411 667.587 176.473C667.587 193.535 673.365 207.962 684.919 219.755C696.725 231.297 711.168 237.068 728.249 237.068C745.078 237.068 759.396 231.172 771.202 219.379C783.007 207.586 788.91 193.284 788.91 176.473C788.91 159.662 783.007 145.36 771.202 133.567C759.396 121.774 745.078 115.878 728.249 115.878Z" fill="white"/>
<path d="M266.94 254.796V65.6525C267.178 53.7342 269.803 43.2461 274.814 34.1882C280.064 24.8919 287.223 17.6218 296.291 12.3777C305.597 7.13369 316.335 4.51166 328.505 4.51166H432.269L414.531 27.3948H331.011C319.318 27.3948 310.012 31.0894 303.092 38.4788C296.171 45.6297 292.711 54.6876 292.711 65.6525V121.788H403.315V144.671H292.711V254.796H266.94Z" fill="white"/>
<path d="M433.928 25.2C442.148 18.3104 476.178 15.1184 476.178 15.1184C476.178 15.1184 467.122 48.041 458.902 54.9307C450.682 61.8203 438.429 60.7473 431.533 52.5388C424.638 44.3304 425.708 32.0897 433.928 25.2Z" fill="#0DE5A8"/>
<path d="M433.966 254.985V72.6357H459.022V254.985H433.966Z" fill="white"/>
</svg>
