<svg width="356" height="356" viewBox="0 0 356 356" fill="none" xmlns="http://www.w3.org/2000/svg">
<rect width="356" height="356" rx="54" fill="white"/>
<g clip-path="url(#clip0)">
<path fill-rule="evenodd" clip-rule="evenodd" d="M20 160.573C20 137.061 39.084 118 62.5966 118C86.1349 118 105.24 137.082 105.24 160.62V203.147H62.5733C39.0607 203.147 20 184.086 20 160.573ZM53.9709 182.316C53.9709 177.573 62.566 165.144 62.566 165.144C62.566 165.144 71.1611 177.573 71.1611 182.316C71.1611 187.058 67.3121 190.901 62.566 190.901C57.8199 190.901 53.9709 187.058 53.9709 182.316ZM62.566 155.945C62.566 155.945 53.9709 143.516 53.9709 138.774C53.9709 134.031 57.8199 130.188 62.566 130.188C67.3121 130.188 71.1611 134.031 71.1611 138.774C71.1611 143.516 62.566 155.945 62.566 155.945ZM76.6376 178.865C72.5262 176.494 66.048 162.844 66.048 162.844C66.048 162.844 81.1213 161.623 85.2327 163.994C89.3441 166.365 90.7518 171.617 88.3787 175.723C86.0057 179.828 80.749 181.236 76.6376 178.865ZM59.0839 158.935C59.0839 158.935 44.0106 160.155 39.8992 157.784C35.7878 155.413 34.3801 150.162 36.7531 146.056C39.1262 141.95 44.3829 140.542 48.4943 142.913C52.6057 145.285 59.0839 158.935 59.0839 158.935ZM85.4256 157.595C81.3142 159.966 66.2409 158.745 66.2409 158.745C66.2409 158.745 72.7191 145.095 76.8305 142.724C80.9419 140.353 86.1986 141.761 88.5716 145.867C90.9447 149.973 89.537 155.224 85.4256 157.595ZM59.2767 162.655C59.2767 162.655 52.7985 176.305 48.6871 178.676C44.5756 181.047 39.319 179.639 36.9459 175.534C34.5729 171.428 35.9805 166.176 40.092 163.805C44.2034 161.434 59.2767 162.655 59.2767 162.655Z" fill="#747B81"/>
<path d="M297.95 226.679L303.368 222.651C306.056 226.679 309.962 228.692 315.085 228.692C319.285 228.692 322.645 227.308 325.165 224.539C327.769 221.771 329.07 218.498 329.07 214.723V198.991C325.207 202.431 320.671 204.151 315.463 204.151C309.668 204.151 304.796 202.179 300.848 198.236C296.901 194.292 294.927 189.426 294.927 183.637V151.292H301.856V183.637C301.856 187.412 303.2 190.643 305.888 193.328C308.66 195.929 311.852 197.229 315.463 197.229C319.411 197.229 322.645 195.887 325.165 193.202C327.769 190.433 329.07 187.245 329.07 183.637V151.292H336V214.723C336 220.512 333.942 225.42 329.826 229.448C325.795 233.559 320.881 235.614 315.085 235.614C307.862 235.614 302.15 232.636 297.95 226.679Z" fill="#747B81"/>
<path d="M187.639 221.941C191.67 227.395 197.256 230.121 204.395 230.121C210.107 230.121 214.979 228.15 219.011 224.206C223.126 220.347 225.184 215.397 225.184 209.356V195.134C219.724 201.175 212.963 204.196 204.899 204.196C197.508 204.196 191.124 201.511 185.749 196.141C180.373 190.771 177.685 184.395 177.685 177.011C177.685 169.46 180.373 163.041 185.749 157.755C191.124 152.47 197.508 149.827 204.899 149.827C212.397 149.827 218.843 152.531 224.239 157.939C224.345 158.045 224.45 158.151 224.554 158.259L224.643 151.168L232.114 151.211V209.356C232.114 217.075 229.384 223.619 223.924 228.989C218.465 234.359 211.955 237.043 204.395 237.043C195.324 237.043 187.975 233.436 182.347 226.22L187.639 221.941ZM204.899 156.749C199.188 156.749 194.358 158.72 190.41 162.664C186.547 166.523 184.615 171.306 184.615 177.011C184.615 182.716 186.547 187.541 190.41 191.484C194.358 195.344 199.188 197.274 204.899 197.274C210.527 197.274 215.315 195.302 219.263 191.358C223.21 187.415 225.184 182.633 225.184 177.011C225.184 171.39 223.21 166.607 219.263 162.664C215.315 158.72 210.527 156.749 204.899 156.749Z" fill="#747B81"/>
<path d="M246.259 221.941C250.291 227.395 255.877 230.121 263.016 230.121C268.728 230.121 273.6 228.15 277.631 224.206C281.747 220.347 283.805 215.397 283.805 209.356V195.134C278.345 201.175 271.584 204.196 263.52 204.196C256.129 204.196 249.745 201.511 244.369 196.141C238.994 190.771 236.306 184.395 236.306 177.011C236.306 169.46 238.994 163.041 244.369 157.755C249.745 152.47 256.129 149.827 263.52 149.827C271.017 149.827 277.464 152.531 282.86 157.939C282.965 158.045 283.07 158.151 283.175 158.259L283.264 151.168L290.734 151.211V209.356C290.734 217.075 288.005 223.619 282.545 228.989C277.085 234.359 270.576 237.043 263.016 237.043C253.945 237.043 246.595 233.436 240.968 226.22L246.259 221.941ZM263.52 156.749C257.809 156.749 252.979 158.72 249.031 162.664C245.167 166.523 243.236 171.306 243.236 177.011C243.236 182.716 245.167 187.541 249.031 191.484C252.979 195.344 257.809 197.274 263.52 197.274C269.148 197.274 273.936 195.302 277.883 191.358C281.831 187.415 283.805 182.633 283.805 177.011C283.805 171.39 281.831 166.607 277.883 162.664C273.936 158.72 269.148 156.749 263.52 156.749Z" fill="#747B81"/>
<path d="M109.262 203.202V139.954C109.342 135.968 110.22 132.461 111.896 129.432C113.651 126.324 116.045 123.893 119.077 122.139C122.189 120.385 125.78 119.509 129.849 119.509H164.547L158.616 127.161H130.687C126.777 127.161 123.665 128.396 121.351 130.867C119.037 133.258 117.88 136.287 117.88 139.954V158.725H154.865V166.377H117.88V203.202H109.262Z" fill="#747B81"/>
<path d="M165.102 126.427C167.85 124.123 179.23 123.055 179.23 123.055C179.23 123.055 176.202 134.064 173.453 136.368C170.704 138.672 166.607 138.313 164.301 135.569C161.995 132.824 162.353 128.73 165.102 126.427Z" fill="#0DE5A8"/>
<path d="M165.115 203.265V142.289H173.493V203.265H165.115Z" fill="#747B81"/>
</g>
<defs>
<clipPath id="clip0">
<rect width="316" height="119.043" fill="white" transform="translate(20 118)"/>
</clipPath>
</defs>
</svg>
