<svg width="663" height="250" viewBox="0 0 663 250" fill="none" xmlns="http://www.w3.org/2000/svg">
<path fill-rule="evenodd" clip-rule="evenodd" d="M0 89.4071C0 40.0289 40.0289 0 89.4071 0C138.785 0 178.814 40.0289 178.814 89.407V178.814H89.4071C40.0289 178.814 0 138.785 0 89.4071ZM71.2635 135.067C71.2635 125.108 89.2941 99.0061 89.2941 99.0061C89.2941 99.0061 107.325 125.108 107.325 135.067C107.325 145.026 99.2504 153.098 89.2941 153.098C79.3379 153.098 71.2635 145.026 71.2635 135.067ZM89.2941 79.6874C89.2941 79.6874 71.2635 53.5853 71.2635 43.6262C71.2635 33.6671 79.3379 25.5956 89.2941 25.5956C99.2504 25.5956 107.325 33.6671 107.325 43.6262C107.325 53.5853 89.2941 79.6874 89.2941 79.6874ZM118.813 127.821C110.188 122.842 96.5985 94.1759 96.5985 94.1759C96.5985 94.1759 128.219 91.612 136.844 96.5915C145.468 101.571 148.421 112.599 143.443 121.222C138.465 129.844 127.438 132.801 118.813 127.821ZM81.9894 85.9654C81.9894 85.9654 50.369 88.5293 41.7441 83.5498C33.1193 78.5702 30.1664 67.5419 35.1445 58.9195C40.1226 50.2971 51.1499 47.3403 59.7748 52.3199C68.3996 57.2994 81.9894 85.9654 81.9894 85.9654ZM137.249 83.1527C128.624 88.1322 97.0033 85.5683 97.0033 85.5683C97.0033 85.5683 110.593 56.9023 119.218 51.9227C127.843 46.9432 138.87 49.9 143.848 58.5224C148.826 67.1448 145.873 78.1731 137.249 83.1527ZM82.3937 93.7786C82.3937 93.7786 68.8039 122.445 60.1791 127.424C51.5543 132.404 40.527 129.447 35.5488 120.825C30.5707 112.202 33.5237 101.174 42.1485 96.1943C50.7733 91.2147 82.3937 93.7786 82.3937 93.7786Z" fill="#C2C4C6"/>
<path d="M583.079 228.234L594.444 219.776C600.082 228.234 608.275 232.463 619.024 232.463C627.834 232.463 634.882 229.555 640.168 223.741C645.63 217.926 648.361 211.054 648.361 203.125V170.087C640.256 177.311 630.741 180.924 619.817 180.924C607.659 180.924 597.439 176.783 589.158 168.501C580.876 160.22 576.735 150 576.735 137.842V69.9165H591.272V137.842C591.272 145.771 594.091 152.555 599.73 158.194C605.544 163.656 612.24 166.387 619.817 166.387C628.098 166.387 634.882 163.568 640.168 157.929C645.63 152.115 648.361 145.419 648.361 137.842V69.9165H662.898V203.125C662.898 215.283 658.581 225.591 649.947 234.048C641.489 242.682 631.182 246.999 619.024 246.999C603.87 246.999 591.889 240.744 583.079 228.234Z" fill="#C2C4C6"/>
<path d="M351.668 218.284C360.126 229.737 371.844 235.463 386.821 235.463C398.802 235.463 409.022 231.323 417.48 223.041C426.114 214.936 430.431 204.54 430.431 191.854V161.987C418.978 174.674 404.793 181.017 387.878 181.017C372.372 181.017 358.981 175.379 347.704 164.102C336.427 152.825 330.789 139.433 330.789 123.928C330.789 108.07 336.427 94.5902 347.704 83.4894C358.981 72.3887 372.372 66.8384 387.878 66.8384C403.605 66.8384 417.129 72.5173 428.449 83.875C428.67 84.0967 428.89 84.3206 429.109 84.5467L429.295 69.6552L444.967 69.7457V191.854C444.967 208.064 439.241 221.808 427.788 233.085C416.334 244.362 402.679 250 386.821 250C367.791 250 352.373 242.423 340.568 227.27L351.668 218.284ZM387.878 81.375C375.896 81.375 365.765 85.5158 357.483 93.7972C349.378 101.903 345.325 111.946 345.325 123.928C345.325 135.909 349.378 146.041 357.483 154.323C365.765 162.428 375.896 166.48 387.878 166.48C399.683 166.48 409.727 162.34 418.008 154.058C426.29 145.777 430.431 135.733 430.431 123.928C430.431 112.122 426.29 102.079 418.008 93.7972C409.727 85.5158 399.683 81.375 387.878 81.375Z" fill="#C2C4C6"/>
<path d="M474.642 218.284C483.099 229.737 494.817 235.463 509.794 235.463C521.776 235.463 531.995 231.323 540.453 223.041C549.087 214.936 553.404 204.54 553.404 191.854V161.987C541.951 174.674 527.766 181.017 510.851 181.017C495.345 181.017 481.954 175.379 470.677 164.102C459.4 152.825 453.762 139.433 453.762 123.928C453.762 108.07 459.4 94.5902 470.677 83.4894C481.954 72.3887 495.345 66.8384 510.851 66.8384C526.578 66.8384 540.102 72.5173 551.422 83.875C551.643 84.0967 551.863 84.3206 552.082 84.5467L552.269 69.6552L567.94 69.7457V191.854C567.94 208.064 562.214 221.808 550.761 233.085C539.308 244.362 525.652 250 509.794 250C490.764 250 475.346 242.423 463.541 227.27L474.642 218.284ZM510.851 81.375C498.869 81.375 488.738 85.5158 480.456 93.7972C472.351 101.903 468.298 111.946 468.298 123.928C468.298 135.909 472.351 146.041 480.456 154.323C488.738 162.428 498.869 166.48 510.851 166.48C522.657 166.48 532.7 162.34 540.982 154.058C549.263 145.777 553.404 135.733 553.404 123.928C553.404 112.122 549.263 102.079 540.982 93.7972C532.7 85.5158 522.657 81.375 510.851 81.375Z" fill="#C2C4C6"/>
<path d="M187.252 178.93V46.1044C187.42 37.7348 189.261 30.3696 192.776 24.0087C196.459 17.4804 201.481 12.375 207.842 8.69239C214.37 5.00977 221.903 3.16846 230.439 3.16846H303.227L290.785 19.2381H232.197C223.995 19.2381 217.467 21.8326 212.612 27.0218C207.758 32.0435 205.331 38.4044 205.331 46.1044V85.5251H282.917V101.595H205.331V178.93H187.252Z" fill="#C2C4C6"/>
<path d="M304.391 17.6967C310.157 12.8584 334.029 10.6169 334.029 10.6169C334.029 10.6169 327.676 33.7367 321.91 38.5749C316.144 43.4132 307.548 42.6596 302.712 36.8953C297.875 31.1309 298.625 22.5349 304.391 17.6967Z" fill="#0DE5A8"/>
<path d="M304.418 179.063V51.0083H321.994V179.063H304.418Z" fill="#C2C4C6"/>
</svg>
