<svg width="356" height="356" viewBox="0 0 356 356" fill="none" xmlns="http://www.w3.org/2000/svg">
<rect width="356" height="356" rx="54" fill="#747B81"/>
<path fill-rule="evenodd" clip-rule="evenodd" d="M40 178C40 101.785 101.785 40 178 40C254.215 40 316 101.785 316 178V316H178C101.785 316 40 254.215 40 178ZM149.995 248.477C149.995 233.105 177.826 192.816 177.826 192.816C177.826 192.816 205.656 233.105 205.656 248.477C205.656 263.849 193.193 276.307 177.826 276.307C162.458 276.307 149.995 263.849 149.995 248.477ZM177.826 162.998C177.826 162.998 149.995 122.709 149.995 107.337C149.995 91.9653 162.458 79.5069 177.826 79.5069C193.193 79.5069 205.656 91.9653 205.656 107.337C205.656 122.709 177.826 162.998 177.826 162.998ZM223.388 237.293C210.076 229.607 189.1 185.361 189.1 185.361C189.1 185.361 237.906 181.403 251.219 189.089C264.531 196.775 269.089 213.797 261.405 227.106C253.721 240.415 236.701 244.979 223.388 237.293ZM166.551 172.688C166.551 172.688 117.744 176.645 104.432 168.959C91.1196 161.273 86.5617 144.251 94.2454 130.942C101.929 117.634 118.95 113.07 132.262 120.756C145.575 128.442 166.551 172.688 166.551 172.688ZM251.843 168.346C238.531 176.032 189.725 172.075 189.725 172.075C189.725 172.075 210.7 127.829 224.013 120.143C237.325 112.457 254.346 117.021 262.03 130.329C269.714 143.638 265.156 160.66 251.843 168.346ZM167.175 184.748C167.175 184.748 146.199 228.994 132.887 236.68C119.574 244.366 102.553 239.802 94.8697 226.493C87.1859 213.184 91.7438 196.162 105.056 188.476C118.369 180.79 167.175 184.748 167.175 184.748Z" fill="white"/>
</svg>
