<svg width="1300" height="300" viewBox="0 0 1300 300" fill="none" xmlns="http://www.w3.org/2000/svg">
<g clip-path="url(#clip0)">
<rect width="1300" height="300" fill="white"/>
<g clip-path="url(#clip1)">
<path d="M1934.67 414.696H-635V-177.841H1934.67V414.696Z" fill="#282F35"/>
<path d="M1934.67 414.696H-635V-177.841H1934.67V414.696Z" fill="url(#paint0_radial)"/>
<path d="M1934.67 414.696H-635V-177.841H1934.67V414.696Z" fill="url(#paint1_radial)"/>
<path d="M1934.67 414.696H-635V-177.841H1934.67V414.696Z" fill="url(#paint2_radial)"/>
<path d="M1934.67 414.696H-635V-177.841H1934.67V414.696Z" fill="url(#paint3_radial)"/>
<path d="M1934.67 414.696H-635V-177.841H1934.67V414.696Z" fill="url(#paint4_radial)"/>
</g>
<g clip-path="url(#clip2)">
<path d="M1224.05 266.901H1253.18V267.841H1248.64V276.77H1247.7V267.841H1230V276.77H1229.06V267.841H1224.05V266.901Z" fill="#384047"/>
<path d="M1213.24 243.873H1220.76V251.392H1217.27V276.729H1216.33V251.392H1213.24V243.873Z" fill="#384047"/>
<path d="M1223.99 264.089H1253.13V265.029H1223.99V264.089Z" fill="#384047"/>
<path d="M1223.99 261.739H1253.13V262.679H1223.99V261.739Z" fill="#384047"/>
<path d="M1223.99 259.389H1253.13V260.329H1223.99V259.389Z" fill="#384047"/>
<path d="M1149.32 279.479H1150.26C1150.26 234.907 1186.52 198.646 1231.1 198.646C1275.67 198.646 1311.93 234.907 1311.93 279.479H1312.87C1312.87 234.389 1276.19 197.706 1231.1 197.706C1186 197.706 1149.32 234.389 1149.32 279.479Z" fill="#384047"/>
<path d="M1367.03 254.678C1324.59 254.678 1290.19 220.276 1290.19 177.839C1290.19 135.402 1324.59 101 1367.03 101C1409.47 101 1443.87 135.402 1443.87 177.839C1443.87 220.276 1409.47 254.678 1367.03 254.678Z" fill="#0DE5A8"/>
<path opacity="0.2" d="M1309.87 126.517C1302.71 143.282 1301.73 162.05 1307.13 179.467C1312.53 196.884 1323.94 211.814 1339.33 221.59C1354.72 231.366 1373.09 235.351 1391.15 232.832C1409.21 230.313 1425.78 221.455 1437.91 207.841C1433.53 218.084 1426.98 227.253 1418.7 234.712C1410.43 242.171 1400.63 247.742 1389.99 251.04C1379.35 254.337 1368.12 255.281 1357.08 253.808C1346.04 252.334 1335.45 248.477 1326.05 242.504C1316.64 236.532 1308.65 228.586 1302.62 219.218C1296.6 209.85 1292.68 199.284 1291.14 188.251C1289.6 177.218 1290.48 165.982 1293.71 155.322C1296.95 144.663 1302.46 134.834 1309.87 126.517V126.517Z" fill="black"/>
<path d="M1084.19 272.63C1049.84 272.63 1022 244.786 1022 210.439C1022 176.091 1049.84 148.247 1084.19 148.247C1118.54 148.247 1146.38 176.091 1146.38 210.439C1146.38 244.786 1118.54 272.63 1084.19 272.63Z" fill="#0DE5A8"/>
<path opacity="0.2" d="M1037.93 168.9C1032.13 182.469 1031.34 197.66 1035.71 211.756C1040.08 225.853 1049.31 237.937 1061.77 245.849C1074.23 253.762 1089.09 256.987 1103.71 254.948C1118.33 252.91 1131.74 245.74 1141.56 234.721C1138.01 243.012 1132.71 250.433 1126.01 256.47C1119.32 262.507 1111.39 267.016 1102.78 269.685C1094.16 272.354 1085.08 273.118 1076.14 271.925C1067.2 270.732 1058.63 267.611 1051.02 262.777C1043.41 257.943 1036.94 251.512 1032.06 243.93C1027.18 236.347 1024.01 227.795 1022.77 218.865C1021.52 209.936 1022.23 200.842 1024.85 192.214C1027.47 183.587 1031.93 175.631 1037.93 168.9V168.9Z" fill="black"/>
<path d="M1084.02 210.438H1083.85L1080.77 386.761H1087.27L1084.02 210.438Z" fill="#384047"/>
<path d="M1267.71 263.992C1262.31 263.992 1257.92 259.609 1257.92 254.202C1257.92 248.795 1262.31 244.412 1267.71 244.412C1273.12 244.412 1277.5 248.795 1277.5 254.202C1277.5 259.609 1273.12 263.992 1267.71 263.992Z" fill="#0DE5A8"/>
<path opacity="0.2" d="M1260.43 247.663C1259.52 249.799 1259.39 252.19 1260.08 254.409C1260.77 256.629 1262.22 258.531 1264.18 259.777C1266.14 261.022 1268.48 261.53 1270.78 261.209C1273.09 260.888 1275.2 259.759 1276.74 258.025C1276.19 259.33 1275.35 260.498 1274.3 261.448C1273.24 262.399 1271.99 263.109 1270.64 263.529C1269.28 263.949 1267.85 264.069 1266.44 263.881C1265.04 263.694 1263.69 263.202 1262.49 262.441C1261.29 261.68 1260.27 260.668 1259.51 259.474C1258.74 258.281 1258.24 256.934 1258.04 255.529C1257.85 254.123 1257.96 252.691 1258.37 251.333C1258.78 249.975 1259.49 248.723 1260.43 247.663V247.663Z" fill="black"/>
<path d="M1267.69 254.202H1267.66L1267.17 281.959H1268.2L1267.69 254.202Z" fill="#384047"/>
<path d="M1265.9 269.321L1266.13 268.893L1267.75 269.745L1267.52 270.173L1265.9 269.321Z" fill="#384047"/>
<path d="M1177.24 247.712C1163.4 247.712 1152.18 236.49 1152.18 222.647C1152.18 208.805 1163.4 197.583 1177.24 197.583C1191.09 197.583 1202.31 208.805 1202.31 222.647C1202.31 236.49 1191.09 247.712 1177.24 247.712Z" fill="#0DE5A8"/>
<path opacity="0.2" d="M1158.6 205.906C1156.26 211.375 1155.94 217.497 1157.71 223.178C1159.47 228.859 1163.19 233.73 1168.21 236.918C1173.23 240.107 1179.22 241.407 1185.11 240.585C1191 239.764 1196.41 236.874 1200.36 232.434C1198.94 235.775 1196.8 238.766 1194.1 241.199C1191.4 243.632 1188.21 245.449 1184.73 246.525C1181.26 247.6 1177.6 247.908 1174 247.428C1170.4 246.947 1166.94 245.689 1163.88 243.741C1160.81 241.792 1158.2 239.201 1156.24 236.145C1154.27 233.089 1152.99 229.642 1152.49 226.043C1151.99 222.445 1152.27 218.78 1153.33 215.303C1154.38 211.825 1156.18 208.619 1158.6 205.906V205.906Z" fill="black"/>
<path d="M1177.18 222.647H1177.11L1175.87 293.709H1178.48L1177.18 222.647Z" fill="#384047"/>
<path d="M1172.61 261.354L1173.19 260.257L1177.33 262.439L1176.75 263.535L1172.61 261.354Z" fill="#384047"/>
<path d="M1152.08 299.803C1152.08 299.803 1151.82 294.402 1146.54 295.03Z" fill="#384047"/>
<path d="M1153.58 294.663C1152.11 294.663 1150.93 293.479 1150.93 292.019C1150.93 290.558 1152.11 289.374 1153.58 289.374C1155.04 289.374 1156.22 290.558 1156.22 292.019C1156.22 293.479 1155.04 294.663 1153.58 294.663Z" fill="#0DE5A8"/>
<path d="M1153.26 296.472H1154.01V301.698H1153.26V296.472Z" fill="#384047"/>
<path d="M1137.6 303.593C1136.14 303.593 1134.95 302.409 1134.95 300.948C1134.95 299.487 1136.14 298.303 1137.6 298.303C1139.06 298.303 1140.24 299.487 1140.24 300.948C1140.24 302.409 1139.06 303.593 1137.6 303.593Z" fill="#0DE5A8"/>
<path d="M1166.18 293.694C1166.18 293.694 1165.92 288.293 1160.64 288.92Z" fill="#384047"/>
<path d="M1167.67 288.554C1166.21 288.554 1165.03 287.37 1165.03 285.909C1165.03 284.448 1166.21 283.264 1167.67 283.264C1169.14 283.264 1170.32 284.448 1170.32 285.909C1170.32 287.37 1169.14 288.554 1167.67 288.554Z" fill="#0DE5A8"/>
<path d="M1167.36 290.363H1168.1V295.588H1167.36V290.363Z" fill="#384047"/>
<path d="M1385.28 397.44C1385.28 397.44 1237.24 358.433 1238.65 318.486C1241.24 307.442 1259.1 304.622 1259.1 304.622C1259.1 304.622 1301.39 298.983 1278.37 285.354C1255.34 271.725 1192.36 275.015 1192.36 275.015C1192.36 275.015 1257.22 285.354 1228.55 290.994C1205.52 292.403 1175.91 298.513 1175.91 298.513C1175.91 298.513 1115.76 311.202 1107.3 342.22C1098.84 373.237 1105.89 397.205 1105.89 397.205L1385.28 397.44Z" fill="#C2C4C6"/>
<path d="M1217.13 392.509L1217.71 391.75C1216.17 390.585 1214.65 389.413 1213.2 388.266L1212.61 389.013C1214.07 390.164 1215.59 391.34 1217.13 392.509ZM1208.17 385.414L1208.78 384.681C1207.29 383.444 1205.83 382.2 1204.45 380.985L1203.82 381.701C1205.21 382.921 1206.67 384.171 1208.17 385.414V385.414ZM1199.58 377.857L1200.23 377.162C1198.81 375.829 1197.44 374.494 1196.16 373.194L1195.48 373.863C1196.77 375.171 1198.15 376.515 1199.58 377.857V377.857ZM1191.55 369.694L1192.26 369.058C1190.96 367.603 1189.72 366.146 1188.59 364.728L1187.85 365.321C1188.99 366.754 1190.23 368.225 1191.55 369.694V369.694ZM1184.43 360.709L1185.22 360.172C1184.11 358.55 1183.11 356.93 1182.25 355.358L1181.41 355.817C1182.29 357.415 1183.31 359.061 1184.43 360.709ZM1178.96 350.607L1179.84 350.259C1179.15 348.516 1178.61 346.717 1178.22 344.882L1177.29 345.074C1177.69 346.962 1178.24 348.813 1178.96 350.607V350.607ZM1177.68 339.322C1177.71 337.471 1177.97 335.63 1178.45 333.842L1177.53 333.594C1177.03 335.458 1176.76 337.376 1176.73 339.306L1177.68 339.322ZM1180.53 328.701C1181.44 327.067 1182.5 325.526 1183.7 324.099L1182.97 323.488C1181.73 324.963 1180.63 326.555 1179.7 328.243L1180.53 328.701ZM1187.64 320.079C1189.05 318.833 1190.54 317.664 1192.08 316.58L1191.53 315.802C1189.96 316.907 1188.45 318.097 1187.01 319.367L1187.64 320.079ZM1196.85 313.515C1198.41 312.599 1200.09 311.685 1201.85 310.799L1201.42 309.949C1199.64 310.844 1197.95 311.768 1196.37 312.694L1196.85 313.515ZM1206.99 308.365C1208.65 307.628 1210.42 306.887 1212.24 306.161L1211.89 305.276C1210.05 306.006 1208.28 306.753 1206.61 307.494L1206.99 308.365ZM1217.58 304.136C1219.28 303.521 1221.09 302.89 1222.98 302.259L1222.67 301.356C1220.79 301.989 1218.96 302.623 1217.26 303.241L1217.58 304.136ZM1228.41 300.495C1230.07 299.971 1231.86 299.42 1233.87 298.81L1233.6 297.898C1231.58 298.51 1229.79 299.062 1228.12 299.586L1228.41 300.495ZM1239.35 297.165C1241.28 296.588 1243.12 296.038 1244.84 295.508L1244.56 294.598C1242.84 295.127 1241 295.677 1239.08 296.252L1239.35 297.165ZM1250.3 293.742C1252.13 293.137 1253.92 292.416 1255.66 291.583L1255.23 290.732C1253.53 291.546 1251.78 292.251 1249.99 292.841L1250.3 293.742ZM1257.49 287.498L1258.17 286.831C1257.3 285.948 1255.58 285.085 1252.92 284.191L1252.62 285.095C1255.1 285.927 1256.74 286.737 1257.49 287.498L1257.49 287.498ZM1247.17 283.543L1247.4 282.619C1245.75 282.208 1243.87 281.779 1241.82 281.343L1241.62 282.275C1243.66 282.708 1245.53 283.135 1247.17 283.543V283.543ZM1236.04 281.153L1236.22 280.217C1234.46 279.882 1232.57 279.535 1230.6 279.185L1230.43 280.123C1232.4 280.472 1234.29 280.818 1236.04 281.153V281.153ZM1224.81 279.155L1224.97 278.216C1223.18 277.915 1221.3 277.607 1219.34 277.293L1219.19 278.233C1221.15 278.547 1223.02 278.855 1224.81 279.155Z" fill="white"/>
<path d="M1213.44 277.329L1213.59 276.388C1212.66 276.245 1211.72 276.1 1210.76 275.954L1210.62 276.895C1211.58 277.041 1212.52 277.186 1213.44 277.329Z" fill="white"/>
<path d="M1192.36 180.585L1188.04 177.125C1191.4 176.754 1192.78 178.587 1193.34 180.038C1195.97 178.948 1198.83 180.377 1198.83 180.377L1190.17 183.519C1190.61 182.353 1191.37 181.335 1192.36 180.585V180.585Z" fill="#384047"/>
<path d="M1272.73 207.373L1268.4 203.913C1271.76 203.542 1273.14 205.375 1273.71 206.826C1276.33 205.736 1279.19 207.165 1279.19 207.165L1270.54 210.307C1270.97 209.141 1271.73 208.123 1272.73 207.373V207.373Z" fill="#384047"/>
<path d="M1251.58 151.918L1247.25 148.457C1250.61 148.087 1251.99 149.92 1252.56 151.37C1255.19 150.28 1258.04 151.709 1258.04 151.709L1249.39 154.852C1249.82 153.685 1250.58 152.667 1251.58 151.918Z" fill="#384047"/>
<path d="M1198.09 301.197C1195.1 301.197 1192.68 298.774 1192.68 295.785C1192.68 292.795 1195.1 290.372 1198.09 290.372C1201.08 290.372 1203.51 292.795 1203.51 295.785C1203.51 298.774 1201.08 301.197 1198.09 301.197Z" fill="#9E616A"/>
<path d="M1199.34 298.699C1199.34 298.699 1199.97 305.569 1200.8 306.194C1201.63 306.818 1192.06 305.777 1192.06 305.777C1192.06 305.777 1195.39 300.781 1194.76 299.116C1194.14 297.45 1199.34 298.699 1199.34 298.699Z" fill="#9E616A"/>
<path d="M1194.66 301.266C1189.83 301.266 1185.92 297.351 1185.92 292.522C1185.92 287.693 1189.83 283.779 1194.66 283.779C1199.49 283.779 1203.4 287.693 1203.4 292.522C1203.4 297.351 1199.49 301.266 1194.66 301.266Z" fill="#384047"/>
<path d="M1189.2 288.145C1190.67 287.799 1191.96 286.899 1192.78 285.631C1193.61 284.364 1193.92 282.827 1193.64 281.339C1193.67 281.428 1193.69 281.518 1193.71 281.61C1194.07 283.13 1193.81 284.73 1192.99 286.057C1192.16 287.384 1190.85 288.331 1189.33 288.688C1187.81 289.045 1186.21 288.784 1184.88 287.962C1183.55 287.14 1182.6 285.825 1182.25 284.305C1182.22 284.213 1182.21 284.122 1182.19 284.03C1182.61 285.485 1183.57 286.725 1184.87 287.491C1186.18 288.257 1187.73 288.491 1189.2 288.145V288.145Z" fill="#384047"/>
<path d="M1188.84 289.284C1186.48 289.284 1184.56 287.369 1184.56 285.006C1184.56 282.642 1186.48 280.727 1188.84 280.727C1191.21 280.727 1193.12 282.642 1193.12 285.006C1193.12 287.369 1191.21 289.284 1188.84 289.284Z" fill="#384047"/>
</g>
<g clip-path="url(#clip3)">
<path fill-rule="evenodd" clip-rule="evenodd" d="M30 132.573C30 109.061 49.084 90 72.5966 90C96.1349 90 115.24 109.082 115.24 132.62V175.147H72.5733C49.0607 175.147 30 156.086 30 132.573ZM63.9709 154.316C63.9709 149.573 72.566 137.144 72.566 137.144C72.566 137.144 81.1611 149.573 81.1611 154.316C81.1611 159.058 77.3121 162.901 72.566 162.901C67.8199 162.901 63.9709 159.058 63.9709 154.316ZM72.566 127.945C72.566 127.945 63.9709 115.516 63.9709 110.774C63.9709 106.031 67.8199 102.188 72.566 102.188C77.3121 102.188 81.1611 106.031 81.1611 110.774C81.1611 115.516 72.566 127.945 72.566 127.945ZM86.6375 150.865C82.5261 148.494 76.0479 134.844 76.0479 134.844C76.0479 134.844 91.1212 133.623 95.2326 135.994C99.344 138.366 100.752 143.617 98.3786 147.723C96.0056 151.828 90.7489 153.236 86.6375 150.865ZM69.0838 130.935C69.0838 130.935 54.0106 132.155 49.8991 129.784C45.7877 127.413 44.3801 122.162 46.7531 118.056C49.1262 113.95 54.3828 112.542 58.4942 114.913C62.6057 117.285 69.0838 130.935 69.0838 130.935ZM95.4255 129.595C91.3141 131.966 76.2408 130.745 76.2408 130.745C76.2408 130.745 82.719 117.095 86.8304 114.724C90.9418 112.353 96.1985 113.761 98.5716 117.867C100.945 121.973 99.5369 127.224 95.4255 129.595ZM69.2766 134.655C69.2766 134.655 62.7984 148.305 58.687 150.676C54.5756 153.047 49.3189 151.639 46.9458 147.534C44.5728 143.428 45.9804 138.176 50.0919 135.805C54.2033 133.434 69.2766 134.655 69.2766 134.655Z" fill="white"/>
<path d="M307.951 198.679L313.368 194.651C316.056 198.679 319.962 200.692 325.085 200.692C329.285 200.692 332.645 199.308 335.165 196.539C337.769 193.771 339.071 190.498 339.071 186.723V170.991C335.207 174.431 330.671 176.151 325.463 176.151C319.668 176.151 314.796 174.179 310.848 170.236C306.901 166.292 304.927 161.426 304.927 155.637V123.292H311.856V155.637C311.856 159.412 313.2 162.643 315.888 165.328C318.66 167.929 321.852 169.229 325.463 169.229C329.411 169.229 332.645 167.887 335.165 165.202C337.769 162.433 339.071 159.245 339.071 155.637V123.292H346V186.723C346 192.512 343.942 197.42 339.826 201.448C335.795 205.559 330.881 207.614 325.085 207.614C317.862 207.614 312.15 204.636 307.951 198.679Z" fill="white"/>
<path d="M197.639 193.941C201.67 199.395 207.256 202.121 214.396 202.121C220.107 202.121 224.979 200.15 229.011 196.206C233.126 192.347 235.184 187.397 235.184 181.356V167.134C229.725 173.175 222.963 176.196 214.9 176.196C207.508 176.196 201.124 173.511 195.749 168.141C190.373 162.771 187.685 156.395 187.685 149.011C187.685 141.46 190.373 135.041 195.749 129.755C201.124 124.47 207.508 121.827 214.9 121.827C222.397 121.827 228.843 124.531 234.239 129.939C234.345 130.045 234.45 130.151 234.554 130.259L234.643 123.168L242.114 123.211V181.356C242.114 189.075 239.384 195.619 233.924 200.989C228.465 206.359 221.955 209.043 214.396 209.043C205.324 209.043 197.975 205.436 192.347 198.22L197.639 193.941ZM214.9 128.749C209.188 128.749 204.358 130.72 200.41 134.664C196.547 138.523 194.615 143.306 194.615 149.011C194.615 154.716 196.547 159.541 200.41 163.484C204.358 167.344 209.188 169.274 214.9 169.274C220.527 169.274 225.315 167.302 229.263 163.358C233.21 159.415 235.184 154.633 235.184 149.011C235.184 143.39 233.21 138.607 229.263 134.664C225.315 130.72 220.527 128.749 214.9 128.749Z" fill="white"/>
<path d="M256.259 193.941C260.291 199.395 265.877 202.121 273.016 202.121C278.728 202.121 283.599 200.15 287.631 196.206C291.747 192.347 293.805 187.397 293.805 181.356V167.134C288.345 173.175 281.584 176.196 273.52 176.196C266.129 176.196 259.745 173.511 254.369 168.141C248.994 162.771 246.306 156.395 246.306 149.011C246.306 141.46 248.994 135.041 254.369 129.755C259.745 124.47 266.129 121.827 273.52 121.827C281.017 121.827 287.464 124.531 292.86 129.939C292.965 130.045 293.07 130.151 293.175 130.259L293.264 123.168L300.734 123.211V181.356C300.734 189.075 298.005 195.619 292.545 200.989C287.085 206.359 280.576 209.043 273.016 209.043C263.945 209.043 256.595 205.436 250.968 198.22L256.259 193.941ZM273.52 128.749C267.808 128.749 262.979 130.72 259.031 134.664C255.167 138.523 253.235 143.306 253.235 149.011C253.235 154.716 255.167 159.541 259.031 163.484C262.979 167.344 267.808 169.274 273.52 169.274C279.148 169.274 283.935 167.302 287.883 163.358C291.831 159.415 293.805 154.633 293.805 149.011C293.805 143.39 291.831 138.607 287.883 134.664C283.935 130.72 279.148 128.749 273.52 128.749Z" fill="white"/>
<path d="M119.262 175.202V111.954C119.342 107.968 120.22 104.461 121.895 101.432C123.651 98.3237 126.045 95.8926 129.077 94.139C132.189 92.3855 135.78 91.5087 139.849 91.5087H174.547L168.616 99.1606H140.687C136.777 99.1606 133.665 100.396 131.351 102.867C129.037 105.258 127.88 108.287 127.88 111.954V130.725H164.865V138.377H127.88V175.202H119.262Z" fill="white"/>
<path d="M175.102 98.4267C177.85 96.1228 189.23 95.0554 189.23 95.0554C189.23 95.0554 186.201 106.064 183.453 108.368C180.704 110.672 176.607 110.313 174.301 107.569C171.995 104.824 172.353 100.73 175.102 98.4267Z" fill="#0DE5A8"/>
<path d="M175.115 175.265V114.289H183.493V175.265H175.115Z" fill="white"/>
</g>
<path d="M407.988 177.408C414.788 177.408 419.582 172.444 419.582 165.678C419.582 158.912 414.788 153.948 407.988 153.948C401.188 153.948 396.394 158.912 396.394 165.678C396.394 172.444 401.188 177.408 407.988 177.408ZM407.988 173.872C403.398 173.872 400.474 170.336 400.474 165.678C400.474 160.986 403.398 157.484 407.988 157.484C412.544 157.484 415.502 160.986 415.502 165.678C415.502 170.336 412.544 173.872 407.988 173.872ZM432.15 177.408C436.4 177.408 439.426 174.178 439.426 168.772C439.426 163.366 436.4 160.17 432.15 160.17C430.008 160.17 428.104 161.19 426.88 162.822V160.578H423.31V183.256H426.88V174.722C428.206 176.49 430.076 177.408 432.15 177.408ZM431.096 174.246C429.43 174.246 427.662 173.226 426.88 172.036V165.542C427.662 164.318 429.43 163.332 431.096 163.332C433.918 163.332 435.72 165.61 435.72 168.772C435.72 171.968 433.918 174.246 431.096 174.246ZM450.548 177.408C453.166 177.408 455.58 176.592 457.212 175.028L455.58 172.682C454.424 173.838 452.52 174.484 450.922 174.484C447.828 174.484 445.958 172.444 445.686 169.962H458.368V169.112C458.368 163.944 455.206 160.17 450.276 160.17C445.414 160.17 441.946 164.012 441.946 168.772C441.946 173.974 445.618 177.408 450.548 177.408ZM454.9 167.446H445.652C445.822 165.44 447.216 163.094 450.276 163.094C453.506 163.094 454.832 165.508 454.9 167.446ZM476.546 177V165.44C476.546 162.074 474.778 160.17 471.242 160.17C468.658 160.17 466.55 161.53 465.462 162.822V160.578H461.892V177H465.462V165.542C466.278 164.42 467.842 163.332 469.678 163.332C471.684 163.332 472.976 164.182 472.976 166.732V177H476.546ZM488.051 170.302V167.242H479.891V170.302H488.051ZM496.986 177.408C501.406 177.408 503.82 175.198 503.82 172.308C503.82 165.78 493.892 167.956 493.892 165.032C493.892 163.876 495.082 163.026 496.952 163.026C498.992 163.026 500.828 163.876 501.814 164.998L503.31 162.482C501.814 161.156 499.706 160.17 496.918 160.17C492.77 160.17 490.458 162.482 490.458 165.168C490.458 171.458 500.386 169.146 500.386 172.376C500.386 173.668 499.298 174.586 497.156 174.586C495.014 174.586 492.736 173.464 491.58 172.274L489.948 174.858C491.648 176.524 494.198 177.408 496.986 177.408ZM514.826 177.408C520.096 177.408 523.292 173.498 523.292 168.772C523.292 164.08 520.096 160.17 514.826 160.17C509.624 160.17 506.394 164.08 506.394 168.772C506.394 173.498 509.624 177.408 514.826 177.408ZM514.826 174.246C511.8 174.246 510.1 171.696 510.1 168.772C510.1 165.882 511.8 163.332 514.826 163.332C517.886 163.332 519.586 165.882 519.586 168.772C519.586 171.696 517.886 174.246 514.826 174.246ZM541.558 177V160.578H537.988V172.104C537.138 173.226 535.574 174.246 533.772 174.246C531.766 174.246 530.474 173.464 530.474 170.914V160.578H526.904V172.206C526.904 175.572 528.638 177.408 532.174 177.408C534.758 177.408 536.798 176.15 537.988 174.824V177H541.558ZM549.765 177V165.814C550.479 164.658 552.485 163.638 553.981 163.638C554.423 163.638 554.797 163.672 555.103 163.74V160.204C552.961 160.204 550.989 161.428 549.765 162.992V160.578H546.195V177H549.765ZM565.462 177.408C568.658 177.408 570.596 176.048 571.752 174.484L569.406 172.308C568.488 173.566 567.23 174.246 565.632 174.246C562.64 174.246 560.668 171.968 560.668 168.772C560.668 165.576 562.64 163.332 565.632 163.332C567.23 163.332 568.488 163.978 569.406 165.27L571.752 163.094C570.596 161.53 568.658 160.17 565.462 160.17C560.464 160.17 556.962 163.808 556.962 168.772C556.962 173.77 560.464 177.408 565.462 177.408ZM582.464 177.408C585.082 177.408 587.496 176.592 589.128 175.028L587.496 172.682C586.34 173.838 584.436 174.484 582.838 174.484C579.744 174.484 577.874 172.444 577.602 169.962H590.284V169.112C590.284 163.944 587.122 160.17 582.192 160.17C577.33 160.17 573.862 164.012 573.862 168.772C573.862 173.974 577.534 177.408 582.464 177.408ZM586.816 167.446H577.568C577.738 165.44 579.132 163.094 582.192 163.094C585.422 163.094 586.748 165.508 586.816 167.446ZM598.062 175.708C598.062 173.736 596.804 172.614 595.41 172.614C594.152 172.614 593.098 173.668 593.098 174.96C593.098 176.218 593.982 177.102 595.138 177.102C595.342 177.102 595.614 177.034 595.716 177C595.478 178.156 594.356 179.55 593.268 180.196L594.866 181.522C596.736 180.196 598.062 178.054 598.062 175.708ZM618.188 177.408C621.384 177.408 623.322 176.048 624.478 174.484L622.132 172.308C621.214 173.566 619.956 174.246 618.358 174.246C615.366 174.246 613.394 171.968 613.394 168.772C613.394 165.576 615.366 163.332 618.358 163.332C619.956 163.332 621.214 163.978 622.132 165.27L624.478 163.094C623.322 161.53 621.384 160.17 618.188 160.17C613.19 160.17 609.688 163.808 609.688 168.772C609.688 173.77 613.19 177.408 618.188 177.408ZM631.179 177V154.322H627.609V177H631.179ZM643.222 177.408C648.492 177.408 651.688 173.498 651.688 168.772C651.688 164.08 648.492 160.17 643.222 160.17C638.02 160.17 634.79 164.08 634.79 168.772C634.79 173.498 638.02 177.408 643.222 177.408ZM643.222 174.246C640.196 174.246 638.496 171.696 638.496 168.772C638.496 165.882 640.196 163.332 643.222 163.332C646.282 163.332 647.982 165.882 647.982 168.772C647.982 171.696 646.282 174.246 643.222 174.246ZM669.954 177V160.578H666.384V172.104C665.534 173.226 663.97 174.246 662.168 174.246C660.162 174.246 658.87 173.464 658.87 170.914V160.578H655.3V172.206C655.3 175.572 657.034 177.408 660.57 177.408C663.154 177.408 665.194 176.15 666.384 174.824V177H669.954ZM689.721 177V154.322H686.151V162.856C684.825 161.122 682.921 160.17 680.881 160.17C676.631 160.17 673.571 163.502 673.571 168.806C673.571 174.212 676.665 177.408 680.881 177.408C682.989 177.408 684.893 176.388 686.151 174.756V177H689.721ZM681.901 174.246C679.079 174.246 677.277 171.968 677.277 168.806C677.277 165.61 679.079 163.332 681.901 163.332C683.601 163.332 685.335 164.318 686.151 165.542V172.07C685.335 173.294 683.601 174.246 681.901 174.246ZM701.215 170.302V167.242H693.055V170.302H701.215ZM719.195 177V165.44C719.195 162.074 717.427 160.17 713.891 160.17C711.307 160.17 709.199 161.53 708.111 162.822V160.578H704.541V177H708.111V165.542C708.927 164.42 710.491 163.332 712.327 163.332C714.333 163.332 715.625 164.182 715.625 166.732V177H719.195ZM737.432 177V166.12C737.432 161.7 734.236 160.17 730.598 160.17C727.98 160.17 725.6 161.02 723.696 162.822L725.158 165.304C726.586 163.91 728.184 163.23 730.02 163.23C732.298 163.23 733.862 164.386 733.862 166.29V168.738C732.672 167.344 730.768 166.63 728.558 166.63C725.872 166.63 722.846 168.194 722.846 171.968C722.846 175.606 725.872 177.408 728.558 177.408C730.734 177.408 732.638 176.626 733.862 175.232V177H737.432ZM729.952 174.96C727.946 174.96 726.45 173.804 726.45 172.036C726.45 170.234 727.946 169.078 729.952 169.078C731.516 169.078 733.046 169.656 733.862 170.778V173.26C733.046 174.382 731.516 174.96 729.952 174.96ZM746.99 177.408C748.656 177.408 749.71 176.966 750.356 176.354L749.506 173.668C749.234 173.974 748.588 174.246 747.908 174.246C746.888 174.246 746.344 173.43 746.344 172.308V163.706H749.676V160.578H746.344V156.09H742.774V160.578H740.054V163.706H742.774V173.192C742.774 175.912 744.236 177.408 746.99 177.408ZM754.685 158.572C755.909 158.572 756.895 157.586 756.895 156.362C756.895 155.138 755.909 154.152 754.685 154.152C753.495 154.152 752.475 155.138 752.475 156.362C752.475 157.586 753.495 158.572 754.685 158.572ZM756.487 177V160.578H752.917V177H756.487ZM769.279 177L775.977 160.578H772.135L767.341 172.886L762.547 160.578H758.739L765.437 177H769.279ZM785.8 177.408C788.418 177.408 790.832 176.592 792.464 175.028L790.832 172.682C789.676 173.838 787.772 174.484 786.174 174.484C783.08 174.484 781.21 172.444 780.938 169.962H793.62V169.112C793.62 163.944 790.458 160.17 785.528 160.17C780.666 160.17 777.198 164.012 777.198 168.772C777.198 173.974 780.87 177.408 785.8 177.408ZM790.152 167.446H780.904C781.074 165.44 782.468 163.094 785.528 163.094C788.758 163.094 790.084 165.508 790.152 167.446ZM813.356 177.408C816.552 177.408 818.49 176.048 819.646 174.484L817.3 172.308C816.382 173.566 815.124 174.246 813.526 174.246C810.534 174.246 808.562 171.968 808.562 168.772C808.562 165.576 810.534 163.332 813.526 163.332C815.124 163.332 816.382 163.978 817.3 165.27L819.646 163.094C818.49 161.53 816.552 160.17 813.356 160.17C808.358 160.17 804.856 163.808 804.856 168.772C804.856 173.77 808.358 177.408 813.356 177.408ZM830.189 177.408C835.459 177.408 838.655 173.498 838.655 168.772C838.655 164.08 835.459 160.17 830.189 160.17C824.987 160.17 821.757 164.08 821.757 168.772C821.757 173.498 824.987 177.408 830.189 177.408ZM830.189 174.246C827.163 174.246 825.463 171.696 825.463 168.772C825.463 165.882 827.163 163.332 830.189 163.332C833.249 163.332 834.949 165.882 834.949 168.772C834.949 171.696 833.249 174.246 830.189 174.246ZM856.921 177V165.44C856.921 162.074 855.153 160.17 851.617 160.17C849.033 160.17 846.925 161.53 845.837 162.822V160.578H842.267V177H845.837V165.542C846.653 164.42 848.217 163.332 850.053 163.332C852.059 163.332 853.351 164.182 853.351 166.732V177H856.921ZM865.978 177V163.706H869.31V160.578H865.978V159.66C865.978 157.824 866.862 156.906 868.256 156.906C868.868 156.906 869.344 157.042 869.684 157.28L870.466 154.628C869.752 154.22 868.732 153.982 867.61 153.982C864.584 153.982 862.408 155.988 862.408 159.66V160.578H859.688V163.706H862.408V177H865.978ZM873.798 158.572C875.022 158.572 876.008 157.586 876.008 156.362C876.008 155.138 875.022 154.152 873.798 154.152C872.608 154.152 871.588 155.138 871.588 156.362C871.588 157.586 872.608 158.572 873.798 158.572ZM875.6 177V160.578H872.03V177H875.6ZM886.882 183.664C890.928 183.664 895.314 182.066 895.314 176.15V160.578H891.744V162.856C890.418 161.122 888.548 160.17 886.474 160.17C882.258 160.17 879.198 163.298 879.198 168.602C879.198 174.008 882.292 177.034 886.474 177.034C888.616 177.034 890.486 175.946 891.744 174.314V176.286C891.744 179.652 889.228 180.74 886.882 180.74C884.706 180.74 883.006 180.162 881.68 178.632L880.014 181.216C882.02 183.052 884.094 183.664 886.882 183.664ZM887.528 173.872C884.706 173.872 882.904 171.764 882.904 168.602C882.904 165.44 884.706 163.332 887.528 163.332C889.194 163.332 890.962 164.318 891.744 165.542V171.662C890.962 172.886 889.194 173.872 887.528 173.872ZM914.595 177V160.578H911.025V172.104C910.175 173.226 908.611 174.246 906.809 174.246C904.803 174.246 903.511 173.464 903.511 170.914V160.578H899.941V172.206C899.941 175.572 901.675 177.408 905.211 177.408C907.795 177.408 909.835 176.15 911.025 174.824V177H914.595ZM922.802 177V165.814C923.516 164.658 925.522 163.638 927.018 163.638C927.46 163.638 927.834 163.672 928.14 163.74V160.204C925.998 160.204 924.026 161.428 922.802 162.992V160.578H919.232V177H922.802ZM944.619 177V166.12C944.619 161.7 941.423 160.17 937.785 160.17C935.167 160.17 932.787 161.02 930.883 162.822L932.345 165.304C933.773 163.91 935.371 163.23 937.207 163.23C939.485 163.23 941.049 164.386 941.049 166.29V168.738C939.859 167.344 937.955 166.63 935.745 166.63C933.059 166.63 930.033 168.194 930.033 171.968C930.033 175.606 933.059 177.408 935.745 177.408C937.921 177.408 939.825 176.626 941.049 175.232V177H944.619ZM937.139 174.96C935.133 174.96 933.637 173.804 933.637 172.036C933.637 170.234 935.133 169.078 937.139 169.078C938.703 169.078 940.233 169.656 941.049 170.778V173.26C940.233 174.382 938.703 174.96 937.139 174.96ZM954.178 177.408C955.844 177.408 956.898 176.966 957.544 176.354L956.694 173.668C956.422 173.974 955.776 174.246 955.096 174.246C954.076 174.246 953.532 173.43 953.532 172.308V163.706H956.864V160.578H953.532V156.09H949.962V160.578H947.242V163.706H949.962V173.192C949.962 175.912 951.424 177.408 954.178 177.408ZM961.873 158.572C963.097 158.572 964.083 157.586 964.083 156.362C964.083 155.138 963.097 154.152 961.873 154.152C960.683 154.152 959.663 155.138 959.663 156.362C959.663 157.586 960.683 158.572 961.873 158.572ZM963.675 177V160.578H960.105V177H963.675ZM975.718 177.408C980.988 177.408 984.184 173.498 984.184 168.772C984.184 164.08 980.988 160.17 975.718 160.17C970.516 160.17 967.286 164.08 967.286 168.772C967.286 173.498 970.516 177.408 975.718 177.408ZM975.718 174.246C972.692 174.246 970.992 171.696 970.992 168.772C970.992 165.882 972.692 163.332 975.718 163.332C978.778 163.332 980.478 165.882 980.478 168.772C980.478 171.696 978.778 174.246 975.718 174.246ZM1002.45 177V165.44C1002.45 162.074 1000.68 160.17 997.146 160.17C994.562 160.17 992.454 161.53 991.366 162.822V160.578H987.796V177H991.366V165.542C992.182 164.42 993.746 163.332 995.582 163.332C997.588 163.332 998.88 164.182 998.88 166.732V177H1002.45ZM416.318 218C414.686 216.436 413.258 215.008 411.898 213.546C413.224 211.778 414.244 209.738 415.06 207.936L412.136 206.61C411.728 207.936 410.946 209.704 409.892 211.336C409.144 210.52 408.396 209.636 407.648 208.718C407.002 207.97 406.186 206.984 405.404 205.93C408.226 204.57 411.082 203.074 411.082 199.64C411.082 196.682 408.566 194.982 405.472 194.982C401.936 194.982 399.318 197.294 399.318 200.354C399.318 201.918 399.964 203.618 400.916 205.318C398.332 206.678 395.986 208.48 395.986 211.948C395.986 216.266 399.25 218.408 403.296 218.408C405.846 218.408 407.954 217.456 409.654 216.028C410.402 216.81 411.116 217.524 411.66 218H416.318ZM403.738 215.552C401.664 215.552 399.794 214.124 399.794 211.642C399.794 209.772 400.848 208.548 402.344 207.562C403.16 208.718 404.044 209.84 404.86 210.826C405.472 211.574 406.526 212.73 407.648 213.954C406.526 214.906 405.2 215.552 403.738 215.552ZM402.922 200.422C402.922 198.79 404.112 197.634 405.642 197.634C406.934 197.634 407.92 198.416 407.92 199.81C407.92 201.748 406.186 202.836 404.044 203.856C403.364 202.666 402.922 201.442 402.922 200.422ZM433.535 218.408C437.955 218.408 440.369 216.198 440.369 213.308C440.369 206.78 430.441 208.956 430.441 206.032C430.441 204.876 431.631 204.026 433.501 204.026C435.541 204.026 437.377 204.876 438.363 205.998L439.859 203.482C438.363 202.156 436.255 201.17 433.467 201.17C429.319 201.17 427.007 203.482 427.007 206.168C427.007 212.458 436.935 210.146 436.935 213.376C436.935 214.668 435.847 215.586 433.705 215.586C431.563 215.586 429.285 214.464 428.129 213.274L426.497 215.858C428.197 217.524 430.747 218.408 433.535 218.408ZM451.544 218.408C454.162 218.408 456.576 217.592 458.208 216.028L456.576 213.682C455.42 214.838 453.516 215.484 451.918 215.484C448.824 215.484 446.954 213.444 446.682 210.962H459.364V210.112C459.364 204.944 456.202 201.17 451.272 201.17C446.41 201.17 442.942 205.012 442.942 209.772C442.942 214.974 446.614 218.408 451.544 218.408ZM455.896 208.446H446.648C446.818 206.44 448.212 204.094 451.272 204.094C454.502 204.094 455.828 206.508 455.896 208.446ZM470.368 218.408C473.564 218.408 475.502 217.048 476.658 215.484L474.312 213.308C473.394 214.566 472.136 215.246 470.538 215.246C467.546 215.246 465.574 212.968 465.574 209.772C465.574 206.576 467.546 204.332 470.538 204.332C472.136 204.332 473.394 204.978 474.312 206.27L476.658 204.094C475.502 202.53 473.564 201.17 470.368 201.17C465.37 201.17 461.868 204.808 461.868 209.772C461.868 214.77 465.37 218.408 470.368 218.408ZM483.359 218V206.814C484.073 205.658 486.079 204.638 487.575 204.638C488.017 204.638 488.391 204.672 488.697 204.74V201.204C486.555 201.204 484.583 202.428 483.359 203.992V201.578H479.789V218H483.359ZM499.158 218.408C501.776 218.408 504.19 217.592 505.822 216.028L504.19 213.682C503.034 214.838 501.13 215.484 499.532 215.484C496.438 215.484 494.568 213.444 494.296 210.962H506.978V210.112C506.978 204.944 503.816 201.17 498.886 201.17C494.024 201.17 490.556 205.012 490.556 209.772C490.556 214.974 494.228 218.408 499.158 218.408ZM503.51 208.446H494.262C494.432 206.44 495.826 204.094 498.886 204.094C502.116 204.094 503.442 206.508 503.51 208.446ZM515.431 218.408C517.097 218.408 518.151 217.966 518.797 217.354L517.947 214.668C517.675 214.974 517.029 215.246 516.349 215.246C515.329 215.246 514.785 214.43 514.785 213.308V204.706H518.117V201.578H514.785V197.09H511.215V201.578H508.495V204.706H511.215V214.192C511.215 216.912 512.677 218.408 515.431 218.408ZM553.789 218V206.134C553.789 202.802 552.089 201.17 549.063 201.17C546.615 201.17 544.439 202.7 543.487 204.196C542.943 202.394 541.447 201.17 538.999 201.17C536.517 201.17 534.341 202.802 533.661 203.822V201.578H530.091V218H533.661V206.542C534.409 205.454 535.871 204.332 537.435 204.332C539.373 204.332 540.155 205.522 540.155 207.29V218H543.725V206.508C544.439 205.454 545.935 204.332 547.533 204.332C549.437 204.332 550.219 205.522 550.219 207.29V218H553.789ZM572.014 218V207.12C572.014 202.7 568.818 201.17 565.18 201.17C562.562 201.17 560.182 202.02 558.278 203.822L559.74 206.304C561.168 204.91 562.766 204.23 564.602 204.23C566.88 204.23 568.444 205.386 568.444 207.29V209.738C567.254 208.344 565.35 207.63 563.14 207.63C560.454 207.63 557.428 209.194 557.428 212.968C557.428 216.606 560.454 218.408 563.14 218.408C565.316 218.408 567.22 217.626 568.444 216.232V218H572.014ZM564.534 215.96C562.528 215.96 561.032 214.804 561.032 213.036C561.032 211.234 562.528 210.078 564.534 210.078C566.098 210.078 567.628 210.656 568.444 211.778V214.26C567.628 215.382 566.098 215.96 564.534 215.96ZM591.296 218V206.44C591.296 203.074 589.528 201.17 585.992 201.17C583.408 201.17 581.3 202.53 580.212 203.822V201.578H576.642V218H580.212V206.542C581.028 205.42 582.592 204.332 584.428 204.332C586.434 204.332 587.726 205.182 587.726 207.732V218H591.296ZM609.533 218V207.12C609.533 202.7 606.337 201.17 602.699 201.17C600.081 201.17 597.701 202.02 595.797 203.822L597.259 206.304C598.687 204.91 600.285 204.23 602.121 204.23C604.399 204.23 605.963 205.386 605.963 207.29V209.738C604.773 208.344 602.869 207.63 600.659 207.63C597.973 207.63 594.947 209.194 594.947 212.968C594.947 216.606 597.973 218.408 600.659 218.408C602.835 218.408 604.739 217.626 605.963 216.232V218H609.533ZM602.053 215.96C600.047 215.96 598.551 214.804 598.551 213.036C598.551 211.234 600.047 210.078 602.053 210.078C603.617 210.078 605.147 210.656 605.963 211.778V214.26C605.147 215.382 603.617 215.96 602.053 215.96ZM620.826 224.664C624.872 224.664 629.258 223.066 629.258 217.15V201.578H625.688V203.856C624.362 202.122 622.492 201.17 620.418 201.17C616.202 201.17 613.142 204.298 613.142 209.602C613.142 215.008 616.236 218.034 620.418 218.034C622.56 218.034 624.43 216.946 625.688 215.314V217.286C625.688 220.652 623.172 221.74 620.826 221.74C618.65 221.74 616.95 221.162 615.624 219.632L613.958 222.216C615.964 224.052 618.038 224.664 620.826 224.664ZM621.472 214.872C618.65 214.872 616.848 212.764 616.848 209.602C616.848 206.44 618.65 204.332 621.472 204.332C623.138 204.332 624.906 205.318 625.688 206.542V212.662C624.906 213.886 623.138 214.872 621.472 214.872ZM641.466 218.408C644.084 218.408 646.498 217.592 648.13 216.028L646.498 213.682C645.342 214.838 643.438 215.484 641.84 215.484C638.746 215.484 636.876 213.444 636.604 210.962H649.286V210.112C649.286 204.944 646.124 201.17 641.194 201.17C636.332 201.17 632.864 205.012 632.864 209.772C632.864 214.974 636.536 218.408 641.466 218.408ZM645.818 208.446H636.57C636.74 206.44 638.134 204.094 641.194 204.094C644.424 204.094 645.75 206.508 645.818 208.446ZM676.508 218V206.134C676.508 202.802 674.808 201.17 671.782 201.17C669.334 201.17 667.158 202.7 666.206 204.196C665.662 202.394 664.166 201.17 661.718 201.17C659.236 201.17 657.06 202.802 656.38 203.822V201.578H652.81V218H656.38V206.542C657.128 205.454 658.59 204.332 660.154 204.332C662.092 204.332 662.874 205.522 662.874 207.29V218H666.444V206.508C667.158 205.454 668.654 204.332 670.252 204.332C672.156 204.332 672.938 205.522 672.938 207.29V218H676.508ZM688.714 218.408C691.332 218.408 693.746 217.592 695.378 216.028L693.746 213.682C692.59 214.838 690.686 215.484 689.088 215.484C685.994 215.484 684.124 213.444 683.852 210.962H696.534V210.112C696.534 204.944 693.372 201.17 688.442 201.17C683.58 201.17 680.112 205.012 680.112 209.772C680.112 214.974 683.784 218.408 688.714 218.408ZM693.066 208.446H683.818C683.988 206.44 685.382 204.094 688.442 204.094C691.672 204.094 692.998 206.508 693.066 208.446ZM714.712 218V206.44C714.712 203.074 712.944 201.17 709.408 201.17C706.824 201.17 704.716 202.53 703.628 203.822V201.578H700.058V218H703.628V206.542C704.444 205.42 706.008 204.332 707.844 204.332C709.85 204.332 711.142 205.182 711.142 207.732V218H714.712ZM724.279 218.408C725.945 218.408 726.999 217.966 727.645 217.354L726.795 214.668C726.523 214.974 725.877 215.246 725.197 215.246C724.177 215.246 723.633 214.43 723.633 213.308V204.706H726.965V201.578H723.633V197.09H720.063V201.578H717.343V204.706H720.063V214.192C720.063 216.912 721.525 218.408 724.279 218.408ZM732.043 218.374C733.335 218.374 734.423 217.286 734.423 215.994C734.423 214.702 733.335 213.614 732.043 213.614C730.751 213.614 729.663 214.702 729.663 215.994C729.663 217.286 730.751 218.374 732.043 218.374Z" fill="white"/>
<path d="M412.696 89.688C401.944 89.688 394.84 94.936 394.84 103.192C394.84 119.064 418.52 114.328 418.52 122.264C418.52 124.824 416.28 126.168 412.696 126.168C408.024 126.168 401.112 123.48 396.504 119.448L392.088 128.216C397.4 132.568 405.08 135.384 412.568 135.384C422.552 135.384 430.488 130.648 430.488 121.688C430.488 105.496 406.808 109.912 406.808 102.168C406.808 99.992 408.792 98.904 411.736 98.904C415.384 98.904 421.336 100.824 426.072 103.576L430.36 94.68C425.752 91.672 419.16 89.688 412.696 89.688ZM451.208 100.12C440.52 100.12 433.224 107.16 433.224 117.848C433.224 128.344 440.264 135.384 451.528 135.384C457.864 135.384 463.048 133.144 466.568 129.304L460.744 123.608C458.44 125.912 455.496 127.128 452.488 127.128C448.392 127.128 445.448 124.824 444.36 120.728H468.616C469.384 108.12 463.368 100.12 451.208 100.12ZM444.168 114.776C444.872 110.616 447.496 107.8 451.336 107.8C455.304 107.8 457.992 110.552 457.992 114.776H444.168ZM489.208 100.12C478.52 100.12 471.224 107.16 471.224 117.848C471.224 128.344 478.264 135.384 489.528 135.384C495.864 135.384 501.048 133.144 504.568 129.304L498.744 123.608C496.44 125.912 493.496 127.128 490.488 127.128C486.392 127.128 483.448 124.824 482.36 120.728H506.616C507.384 108.12 501.368 100.12 489.208 100.12ZM482.168 114.776C482.872 110.616 485.496 107.8 489.336 107.8C493.304 107.8 495.992 110.552 495.992 114.776H482.168ZM546.575 125.464C544.911 126.168 543.439 126.616 542.287 126.616C540.239 126.68 539.087 125.528 539.087 122.84V109.336H548.111V102.04H539.087V92.504H528.079V102.104H523.279V109.336H528.079V124.568C528.079 131.736 532.879 135.512 539.535 135.512C542.863 135.512 546.255 134.616 548.751 133.144L546.575 125.464ZM576.767 99.992C571.647 100.056 567.615 102.104 565.183 106.2V87.512H554.111V135H565.183V117.976C565.183 113.24 567.871 109.784 572.223 109.784C575.999 109.784 578.303 112.28 578.303 116.312V135H589.375V113.24C589.375 105.176 584.383 99.992 576.767 99.992ZM611.77 100.12C601.082 100.12 593.786 107.16 593.786 117.848C593.786 128.344 600.826 135.384 612.09 135.384C618.426 135.384 623.61 133.144 627.13 129.304L621.306 123.608C619.002 125.912 616.058 127.128 613.05 127.128C608.954 127.128 606.01 124.824 604.922 120.728H629.178C629.946 108.12 623.93 100.12 611.77 100.12ZM604.73 114.776C605.434 110.616 608.058 107.8 611.898 107.8C615.866 107.8 618.554 110.552 618.554 114.776H604.73ZM666.001 95.768C667.281 95.768 668.817 96.28 670.033 97.176L673.937 89.432C671.313 87.896 667.665 87 664.273 87C656.849 87 651.089 91.224 651.089 98.84V102.04H646.417V109.336H651.089V135H662.033V109.336H669.841V102.04H662.033V99.544C662.033 96.984 663.761 95.704 666.001 95.768ZM688.604 100.12C677.276 100.12 669.724 107.096 669.724 117.72C669.724 128.344 677.276 135.384 688.604 135.384C699.868 135.384 707.42 128.344 707.42 117.72C707.42 107.096 699.868 100.12 688.604 100.12ZM688.604 108.888C693.148 108.888 696.284 112.536 696.284 117.848C696.284 123.224 693.148 126.808 688.604 126.808C683.996 126.808 680.86 123.224 680.86 117.848C680.86 112.536 683.996 108.888 688.604 108.888ZM723.926 100.504H712.854V135H723.926V117.272C724.502 112.408 728.726 109.4 735.126 109.976V99.992C730.198 100.056 726.294 102.296 723.926 106.328V100.504ZM754.77 100.12C744.082 100.12 736.786 107.16 736.786 117.848C736.786 128.344 743.826 135.384 755.09 135.384C761.426 135.384 766.61 133.144 770.13 129.304L764.306 123.608C762.002 125.912 759.058 127.128 756.05 127.128C751.954 127.128 749.01 124.824 747.922 120.728H772.178C772.946 108.12 766.93 100.12 754.77 100.12ZM747.73 114.776C748.434 110.616 751.058 107.8 754.898 107.8C758.866 107.8 761.554 110.552 761.554 114.776H747.73ZM790.018 99.992C782.018 99.992 776.002 103.832 776.002 110.936C775.938 123.032 793.794 120.408 793.794 125.464C793.794 127.064 792.194 127.832 790.018 127.832C786.178 127.832 781.698 126.296 777.794 123.544L774.274 130.584C778.434 133.784 784.002 135.448 789.762 135.448C798.082 135.448 804.29 131.544 804.29 124.44C804.354 112.408 786.178 114.712 786.178 109.976C786.178 108.376 787.586 107.608 789.57 107.608C792.45 107.608 796.29 108.824 800.45 111.064L804.226 103.896C800.002 101.4 795.01 99.992 790.018 99.992ZM830.075 125.464C828.411 126.168 826.939 126.616 825.787 126.616C823.739 126.68 822.587 125.528 822.587 122.84V109.336H831.611V102.04H822.587V92.504H811.579V102.104H806.779V109.336H811.579V124.568C811.579 131.736 816.379 135.512 823.035 135.512C826.363 135.512 829.755 134.616 832.251 133.144L830.075 125.464ZM887.698 101.336L880.978 135H876.626L877.714 129.688C876.093 131.48 874.173 132.867 871.954 133.848C869.735 134.829 867.282 135.32 864.594 135.32C861.735 135.32 859.197 134.744 856.978 133.592C854.759 132.44 853.031 130.797 851.794 128.664C850.557 126.488 849.938 123.949 849.938 121.048C849.938 117.251 850.749 113.837 852.37 110.808C854.034 107.779 856.317 105.411 859.218 103.704C862.119 101.955 865.362 101.08 868.946 101.08C872.146 101.08 874.834 101.72 877.01 103C879.186 104.237 880.765 106.029 881.746 108.376L883.154 101.336H887.698ZM865.554 131.288C868.327 131.288 870.823 130.627 873.042 129.304C875.261 127.939 876.989 126.061 878.226 123.672C879.506 121.24 880.146 118.531 880.146 115.544C880.146 112.259 879.165 109.699 877.202 107.864C875.282 105.987 872.573 105.048 869.074 105.048C866.301 105.048 863.805 105.731 861.586 107.096C859.367 108.461 857.618 110.36 856.338 112.792C855.101 115.181 854.482 117.869 854.482 120.856C854.482 124.141 855.442 126.701 857.362 128.536C859.325 130.371 862.055 131.288 865.554 131.288ZM910.237 101.08C914.034 101.08 916.978 102.061 919.069 104.024C921.202 105.944 922.269 108.611 922.269 112.024C922.269 113.219 922.141 114.499 921.885 115.864L918.045 135H913.501L917.341 115.8C917.554 114.605 917.661 113.581 917.661 112.728C917.661 110.296 916.914 108.44 915.421 107.16C913.97 105.837 911.816 105.176 908.957 105.176C905.33 105.176 902.344 106.179 899.997 108.184C897.65 110.147 896.072 113.069 895.261 116.952L891.677 135H887.133L893.789 101.336H898.141L897.053 106.712C900.253 102.957 904.648 101.08 910.237 101.08ZM964.263 87.512L954.791 135H950.439L951.527 129.688C949.905 131.48 947.985 132.867 945.767 133.848C943.548 134.829 941.095 135.32 938.407 135.32C935.548 135.32 933.009 134.744 930.791 133.592C928.572 132.44 926.844 130.797 925.607 128.664C924.369 126.488 923.751 123.949 923.751 121.048C923.751 117.251 924.561 113.837 926.183 110.808C927.847 107.779 930.129 105.411 933.031 103.704C935.932 101.955 939.175 101.08 942.759 101.08C945.916 101.08 948.583 101.72 950.759 103C952.977 104.237 954.577 106.029 955.559 108.376L959.719 87.512H964.263ZM939.367 131.288C942.14 131.288 944.636 130.627 946.855 129.304C949.073 127.939 950.801 126.061 952.039 123.672C953.319 121.24 953.958 118.531 953.958 115.544C953.958 112.259 952.977 109.699 951.015 107.864C949.095 105.987 946.385 105.048 942.887 105.048C940.113 105.048 937.617 105.731 935.399 107.096C933.18 108.461 931.431 110.36 930.151 112.792C928.913 115.181 928.295 117.869 928.295 120.856C928.295 124.141 929.255 126.701 931.175 128.536C933.137 130.371 935.868 131.288 939.367 131.288ZM996.825 125.464C995.161 126.168 993.689 126.616 992.537 126.616C990.489 126.68 989.337 125.528 989.337 122.84V109.336H998.361V102.04H989.337V92.504H978.329V102.104H973.529V109.336H978.329V124.568C978.329 131.736 983.129 135.512 989.785 135.512C993.113 135.512 996.505 134.616 999.001 133.144L996.825 125.464ZM1027.02 99.992C1021.9 100.056 1017.87 102.104 1015.43 106.2V87.512H1004.36V135H1015.43V117.976C1015.43 113.24 1018.12 109.784 1022.47 109.784C1026.25 109.784 1028.55 112.28 1028.55 116.312V135H1039.62V113.24C1039.62 105.176 1034.63 99.992 1027.02 99.992ZM1062.02 100.12C1051.33 100.12 1044.04 107.16 1044.04 117.848C1044.04 128.344 1051.08 135.384 1062.34 135.384C1068.68 135.384 1073.86 133.144 1077.38 129.304L1071.56 123.608C1069.25 125.912 1066.31 127.128 1063.3 127.128C1059.2 127.128 1056.26 124.824 1055.17 120.728H1079.43C1080.2 108.12 1074.18 100.12 1062.02 100.12ZM1054.98 114.776C1055.68 110.616 1058.31 107.8 1062.15 107.8C1066.12 107.8 1068.8 110.552 1068.8 114.776H1054.98ZM1119.39 125.464C1117.72 126.168 1116.25 126.616 1115.1 126.616C1113.05 126.68 1111.9 125.528 1111.9 122.84V109.336H1120.92V102.04H1111.9V92.504H1100.89V102.104H1096.09V109.336H1100.89V124.568C1100.89 131.736 1105.69 135.512 1112.35 135.512C1115.68 135.512 1119.07 134.616 1121.56 133.144L1119.39 125.464ZM1137.68 100.504H1126.6V135H1137.68V117.272C1138.25 112.408 1142.48 109.4 1148.88 109.976V99.992C1143.95 100.056 1140.04 102.296 1137.68 106.328V100.504ZM1168.52 100.12C1157.83 100.12 1150.54 107.16 1150.54 117.848C1150.54 128.344 1157.58 135.384 1168.84 135.384C1175.18 135.384 1180.36 133.144 1183.88 129.304L1178.06 123.608C1175.75 125.912 1172.81 127.128 1169.8 127.128C1165.7 127.128 1162.76 124.824 1161.67 120.728H1185.93C1186.7 108.12 1180.68 100.12 1168.52 100.12ZM1161.48 114.776C1162.18 110.616 1164.81 107.8 1168.65 107.8C1172.62 107.8 1175.3 110.552 1175.3 114.776H1161.48ZM1206.52 100.12C1195.83 100.12 1188.54 107.16 1188.54 117.848C1188.54 128.344 1195.58 135.384 1206.84 135.384C1213.18 135.384 1218.36 133.144 1221.88 129.304L1216.06 123.608C1213.75 125.912 1210.81 127.128 1207.8 127.128C1203.7 127.128 1200.76 124.824 1199.67 120.728H1223.93C1224.7 108.12 1218.68 100.12 1206.52 100.12ZM1199.48 114.776C1200.18 110.616 1202.81 107.8 1206.65 107.8C1210.62 107.8 1213.3 110.552 1213.3 114.776H1199.48ZM1241.77 99.992C1233.77 99.992 1227.75 103.832 1227.75 110.936C1227.69 123.032 1245.54 120.408 1245.54 125.464C1245.54 127.064 1243.94 127.832 1241.77 127.832C1237.93 127.832 1233.45 126.296 1229.54 123.544L1226.02 130.584C1230.18 133.784 1235.75 135.448 1241.51 135.448C1249.83 135.448 1256.04 131.544 1256.04 124.44C1256.1 112.408 1237.93 114.712 1237.93 109.976C1237.93 108.376 1239.34 107.608 1241.32 107.608C1244.2 107.608 1248.04 108.824 1252.2 111.064L1255.98 103.896C1251.75 101.4 1246.76 99.992 1241.77 99.992ZM1265.06 124.824C1261.92 124.824 1259.74 127 1259.74 130.136C1259.74 133.336 1261.92 135.512 1265.06 135.512C1268.19 135.512 1270.43 133.336 1270.43 130.136C1270.43 127 1268.19 124.824 1265.06 124.824Z" fill="white"/>
</g>
<defs>
<radialGradient id="paint0_radial" cx="0" cy="0" r="1" gradientUnits="userSpaceOnUse" gradientTransform="translate(1934.67 -177.841) scale(1713.11 592.537)">
<stop stop-color="#282F35"/>
<stop offset="1" stop-color="#282F35"/>
</radialGradient>
<radialGradient id="paint1_radial" cx="0" cy="0" r="1" gradientUnits="userSpaceOnUse" gradientTransform="translate(649.833 414.696) scale(1284.83 444.403)">
<stop stop-color="#3AC1B9"/>
<stop offset="1" stop-color="#2AF8B4" stop-opacity="0"/>
</radialGradient>
<radialGradient id="paint2_radial" cx="0" cy="0" r="1" gradientUnits="userSpaceOnUse" gradientTransform="translate(649.833 -177.841) scale(1284.83 444.403)">
<stop stop-color="#282F35"/>
<stop offset="1" stop-color="#282F35" stop-opacity="0"/>
</radialGradient>
<radialGradient id="paint3_radial" cx="0" cy="0" r="1" gradientUnits="userSpaceOnUse" gradientTransform="translate(-635 414.696) scale(1713.11 592.537)">
<stop stop-color="#09C4A2"/>
<stop offset="1" stop-color="#06A497" stop-opacity="0"/>
</radialGradient>
<radialGradient id="paint4_radial" cx="0" cy="0" r="1" gradientUnits="userSpaceOnUse" gradientTransform="translate(1934.67 414.696) scale(1713.11 592.537)">
<stop stop-color="#06A497"/>
<stop offset="1" stop-color="#9DFCC5" stop-opacity="0"/>
</radialGradient>
<clipPath id="clip0">
<rect width="1300" height="300" fill="white"/>
</clipPath>
<clipPath id="clip1">
<rect width="2569.67" height="593" fill="white" transform="matrix(1 0 0 -1 -635 415)"/>
</clipPath>
<clipPath id="clip2">
<rect width="421.87" height="296.593" fill="white" transform="matrix(-1 0 0 1 1443.87 101)"/>
</clipPath>
<clipPath id="clip3">
<rect width="316" height="119.043" fill="white" transform="translate(30 90)"/>
</clipPath>
</defs>
</svg>
