<svg width="1200" height="400" viewBox="0 0 1200 400" fill="none" xmlns="http://www.w3.org/2000/svg">
<g clip-path="url(#clip0)">
<rect width="1200" height="400" fill="white"/>
<g clip-path="url(#clip1)">
<path d="M1834.67 514.645H-635V-177.814H1834.67V514.645Z" fill="#282F35"/>
<path d="M1834.67 514.645H-635V-177.814H1834.67V514.645Z" fill="url(#paint0_radial)"/>
<path d="M1834.67 514.645H-635V-177.814H1834.67V514.645Z" fill="url(#paint1_radial)"/>
<path d="M1834.67 514.645H-635V-177.814H1834.67V514.645Z" fill="url(#paint2_radial)"/>
<path d="M1834.67 514.645H-635V-177.814H1834.67V514.645Z" fill="url(#paint3_radial)"/>
<path d="M1834.67 514.645H-635V-177.814H1834.67V514.645Z" fill="url(#paint4_radial)"/>
</g>
<g clip-path="url(#clip2)">
<path d="M284.046 290.901H313.183V291.841H308.639V300.77H307.699V291.841H290V300.77H289.06V291.841H284.046V290.901Z" fill="#384047"/>
<path d="M273.237 267.873H280.756V275.392H277.27V300.729H276.33V275.392H273.237V267.873Z" fill="#384047"/>
<path d="M283.988 288.089H313.126V289.029H283.988V288.089Z" fill="#384047"/>
<path d="M283.988 285.739H313.126V286.679H283.988V285.739Z" fill="#384047"/>
<path d="M283.988 283.389H313.126V284.329H283.988V283.389Z" fill="#384047"/>
<path d="M209.321 303.479H210.261C210.261 258.907 246.523 222.646 291.095 222.646C335.667 222.646 371.929 258.907 371.929 303.479H372.869C372.869 258.389 336.185 221.706 291.095 221.706C246.005 221.706 209.321 258.389 209.321 303.479Z" fill="#384047"/>
<path d="M427.031 278.678C384.594 278.678 350.192 244.276 350.192 201.839C350.192 159.402 384.594 125 427.031 125C469.468 125 503.87 159.402 503.87 201.839C503.87 244.276 469.468 278.678 427.031 278.678Z" fill="#0DE5A8"/>
<path opacity="0.2" d="M369.873 150.517C362.706 167.282 361.733 186.05 367.13 203.467C372.526 220.884 383.94 235.814 399.331 245.59C414.723 255.366 433.089 259.351 451.147 256.832C469.206 254.313 485.781 245.455 497.91 231.841C493.531 242.084 486.978 251.253 478.705 258.712C470.431 266.171 460.635 271.742 449.994 275.04C439.354 278.337 428.123 279.281 417.082 277.808C406.04 276.334 395.451 272.477 386.047 266.504C376.644 260.532 368.652 252.586 362.624 243.218C356.597 233.85 352.678 223.284 351.139 212.251C349.601 201.218 350.479 189.982 353.714 179.322C356.949 168.663 362.463 158.834 369.873 150.517V150.517Z" fill="black"/>
<path d="M426.82 201.839H426.609L422.809 419.691H430.83L426.82 201.839Z" fill="#384047"/>
<path d="M412.829 320.502L414.599 317.139L427.301 323.827L425.53 327.189L412.829 320.502Z" fill="#384047"/>
<path d="M144.191 296.63C109.844 296.63 82 268.786 82 234.439C82 200.091 109.844 172.247 144.191 172.247C178.539 172.247 206.383 200.091 206.383 234.439C206.383 268.786 178.539 296.63 144.191 296.63Z" fill="#0DE5A8"/>
<path opacity="0.2" d="M97.9295 192.9C92.1285 206.469 91.3415 221.66 95.7093 235.756C100.077 249.853 109.315 261.937 121.772 269.849C134.23 277.762 149.094 280.987 163.711 278.948C178.327 276.91 191.742 269.74 201.559 258.721C198.015 267.012 192.711 274.433 186.015 280.47C179.318 286.507 171.389 291.016 162.777 293.685C154.165 296.354 145.076 297.118 136.139 295.925C127.202 294.732 118.631 291.611 111.021 286.777C103.41 281.943 96.9411 275.512 92.0625 267.93C87.1839 260.347 84.0121 251.795 82.7669 242.865C81.5216 233.936 82.2328 224.842 84.8509 216.214C87.4691 207.587 91.9317 199.631 97.9295 192.9V192.9Z" fill="black"/>
<path d="M144.021 234.438H143.85L140.774 410.761H147.267L144.021 234.438Z" fill="#384047"/>
<path d="M132.697 330.481L134.129 327.759L144.41 333.172L142.977 335.893L132.697 330.481Z" fill="#384047"/>
<path d="M327.712 287.992C322.305 287.992 317.922 283.609 317.922 278.202C317.922 272.795 322.305 268.412 327.712 268.412C333.119 268.412 337.503 272.795 337.503 278.202C337.503 283.609 333.119 287.992 327.712 287.992Z" fill="#0DE5A8"/>
<path opacity="0.2" d="M320.43 271.663C319.516 273.799 319.393 276.19 320.08 278.409C320.768 280.629 322.222 282.531 324.183 283.777C326.144 285.022 328.484 285.53 330.785 285.209C333.086 284.888 335.198 283.759 336.743 282.025C336.185 283.33 335.35 284.498 334.296 285.448C333.242 286.399 331.994 287.109 330.638 287.529C329.282 287.949 327.852 288.069 326.445 287.881C325.038 287.694 323.689 287.202 322.49 286.441C321.292 285.68 320.274 284.668 319.506 283.474C318.738 282.281 318.239 280.934 318.043 279.529C317.847 278.123 317.959 276.691 318.371 275.333C318.783 273.975 319.485 272.723 320.43 271.663V271.663Z" fill="black"/>
<path d="M327.685 278.202H327.659L327.174 305.959H328.196L327.685 278.202Z" fill="#384047"/>
<path d="M325.903 293.321L326.128 292.893L327.747 293.745L327.521 294.173L325.903 293.321Z" fill="#384047"/>
<path d="M237.244 271.712C223.402 271.712 212.18 260.49 212.18 246.647C212.18 232.805 223.402 221.583 237.244 221.583C251.087 221.583 262.308 232.805 262.308 246.647C262.308 260.49 251.087 271.712 237.244 271.712Z" fill="#0DE5A8"/>
<path opacity="0.2" d="M218.6 229.906C216.262 235.375 215.945 241.497 217.705 247.178C219.465 252.859 223.188 257.73 228.209 260.918C233.229 264.107 239.22 265.407 245.111 264.585C251.001 263.764 256.408 260.874 260.364 256.434C258.936 259.775 256.799 262.766 254.1 265.199C251.401 267.632 248.206 269.449 244.735 270.525C241.264 271.6 237.601 271.908 233.999 271.428C230.397 270.947 226.943 269.689 223.876 267.741C220.809 265.792 218.202 263.201 216.235 260.145C214.269 257.089 212.991 253.642 212.489 250.043C211.987 246.445 212.274 242.78 213.329 239.303C214.384 235.825 216.183 232.619 218.6 229.906V229.906Z" fill="black"/>
<path d="M237.175 246.647H237.107L235.867 317.709H238.484L237.175 246.647Z" fill="#384047"/>
<path d="M232.612 285.354L233.189 284.257L237.332 286.439L236.755 287.535L232.612 285.354Z" fill="#384047"/>
<path d="M411.685 402.374C409.846 402.374 408.355 400.884 408.355 399.045C408.355 397.206 409.846 395.715 411.685 395.715C413.524 395.715 415.015 397.206 415.015 399.045C415.015 400.884 413.524 402.374 411.685 402.374Z" fill="#0DE5A8"/>
<path d="M386.307 393.337C386.307 393.337 385.983 386.537 379.33 387.327Z" fill="#384047"/>
<path d="M388.187 386.866C386.348 386.866 384.857 385.375 384.857 383.536C384.857 381.697 386.348 380.206 388.187 380.206C390.026 380.206 391.517 381.697 391.517 383.536C391.517 385.375 390.026 386.866 388.187 386.866Z" fill="#0DE5A8"/>
<path d="M387.789 389.143H388.729V395.722H387.789V389.143Z" fill="#384047"/>
<path d="M315.474 340.722C315.474 340.722 315.217 335.321 309.933 335.949Z" fill="#384047"/>
<path d="M316.968 335.582C315.507 335.582 314.323 334.398 314.323 332.937C314.323 331.477 315.507 330.293 316.968 330.293C318.428 330.293 319.612 331.477 319.612 332.937C319.612 334.398 318.428 335.582 316.968 335.582Z" fill="#0DE5A8"/>
<path d="M316.651 337.391H317.398V342.617H316.651V337.391Z" fill="#384047"/>
<path d="M212.082 323.803C212.082 323.803 211.825 318.402 206.54 319.03Z" fill="#384047"/>
<path d="M213.576 318.663C212.115 318.663 210.931 317.479 210.931 316.019C210.931 314.558 212.115 313.374 213.576 313.374C215.036 313.374 216.22 314.558 216.22 316.019C216.22 317.479 215.036 318.663 213.576 318.663Z" fill="#0DE5A8"/>
<path d="M213.259 320.472H214.006V325.698H213.259V320.472Z" fill="#384047"/>
<path d="M310.775 354.821C310.775 354.821 310.517 349.42 305.233 350.047Z" fill="#384047"/>
<path d="M312.268 349.681C310.807 349.681 309.623 348.497 309.623 347.036C309.623 345.576 310.807 344.392 312.268 344.392C313.729 344.392 314.913 345.576 314.913 347.036C314.913 348.497 313.729 349.681 312.268 349.681Z" fill="#0DE5A8"/>
<path d="M311.952 351.49H312.698V356.716H311.952V351.49Z" fill="#384047"/>
<path d="M322.054 365.16C322.054 365.16 321.796 359.759 316.512 360.387Z" fill="#384047"/>
<path d="M323.547 360.02C322.086 360.02 320.902 358.836 320.902 357.375C320.902 355.915 322.086 354.731 323.547 354.731C325.008 354.731 326.192 355.915 326.192 357.375C326.192 358.836 325.008 360.02 323.547 360.02Z" fill="#0DE5A8"/>
<path d="M323.231 361.829H323.977V367.055H323.231V361.829Z" fill="#384047"/>
<path d="M196.104 332.732C196.104 332.732 195.846 327.331 190.562 327.959Z" fill="#384047"/>
<path d="M197.597 327.593C196.136 327.593 194.952 326.409 194.952 324.948C194.952 323.487 196.136 322.303 197.597 322.303C199.057 322.303 200.241 323.487 200.241 324.948C200.241 326.409 199.057 327.593 197.597 327.593Z" fill="#0DE5A8"/>
<path d="M197.281 329.401H198.027V334.627H197.281V329.401Z" fill="#384047"/>
<path d="M348.372 344.482C348.372 344.482 348.114 339.08 342.83 339.708Z" fill="#384047"/>
<path d="M349.865 339.342C348.404 339.342 347.22 338.158 347.22 336.697C347.22 335.236 348.404 334.052 349.865 334.052C351.326 334.052 352.51 335.236 352.51 336.697C352.51 338.158 351.326 339.342 349.865 339.342Z" fill="#0DE5A8"/>
<path d="M349.549 341.151H350.295V346.376H349.549V341.151Z" fill="#384047"/>
<path d="M226.181 317.694C226.181 317.694 225.924 312.293 220.639 312.92Z" fill="#384047"/>
<path d="M227.674 312.554C226.214 312.554 225.03 311.37 225.03 309.909C225.03 308.448 226.214 307.264 227.674 307.264C229.135 307.264 230.319 308.448 230.319 309.909C230.319 311.37 229.135 312.554 227.674 312.554Z" fill="#0DE5A8"/>
<path d="M227.358 314.363H228.105V319.588H227.358V314.363Z" fill="#384047"/>
<path d="M452.572 403.784C450.733 403.784 449.242 402.293 449.242 400.454C449.242 398.615 450.733 397.125 452.572 397.125C454.411 397.125 455.902 398.615 455.902 400.454C455.902 402.293 454.411 403.784 452.572 403.784Z" fill="#0DE5A8"/>
<path d="M128.767 401.904C126.928 401.904 125.437 400.414 125.437 398.575C125.437 396.736 126.928 395.245 128.767 395.245C130.606 395.245 132.097 396.736 132.097 398.575C132.097 400.414 130.606 401.904 128.767 401.904Z" fill="#0DE5A8"/>
<path d="M154.145 392.397C154.145 392.397 153.82 385.597 147.167 386.387Z" fill="#384047"/>
<path d="M156.025 385.926C154.186 385.926 152.695 384.435 152.695 382.596C152.695 380.757 154.186 379.266 156.025 379.266C157.864 379.266 159.355 380.757 159.355 382.596C159.355 384.435 157.864 385.926 156.025 385.926Z" fill="#0DE5A8"/>
<path d="M155.627 388.203H156.567V394.783H155.627V388.203Z" fill="#384047"/>
<path d="M445.282 421.44C445.282 421.44 297.244 382.433 298.653 342.486C301.238 331.442 319.097 328.622 319.097 328.622C319.097 328.622 361.394 322.983 338.365 309.354C315.337 295.725 252.362 299.015 252.362 299.015C252.362 299.015 317.217 309.354 288.549 314.994C265.521 316.403 235.913 322.513 235.913 322.513C235.913 322.513 175.758 335.202 167.298 366.22C158.839 397.237 165.889 421.205 165.889 421.205L445.282 421.44Z" fill="#C2C4C6"/>
<path d="M277.133 416.509L277.707 415.75C276.169 414.585 274.653 413.413 273.202 412.266L272.612 413.013C274.067 414.164 275.589 415.34 277.133 416.509ZM268.169 409.414L268.777 408.681C267.287 407.444 265.831 406.2 264.448 404.985L263.819 405.701C265.209 406.921 266.672 408.171 268.169 409.414V409.414ZM259.581 401.857L260.233 401.162C258.812 399.829 257.441 398.494 256.159 397.194L255.481 397.863C256.771 399.171 258.151 400.515 259.581 401.857V401.857ZM251.553 393.694L252.262 393.058C250.956 391.603 249.721 390.146 248.591 388.728L247.846 389.321C248.987 390.754 250.235 392.225 251.553 393.694V393.694ZM244.432 384.709L245.219 384.172C244.112 382.55 243.113 380.93 242.25 379.358L241.415 379.817C242.292 381.415 243.307 383.061 244.432 384.709ZM238.955 374.607L239.842 374.259C239.151 372.516 238.61 370.717 238.225 368.882L237.292 369.074C237.688 370.962 238.245 372.813 238.955 374.607V374.607ZM237.684 363.322C237.712 361.471 237.969 359.63 238.45 357.842L237.53 357.594C237.029 359.458 236.761 361.376 236.732 363.306L237.684 363.322ZM240.533 352.701C241.438 351.067 242.5 349.526 243.703 348.099L242.973 347.488C241.729 348.963 240.633 350.555 239.698 352.243L240.533 352.701ZM247.639 344.079C249.054 342.833 250.537 341.664 252.08 340.58L251.53 339.802C249.958 340.907 248.448 342.097 247.007 343.367L247.639 344.079ZM256.853 337.515C258.411 336.599 260.091 335.685 261.847 334.799L261.418 333.949C259.644 334.844 257.946 335.768 256.37 336.694L256.853 337.515ZM266.995 332.365C268.653 331.628 270.419 330.887 272.243 330.161L271.891 329.276C270.055 330.006 268.277 330.753 266.608 331.494L266.995 332.365ZM277.584 328.136C279.281 327.521 281.095 326.89 282.975 326.259L282.673 325.356C280.785 325.989 278.964 326.623 277.259 327.241L277.584 328.136ZM288.409 324.495C290.069 323.971 291.856 323.42 293.872 322.81L293.596 321.898C291.576 322.51 289.786 323.062 288.122 323.586L288.409 324.495ZM299.352 321.165C301.279 320.588 303.116 320.038 304.836 319.508L304.555 318.598C302.838 319.127 301.003 319.677 299.079 320.252L299.352 321.165ZM310.297 317.742C312.13 317.137 313.921 316.416 315.662 315.583L315.233 314.732C313.531 315.546 311.778 316.251 309.986 316.841L310.297 317.742ZM317.49 311.498L318.169 310.831C317.301 309.948 315.583 309.085 312.918 308.191L312.616 309.095C315.1 309.927 316.74 310.737 317.49 311.498L317.49 311.498ZM307.167 307.543L307.397 306.619C305.75 306.208 303.873 305.779 301.82 305.343L301.622 306.275C303.665 306.708 305.53 307.135 307.167 307.543V307.543ZM296.038 305.153L296.216 304.217C294.461 303.882 292.571 303.535 290.598 303.185L290.432 304.123C292.401 304.472 294.287 304.818 296.038 305.153V305.153ZM284.814 303.155L284.971 302.216C283.176 301.915 281.298 301.607 279.337 301.293L279.186 302.233C281.146 302.547 283.022 302.855 284.814 303.155Z" fill="white"/>
<path d="M273.443 301.329L273.589 300.388C272.663 300.245 271.721 300.1 270.762 299.954L270.619 300.895C271.577 301.041 272.518 301.186 273.443 301.329Z" fill="white"/>
<path d="M252.364 204.585L248.037 201.125C251.398 200.754 252.779 202.587 253.345 204.038C255.97 202.948 258.829 204.377 258.829 204.377L250.172 207.519C250.609 206.353 251.369 205.335 252.364 204.585V204.585Z" fill="#384047"/>
<path d="M332.728 231.373L328.401 227.913C331.762 227.542 333.143 229.375 333.708 230.826C336.334 229.736 339.192 231.165 339.192 231.165L330.536 234.307C330.973 233.141 331.733 232.123 332.728 231.373V231.373Z" fill="#384047"/>
<path d="M311.579 175.918L307.253 172.457C310.614 172.087 311.995 173.92 312.56 175.37C315.186 174.28 318.044 175.709 318.044 175.709L309.388 178.852C309.825 177.685 310.585 176.667 311.579 175.918Z" fill="#384047"/>
<path d="M264.548 329.985C264.548 329.985 268.295 329.985 268.712 332.275C269.128 334.565 269.752 359.547 269.336 362.67C268.92 365.793 268.92 365.168 268.92 365.168C268.92 365.168 269.75 371.102 267.877 371.362C266.005 371.622 266.005 364.544 266.005 364.544L264.548 339.145V329.985Z" fill="#9E616A"/>
<path d="M248.31 329.985C248.31 329.985 244.562 329.985 244.146 332.275C243.73 334.565 243.105 359.547 243.522 362.67C243.938 365.793 243.938 365.168 243.938 365.168C243.938 365.168 243.108 371.102 244.98 371.362C246.852 371.622 246.852 364.544 246.852 364.544L248.31 339.145V329.985Z" fill="#9E616A"/>
<path d="M258.094 325.197C255.105 325.197 252.682 322.774 252.682 319.785C252.682 316.795 255.105 314.372 258.094 314.372C261.084 314.372 263.507 316.795 263.507 319.785C263.507 322.774 261.084 325.197 258.094 325.197Z" fill="#9E616A"/>
<path d="M259.343 322.699C259.343 322.699 259.968 329.569 260.801 330.194C261.633 330.818 252.057 329.777 252.057 329.777C252.057 329.777 255.388 324.781 254.763 323.116C254.139 321.45 259.343 322.699 259.343 322.699Z" fill="#9E616A"/>
<path d="M247.061 329.985C247.061 329.985 258.511 325.197 266.005 329.985C266.005 329.985 267.879 334.774 266.422 337.48C264.964 340.186 262.674 346.64 264.964 351.012C267.254 355.384 264.756 353.51 264.756 353.51C264.756 353.51 267.671 365.168 268.087 374.328C268.503 383.488 266.838 416.381 265.589 416.589C264.34 416.797 260.384 417.213 259.968 416.589C259.551 415.964 256.637 372.454 256.637 372.454C256.637 372.454 255.388 417.005 254.139 417.005C252.89 417.005 249.559 417.005 248.934 415.964C248.31 414.923 243.105 374.744 244.979 366.417C246.852 358.09 248.102 353.926 248.102 353.926C248.102 353.926 245.812 352.469 246.436 351.636C247.061 350.804 250.183 341.852 248.726 340.395C247.269 338.937 247.061 329.985 247.061 329.985Z" fill="#384047"/>
<path d="M254.659 325.266C249.83 325.266 245.916 321.351 245.916 316.522C245.916 311.693 249.83 307.779 254.659 307.779C259.488 307.779 263.403 311.693 263.403 316.522C263.403 321.351 259.488 325.266 254.659 325.266Z" fill="#384047"/>
<path d="M249.199 312.145C250.673 311.799 251.956 310.899 252.784 309.631C253.611 308.364 253.919 306.827 253.643 305.339C253.669 305.428 253.693 305.518 253.714 305.61C254.071 307.13 253.809 308.73 252.986 310.057C252.163 311.384 250.847 312.331 249.327 312.688C247.807 313.045 246.207 312.784 244.879 311.962C243.552 311.14 242.605 309.825 242.246 308.305C242.225 308.213 242.206 308.122 242.189 308.03C242.605 309.485 243.565 310.725 244.871 311.491C246.176 312.257 247.726 312.491 249.199 312.145V312.145Z" fill="#384047"/>
<path d="M248.843 313.284C246.48 313.284 244.565 311.369 244.565 309.006C244.565 306.642 246.48 304.727 248.843 304.727C251.207 304.727 253.122 306.642 253.122 309.006C253.122 311.369 251.207 313.284 248.843 313.284Z" fill="#384047"/>
</g>
<g clip-path="url(#clip3)">
<path fill-rule="evenodd" clip-rule="evenodd" d="M20 82.5733C20 59.0607 39.084 40 62.5966 40C86.1349 40 105.24 59.0816 105.24 82.6199V125.147H62.5733C39.0607 125.147 20 106.086 20 82.5733ZM53.9709 104.316C53.9709 99.5733 62.566 87.1441 62.566 87.1441C62.566 87.1441 71.1611 99.5733 71.1611 104.316C71.1611 109.058 67.3121 112.901 62.566 112.901C57.8199 112.901 53.9709 109.058 53.9709 104.316ZM62.566 77.9451C62.566 77.9451 53.9709 65.516 53.9709 60.7737C53.9709 56.0315 57.8199 52.188 62.566 52.188C67.3121 52.188 71.1611 56.0315 71.1611 60.7737C71.1611 65.516 62.566 77.9451 62.566 77.9451ZM76.6375 100.865C72.5261 98.4941 66.0479 84.8441 66.0479 84.8441C66.0479 84.8441 81.1212 83.6233 85.2326 85.9944C89.344 88.3655 90.7517 93.6169 88.3786 97.7227C86.0056 101.828 80.7489 103.236 76.6375 100.865ZM59.0838 80.9345C59.0838 80.9345 44.0105 82.1554 39.8991 79.7843C35.7877 77.4132 34.38 72.1618 36.7531 68.056C39.1261 63.9502 44.3828 62.5423 48.4942 64.9134C52.6056 67.2845 59.0838 80.9345 59.0838 80.9345ZM85.4256 79.5951C81.3141 81.9663 66.2408 80.7454 66.2408 80.7454C66.2408 80.7454 72.719 67.0954 76.8304 64.7243C80.9419 62.3531 86.1985 63.7611 88.5716 67.8668C90.9446 71.9726 89.537 77.224 85.4256 79.5951ZM59.2766 84.655C59.2766 84.655 52.7984 98.305 48.687 100.676C44.5756 103.047 39.3189 101.639 36.9459 97.5336C34.5728 93.4278 35.9805 88.1764 40.0919 85.8053C44.2033 83.4342 59.2766 84.655 59.2766 84.655Z" fill="white"/>
<path d="M297.95 148.679L303.368 144.651C306.056 148.679 309.962 150.692 315.085 150.692C319.285 150.692 322.645 149.308 325.165 146.539C327.769 143.771 329.07 140.498 329.07 136.723V120.991C325.207 124.431 320.671 126.151 315.463 126.151C309.668 126.151 304.796 124.179 300.848 120.236C296.901 116.292 294.927 111.426 294.927 105.637V73.2924H301.856V105.637C301.856 109.412 303.2 112.643 305.888 115.328C308.66 117.929 311.852 119.229 315.463 119.229C319.411 119.229 322.645 117.887 325.165 115.202C327.769 112.433 329.07 109.245 329.07 105.637V73.2924H336V136.723C336 142.512 333.942 147.42 329.826 151.448C325.795 155.559 320.881 157.614 315.085 157.614C307.862 157.614 302.15 154.636 297.95 148.679Z" fill="white"/>
<path d="M187.639 143.941C191.67 149.395 197.256 152.121 204.396 152.121C210.107 152.121 214.979 150.15 219.011 146.206C223.126 142.347 225.184 137.397 225.184 131.356V117.134C219.725 123.175 212.963 126.196 204.9 126.196C197.508 126.196 191.124 123.511 185.749 118.141C180.373 112.771 177.685 106.395 177.685 99.0111C177.685 91.4599 180.373 85.0413 185.749 79.7555C191.124 74.4696 197.508 71.8267 204.9 71.8267C212.397 71.8267 218.843 74.5308 224.239 79.9391C224.345 80.0446 224.45 80.1512 224.554 80.2589L224.643 73.168L232.114 73.2111V131.356C232.114 139.075 229.384 145.619 223.924 150.989C218.465 156.359 211.955 159.043 204.396 159.043C195.324 159.043 187.975 155.436 182.347 148.22L187.639 143.941ZM204.9 78.7486C199.188 78.7486 194.358 80.7203 190.41 84.6638C186.547 88.5233 184.615 93.3057 184.615 99.0111C184.615 104.716 186.547 109.541 190.41 113.484C194.358 117.344 199.188 119.274 204.9 119.274C210.527 119.274 215.315 117.302 219.263 113.358C223.21 109.415 225.184 104.633 225.184 99.0111C225.184 93.3896 223.21 88.6072 219.263 84.6638C215.315 80.7203 210.527 78.7486 204.9 78.7486Z" fill="white"/>
<path d="M246.259 143.941C250.291 149.395 255.877 152.121 263.016 152.121C268.728 152.121 273.6 150.15 277.631 146.206C281.747 142.347 283.805 137.397 283.805 131.356V117.134C278.345 123.175 271.584 126.196 263.52 126.196C256.129 126.196 249.745 123.511 244.369 118.141C238.994 112.771 236.306 106.395 236.306 99.0111C236.306 91.4599 238.994 85.0413 244.369 79.7555C249.745 74.4696 256.129 71.8267 263.52 71.8267C271.017 71.8267 277.464 74.5308 282.86 79.9391C282.965 80.0446 283.07 80.1512 283.175 80.2589L283.264 73.168L290.734 73.2111V131.356C290.734 139.075 288.005 145.619 282.545 150.989C277.085 156.359 270.576 159.043 263.016 159.043C253.945 159.043 246.595 155.436 240.968 148.22L246.259 143.941ZM263.52 78.7486C257.809 78.7486 252.979 80.7203 249.031 84.6638C245.167 88.5233 243.236 93.3057 243.236 99.0111C243.236 104.716 245.167 109.541 249.031 113.484C252.979 117.344 257.809 119.274 263.52 119.274C269.148 119.274 273.935 117.302 277.883 113.358C281.831 109.415 283.805 104.633 283.805 99.0111C283.805 93.3896 281.831 88.6072 277.883 84.6638C273.935 80.7203 269.148 78.7486 263.52 78.7486Z" fill="white"/>
<path d="M109.262 125.202V61.9536C109.342 57.9683 110.22 54.4611 111.896 51.4322C113.651 48.3237 116.045 45.8926 119.077 44.139C122.189 42.3855 125.78 41.5087 129.849 41.5087H164.547L158.616 49.1606H130.687C126.777 49.1606 123.665 50.396 121.351 52.867C119.037 55.2582 117.88 58.2871 117.88 61.9536V80.7247H154.865V88.3767H117.88V125.202H109.262Z" fill="white"/>
<path d="M165.102 48.4267C167.85 46.1228 179.23 45.0554 179.23 45.0554C179.23 45.0554 176.202 56.0645 173.453 58.3683C170.704 60.6722 166.607 60.3134 164.301 57.5685C161.995 54.8237 162.353 50.7305 165.102 48.4267Z" fill="#0DE5A8"/>
<path d="M165.115 125.265V64.2887H173.493V125.265H165.115Z" fill="white"/>
</g>
<path d="M547.516 259.456C555.116 259.456 560.474 253.908 560.474 246.346C560.474 238.784 555.116 233.236 547.516 233.236C539.916 233.236 534.558 238.784 534.558 246.346C534.558 253.908 539.916 259.456 547.516 259.456ZM547.516 255.504C542.386 255.504 539.118 251.552 539.118 246.346C539.118 241.102 542.386 237.188 547.516 237.188C552.608 237.188 555.914 241.102 555.914 246.346C555.914 251.552 552.608 255.504 547.516 255.504ZM574.521 259.456C579.271 259.456 582.653 255.846 582.653 249.804C582.653 243.762 579.271 240.19 574.521 240.19C572.127 240.19 569.999 241.33 568.631 243.154V240.646H564.641V265.992H568.631V256.454C570.113 258.43 572.203 259.456 574.521 259.456ZM573.343 255.922C571.481 255.922 569.505 254.782 568.631 253.452V246.194C569.505 244.826 571.481 243.724 573.343 243.724C576.497 243.724 578.511 246.27 578.511 249.804C578.511 253.376 576.497 255.922 573.343 255.922ZM595.083 259.456C598.009 259.456 600.707 258.544 602.531 256.796L600.707 254.174C599.415 255.466 597.287 256.188 595.501 256.188C592.043 256.188 589.953 253.908 589.649 251.134H603.823V250.184C603.823 244.408 600.289 240.19 594.779 240.19C589.345 240.19 585.469 244.484 585.469 249.804C585.469 255.618 589.573 259.456 595.083 259.456ZM599.947 248.322H589.611C589.801 246.08 591.359 243.458 594.779 243.458C598.389 243.458 599.871 246.156 599.947 248.322ZM624.14 259V246.08C624.14 242.318 622.164 240.19 618.212 240.19C615.324 240.19 612.968 241.71 611.752 243.154V240.646H607.762V259H611.752V246.194C612.664 244.94 614.412 243.724 616.464 243.724C618.706 243.724 620.15 244.674 620.15 247.524V259H624.14ZM636.998 251.514V248.094H627.878V251.514H636.998ZM646.985 259.456C651.925 259.456 654.623 256.986 654.623 253.756C654.623 246.46 643.527 248.892 643.527 245.624C643.527 244.332 644.857 243.382 646.947 243.382C649.227 243.382 651.279 244.332 652.381 245.586L654.053 242.774C652.381 241.292 650.025 240.19 646.909 240.19C642.273 240.19 639.689 242.774 639.689 245.776C639.689 252.806 650.785 250.222 650.785 253.832C650.785 255.276 649.569 256.302 647.175 256.302C644.781 256.302 642.235 255.048 640.943 253.718L639.119 256.606C641.019 258.468 643.869 259.456 646.985 259.456ZM666.923 259.456C672.813 259.456 676.385 255.086 676.385 249.804C676.385 244.56 672.813 240.19 666.923 240.19C661.109 240.19 657.499 244.56 657.499 249.804C657.499 255.086 661.109 259.456 666.923 259.456ZM666.923 255.922C663.541 255.922 661.641 253.072 661.641 249.804C661.641 246.574 663.541 243.724 666.923 243.724C670.343 243.724 672.243 246.574 672.243 249.804C672.243 253.072 670.343 255.922 666.923 255.922ZM696.8 259V240.646H692.81V253.528C691.86 254.782 690.112 255.922 688.098 255.922C685.856 255.922 684.412 255.048 684.412 252.198V240.646H680.422V253.642C680.422 257.404 682.36 259.456 686.312 259.456C689.2 259.456 691.48 258.05 692.81 256.568V259H696.8ZM705.972 259V246.498C706.77 245.206 709.012 244.066 710.684 244.066C711.178 244.066 711.596 244.104 711.938 244.18V240.228C709.544 240.228 707.34 241.596 705.972 243.344V240.646H701.982V259H705.972ZM723.516 259.456C727.088 259.456 729.254 257.936 730.546 256.188L727.924 253.756C726.898 255.162 725.492 255.922 723.706 255.922C720.362 255.922 718.158 253.376 718.158 249.804C718.158 246.232 720.362 243.724 723.706 243.724C725.492 243.724 726.898 244.446 727.924 245.89L730.546 243.458C729.254 241.71 727.088 240.19 723.516 240.19C717.93 240.19 714.016 244.256 714.016 249.804C714.016 255.39 717.93 259.456 723.516 259.456ZM742.519 259.456C745.445 259.456 748.143 258.544 749.967 256.796L748.143 254.174C746.851 255.466 744.723 256.188 742.937 256.188C739.479 256.188 737.389 253.908 737.085 251.134H751.259V250.184C751.259 244.408 747.725 240.19 742.215 240.19C736.781 240.19 732.905 244.484 732.905 249.804C732.905 255.618 737.009 259.456 742.519 259.456ZM747.383 248.322H737.047C737.237 246.08 738.795 243.458 742.215 243.458C745.825 243.458 747.307 246.156 747.383 248.322ZM759.952 257.556C759.952 255.352 758.546 254.098 756.988 254.098C755.582 254.098 754.404 255.276 754.404 256.72C754.404 258.126 755.392 259.114 756.684 259.114C756.912 259.114 757.216 259.038 757.33 259C757.064 260.292 755.81 261.85 754.594 262.572L756.38 264.054C758.47 262.572 759.952 260.178 759.952 257.556ZM782.446 259.456C786.018 259.456 788.184 257.936 789.476 256.188L786.854 253.756C785.828 255.162 784.422 255.922 782.636 255.922C779.292 255.922 777.088 253.376 777.088 249.804C777.088 246.232 779.292 243.724 782.636 243.724C784.422 243.724 785.828 244.446 786.854 245.89L789.476 243.458C788.184 241.71 786.018 240.19 782.446 240.19C776.86 240.19 772.946 244.256 772.946 249.804C772.946 255.39 776.86 259.456 782.446 259.456ZM796.965 259V233.654H792.975V259H796.965ZM810.425 259.456C816.315 259.456 819.887 255.086 819.887 249.804C819.887 244.56 816.315 240.19 810.425 240.19C804.611 240.19 801.001 244.56 801.001 249.804C801.001 255.086 804.611 259.456 810.425 259.456ZM810.425 255.922C807.043 255.922 805.143 253.072 805.143 249.804C805.143 246.574 807.043 243.724 810.425 243.724C813.845 243.724 815.745 246.574 815.745 249.804C815.745 253.072 813.845 255.922 810.425 255.922ZM840.302 259V240.646H836.312V253.528C835.362 254.782 833.614 255.922 831.6 255.922C829.358 255.922 827.914 255.048 827.914 252.198V240.646H823.924V253.642C823.924 257.404 825.862 259.456 829.814 259.456C832.702 259.456 834.982 258.05 836.312 256.568V259H840.302ZM862.394 259V233.654H858.404V243.192C856.922 241.254 854.794 240.19 852.514 240.19C847.764 240.19 844.344 243.914 844.344 249.842C844.344 255.884 847.802 259.456 852.514 259.456C854.87 259.456 856.998 258.316 858.404 256.492V259H862.394ZM853.654 255.922C850.5 255.922 848.486 253.376 848.486 249.842C848.486 246.27 850.5 243.724 853.654 243.724C855.554 243.724 857.492 244.826 858.404 246.194V253.49C857.492 254.858 855.554 255.922 853.654 255.922ZM875.24 251.514V248.094H866.12V251.514H875.24ZM895.335 259V246.08C895.335 242.318 893.359 240.19 889.407 240.19C886.519 240.19 884.163 241.71 882.947 243.154V240.646H878.957V259H882.947V246.194C883.859 244.94 885.607 243.724 887.659 243.724C889.901 243.724 891.345 244.674 891.345 247.524V259H895.335ZM915.718 259V246.84C915.718 241.9 912.146 240.19 908.08 240.19C905.154 240.19 902.494 241.14 900.366 243.154L902 245.928C903.596 244.37 905.382 243.61 907.434 243.61C909.98 243.61 911.728 244.902 911.728 247.03V249.766C910.398 248.208 908.27 247.41 905.8 247.41C902.798 247.41 899.416 249.158 899.416 253.376C899.416 257.442 902.798 259.456 905.8 259.456C908.232 259.456 910.36 258.582 911.728 257.024V259H915.718ZM907.358 256.72C905.116 256.72 903.444 255.428 903.444 253.452C903.444 251.438 905.116 250.146 907.358 250.146C909.106 250.146 910.816 250.792 911.728 252.046V254.82C910.816 256.074 909.106 256.72 907.358 256.72ZM926.401 259.456C928.263 259.456 929.441 258.962 930.163 258.278L929.213 255.276C928.909 255.618 928.187 255.922 927.427 255.922C926.287 255.922 925.679 255.01 925.679 253.756V244.142H929.403V240.646H925.679V235.63H921.689V240.646H918.649V244.142H921.689V254.744C921.689 257.784 923.323 259.456 926.401 259.456ZM935.001 238.404C936.369 238.404 937.471 237.302 937.471 235.934C937.471 234.566 936.369 233.464 935.001 233.464C933.671 233.464 932.531 234.566 932.531 235.934C932.531 237.302 933.671 238.404 935.001 238.404ZM937.015 259V240.646H933.025V259H937.015ZM951.311 259L958.797 240.646H954.503L949.145 254.402L943.787 240.646H939.531L947.017 259H951.311ZM969.777 259.456C972.703 259.456 975.401 258.544 977.225 256.796L975.401 254.174C974.109 255.466 971.981 256.188 970.195 256.188C966.737 256.188 964.647 253.908 964.343 251.134H978.517V250.184C978.517 244.408 974.983 240.19 969.473 240.19C964.039 240.19 960.163 244.484 960.163 249.804C960.163 255.618 964.267 259.456 969.777 259.456ZM974.641 248.322H964.305C964.495 246.08 966.053 243.458 969.473 243.458C973.083 243.458 974.565 246.156 974.641 248.322ZM543.944 301.456C547.516 301.456 549.682 299.936 550.974 298.188L548.352 295.756C547.326 297.162 545.92 297.922 544.134 297.922C540.79 297.922 538.586 295.376 538.586 291.804C538.586 288.232 540.79 285.724 544.134 285.724C545.92 285.724 547.326 286.446 548.352 287.89L550.974 285.458C549.682 283.71 547.516 282.19 543.944 282.19C538.358 282.19 534.444 286.256 534.444 291.804C534.444 297.39 538.358 301.456 543.944 301.456ZM562.757 301.456C568.647 301.456 572.219 297.086 572.219 291.804C572.219 286.56 568.647 282.19 562.757 282.19C556.943 282.19 553.333 286.56 553.333 291.804C553.333 297.086 556.943 301.456 562.757 301.456ZM562.757 297.922C559.375 297.922 557.475 295.072 557.475 291.804C557.475 288.574 559.375 285.724 562.757 285.724C566.177 285.724 568.077 288.574 568.077 291.804C568.077 295.072 566.177 297.922 562.757 297.922ZM592.634 301V288.08C592.634 284.318 590.658 282.19 586.706 282.19C583.818 282.19 581.462 283.71 580.246 285.154V282.646H576.256V301H580.246V288.194C581.158 286.94 582.906 285.724 584.958 285.724C587.2 285.724 588.644 286.674 588.644 289.524V301H592.634ZM602.756 301V286.142H606.48V282.646H602.756V281.62C602.756 279.568 603.744 278.542 605.302 278.542C605.986 278.542 606.518 278.694 606.898 278.96L607.772 275.996C606.974 275.54 605.834 275.274 604.58 275.274C601.198 275.274 598.766 277.516 598.766 281.62V282.646H595.726V286.142H598.766V301H602.756ZM611.496 280.404C612.864 280.404 613.966 279.302 613.966 277.934C613.966 276.566 612.864 275.464 611.496 275.464C610.166 275.464 609.026 276.566 609.026 277.934C609.026 279.302 610.166 280.404 611.496 280.404ZM613.51 301V282.646H609.52V301H613.51ZM626.12 308.448C630.642 308.448 635.544 306.662 635.544 300.05V282.646H631.554V285.192C630.072 283.254 627.982 282.19 625.664 282.19C620.952 282.19 617.532 285.686 617.532 291.614C617.532 297.656 620.99 301.038 625.664 301.038C628.058 301.038 630.148 299.822 631.554 297.998V300.202C631.554 303.964 628.742 305.18 626.12 305.18C623.688 305.18 621.788 304.534 620.306 302.824L618.444 305.712C620.686 307.764 623.004 308.448 626.12 308.448ZM626.842 297.504C623.688 297.504 621.674 295.148 621.674 291.614C621.674 288.08 623.688 285.724 626.842 285.724C628.704 285.724 630.68 286.826 631.554 288.194V295.034C630.68 296.402 628.704 297.504 626.842 297.504ZM657.093 301V282.646H653.103V295.528C652.153 296.782 650.405 297.922 648.391 297.922C646.149 297.922 644.705 297.048 644.705 294.198V282.646H640.715V295.642C640.715 299.404 642.653 301.456 646.605 301.456C649.493 301.456 651.773 300.05 653.103 298.568V301H657.093ZM666.265 301V288.498C667.063 287.206 669.305 286.066 670.977 286.066C671.471 286.066 671.889 286.104 672.231 286.18V282.228C669.837 282.228 667.633 283.596 666.265 285.344V282.646H662.275V301H666.265ZM690.649 301V288.84C690.649 283.9 687.077 282.19 683.011 282.19C680.085 282.19 677.425 283.14 675.297 285.154L676.931 287.928C678.527 286.37 680.313 285.61 682.365 285.61C684.911 285.61 686.659 286.902 686.659 289.03V291.766C685.329 290.208 683.201 289.41 680.731 289.41C677.729 289.41 674.347 291.158 674.347 295.376C674.347 299.442 677.729 301.456 680.731 301.456C683.163 301.456 685.291 300.582 686.659 299.024V301H690.649ZM682.289 298.72C680.047 298.72 678.375 297.428 678.375 295.452C678.375 293.438 680.047 292.146 682.289 292.146C684.037 292.146 685.747 292.792 686.659 294.046V296.82C685.747 298.074 684.037 298.72 682.289 298.72ZM701.332 301.456C703.194 301.456 704.372 300.962 705.094 300.278L704.144 297.276C703.84 297.618 703.118 297.922 702.358 297.922C701.218 297.922 700.61 297.01 700.61 295.756V286.142H704.334V282.646H700.61V277.63H696.62V282.646H693.58V286.142H696.62V296.744C696.62 299.784 698.254 301.456 701.332 301.456ZM709.933 280.404C711.301 280.404 712.403 279.302 712.403 277.934C712.403 276.566 711.301 275.464 709.933 275.464C708.603 275.464 707.463 276.566 707.463 277.934C707.463 279.302 708.603 280.404 709.933 280.404ZM711.947 301V282.646H707.957V301H711.947ZM725.407 301.456C731.297 301.456 734.869 297.086 734.869 291.804C734.869 286.56 731.297 282.19 725.407 282.19C719.593 282.19 715.983 286.56 715.983 291.804C715.983 297.086 719.593 301.456 725.407 301.456ZM725.407 297.922C722.025 297.922 720.125 295.072 720.125 291.804C720.125 288.574 722.025 285.724 725.407 285.724C728.827 285.724 730.727 288.574 730.727 291.804C730.727 295.072 728.827 297.922 725.407 297.922ZM755.284 301V288.08C755.284 284.318 753.308 282.19 749.356 282.19C746.468 282.19 744.112 283.71 742.896 285.154V282.646H738.906V301H742.896V288.194C743.808 286.94 745.556 285.724 747.608 285.724C749.85 285.724 751.294 286.674 751.294 289.524V301H755.284ZM791.469 301C789.645 299.252 788.049 297.656 786.529 296.022C788.011 294.046 789.151 291.766 790.063 289.752L786.795 288.27C786.339 289.752 785.465 291.728 784.287 293.552C783.451 292.64 782.615 291.652 781.779 290.626C781.057 289.79 780.145 288.688 779.271 287.51C782.425 285.99 785.617 284.318 785.617 280.48C785.617 277.174 782.805 275.274 779.347 275.274C775.395 275.274 772.469 277.858 772.469 281.278C772.469 283.026 773.191 284.926 774.255 286.826C771.367 288.346 768.745 290.36 768.745 294.236C768.745 299.062 772.393 301.456 776.915 301.456C779.765 301.456 782.121 300.392 784.021 298.796C784.857 299.67 785.655 300.468 786.263 301H791.469ZM777.409 298.264C775.091 298.264 773.001 296.668 773.001 293.894C773.001 291.804 774.179 290.436 775.851 289.334C776.763 290.626 777.751 291.88 778.663 292.982C779.347 293.818 780.525 295.11 781.779 296.478C780.525 297.542 779.043 298.264 777.409 298.264ZM776.497 281.354C776.497 279.53 777.827 278.238 779.537 278.238C780.981 278.238 782.083 279.112 782.083 280.67C782.083 282.836 780.145 284.052 777.751 285.192C776.991 283.862 776.497 282.494 776.497 281.354ZM810.711 301.456C815.651 301.456 818.349 298.986 818.349 295.756C818.349 288.46 807.253 290.892 807.253 287.624C807.253 286.332 808.583 285.382 810.673 285.382C812.953 285.382 815.005 286.332 816.107 287.586L817.779 284.774C816.107 283.292 813.751 282.19 810.635 282.19C805.999 282.19 803.415 284.774 803.415 287.776C803.415 294.806 814.511 292.222 814.511 295.832C814.511 297.276 813.295 298.302 810.901 298.302C808.507 298.302 805.961 297.048 804.669 295.718L802.845 298.606C804.745 300.468 807.595 301.456 810.711 301.456ZM830.839 301.456C833.765 301.456 836.463 300.544 838.287 298.796L836.463 296.174C835.171 297.466 833.043 298.188 831.257 298.188C827.799 298.188 825.709 295.908 825.405 293.134H839.579V292.184C839.579 286.408 836.045 282.19 830.535 282.19C825.101 282.19 821.225 286.484 821.225 291.804C821.225 297.618 825.329 301.456 830.839 301.456ZM835.703 290.322H825.367C825.557 288.08 827.115 285.458 830.535 285.458C834.145 285.458 835.627 288.156 835.703 290.322ZM851.878 301.456C855.45 301.456 857.616 299.936 858.908 298.188L856.286 295.756C855.26 297.162 853.854 297.922 852.068 297.922C848.724 297.922 846.52 295.376 846.52 291.804C846.52 288.232 848.724 285.724 852.068 285.724C853.854 285.724 855.26 286.446 856.286 287.89L858.908 285.458C857.616 283.71 855.45 282.19 851.878 282.19C846.292 282.19 842.378 286.256 842.378 291.804C842.378 297.39 846.292 301.456 851.878 301.456ZM866.396 301V288.498C867.194 287.206 869.436 286.066 871.108 286.066C871.602 286.066 872.02 286.104 872.362 286.18V282.228C869.968 282.228 867.764 283.596 866.396 285.344V282.646H862.406V301H866.396ZM884.054 301.456C886.98 301.456 889.678 300.544 891.502 298.796L889.678 296.174C888.386 297.466 886.258 298.188 884.472 298.188C881.014 298.188 878.924 295.908 878.62 293.134H892.794V292.184C892.794 286.408 889.26 282.19 883.75 282.19C878.316 282.19 874.44 286.484 874.44 291.804C874.44 297.618 878.544 301.456 884.054 301.456ZM888.918 290.322H878.582C878.772 288.08 880.33 285.458 883.75 285.458C887.36 285.458 888.842 288.156 888.918 290.322ZM902.242 301.456C904.104 301.456 905.282 300.962 906.004 300.278L905.054 297.276C904.75 297.618 904.028 297.922 903.268 297.922C902.128 297.922 901.52 297.01 901.52 295.756V286.142H905.244V282.646H901.52V277.63H897.53V282.646H894.49V286.142H897.53V296.744C897.53 299.784 899.164 301.456 902.242 301.456ZM945.113 301V287.738C945.113 284.014 943.213 282.19 939.831 282.19C937.095 282.19 934.663 283.9 933.599 285.572C932.991 283.558 931.319 282.19 928.583 282.19C925.809 282.19 923.377 284.014 922.617 285.154V282.646H918.627V301H922.617V288.194C923.453 286.978 925.087 285.724 926.835 285.724C929.001 285.724 929.875 287.054 929.875 289.03V301H933.865V288.156C934.663 286.978 936.335 285.724 938.121 285.724C940.249 285.724 941.123 287.054 941.123 289.03V301H945.113ZM965.481 301V288.84C965.481 283.9 961.909 282.19 957.843 282.19C954.917 282.19 952.257 283.14 950.129 285.154L951.763 287.928C953.359 286.37 955.145 285.61 957.197 285.61C959.743 285.61 961.491 286.902 961.491 289.03V291.766C960.161 290.208 958.033 289.41 955.563 289.41C952.561 289.41 949.179 291.158 949.179 295.376C949.179 299.442 952.561 301.456 955.563 301.456C957.995 301.456 960.123 300.582 961.491 299.024V301H965.481ZM957.121 298.72C954.879 298.72 953.207 297.428 953.207 295.452C953.207 293.438 954.879 292.146 957.121 292.146C958.869 292.146 960.579 292.792 961.491 294.046V296.82C960.579 298.074 958.869 298.72 957.121 298.72ZM987.032 301V288.08C987.032 284.318 985.056 282.19 981.104 282.19C978.216 282.19 975.86 283.71 974.644 285.154V282.646H970.654V301H974.644V288.194C975.556 286.94 977.304 285.724 979.356 285.724C981.598 285.724 983.042 286.674 983.042 289.524V301H987.032ZM1007.41 301V288.84C1007.41 283.9 1003.84 282.19 999.777 282.19C996.851 282.19 994.191 283.14 992.063 285.154L993.697 287.928C995.293 286.37 997.079 285.61 999.131 285.61C1001.68 285.61 1003.42 286.902 1003.42 289.03V291.766C1002.09 290.208 999.967 289.41 997.497 289.41C994.495 289.41 991.113 291.158 991.113 295.376C991.113 299.442 994.495 301.456 997.497 301.456C999.929 301.456 1002.06 300.582 1003.42 299.024V301H1007.41ZM999.055 298.72C996.813 298.72 995.141 297.428 995.141 295.452C995.141 293.438 996.813 292.146 999.055 292.146C1000.8 292.146 1002.51 292.792 1003.42 294.046V296.82C1002.51 298.074 1000.8 298.72 999.055 298.72ZM1020.04 308.448C1024.56 308.448 1029.46 306.662 1029.46 300.05V282.646H1025.47V285.192C1023.99 283.254 1021.9 282.19 1019.58 282.19C1014.87 282.19 1011.45 285.686 1011.45 291.614C1011.45 297.656 1014.91 301.038 1019.58 301.038C1021.97 301.038 1024.06 299.822 1025.47 297.998V300.202C1025.47 303.964 1022.66 305.18 1020.04 305.18C1017.6 305.18 1015.7 304.534 1014.22 302.824L1012.36 305.712C1014.6 307.764 1016.92 308.448 1020.04 308.448ZM1020.76 297.504C1017.6 297.504 1015.59 295.148 1015.59 291.614C1015.59 288.08 1017.6 285.724 1020.76 285.724C1022.62 285.724 1024.6 286.826 1025.47 288.194V295.034C1024.6 296.402 1022.62 297.504 1020.76 297.504ZM1043.1 301.456C1046.03 301.456 1048.73 300.544 1050.55 298.796L1048.73 296.174C1047.44 297.466 1045.31 298.188 1043.52 298.188C1040.06 298.188 1037.97 295.908 1037.67 293.134H1051.84V292.184C1051.84 286.408 1048.31 282.19 1042.8 282.19C1037.37 282.19 1033.49 286.484 1033.49 291.804C1033.49 297.618 1037.59 301.456 1043.1 301.456ZM1047.97 290.322H1037.63C1037.82 288.08 1039.38 285.458 1042.8 285.458C1046.41 285.458 1047.89 288.156 1047.97 290.322ZM1082.27 301V287.738C1082.27 284.014 1080.37 282.19 1076.99 282.19C1074.25 282.19 1071.82 283.9 1070.76 285.572C1070.15 283.558 1068.48 282.19 1065.74 282.19C1062.97 282.19 1060.53 284.014 1059.77 285.154V282.646H1055.78V301H1059.77V288.194C1060.61 286.978 1062.24 285.724 1063.99 285.724C1066.16 285.724 1067.03 287.054 1067.03 289.03V301H1071.02V288.156C1071.82 286.978 1073.49 285.724 1075.28 285.724C1077.41 285.724 1078.28 287.054 1078.28 289.03V301H1082.27ZM1095.91 301.456C1098.84 301.456 1101.54 300.544 1103.36 298.796L1101.54 296.174C1100.24 297.466 1098.12 298.188 1096.33 298.188C1092.87 298.188 1090.78 295.908 1090.48 293.134H1104.65V292.184C1104.65 286.408 1101.12 282.19 1095.61 282.19C1090.17 282.19 1086.3 286.484 1086.3 291.804C1086.3 297.618 1090.4 301.456 1095.91 301.456ZM1100.78 290.322H1090.44C1090.63 288.08 1092.19 285.458 1095.61 285.458C1099.22 285.458 1100.7 288.156 1100.78 290.322ZM1124.97 301V288.08C1124.97 284.318 1122.99 282.19 1119.04 282.19C1116.15 282.19 1113.8 283.71 1112.58 285.154V282.646H1108.59V301H1112.58V288.194C1113.49 286.94 1115.24 285.724 1117.29 285.724C1119.53 285.724 1120.98 286.674 1120.98 289.524V301H1124.97ZM1135.66 301.456C1137.52 301.456 1138.7 300.962 1139.42 300.278L1138.47 297.276C1138.17 297.618 1137.45 297.922 1136.69 297.922C1135.55 297.922 1134.94 297.01 1134.94 295.756V286.142H1138.66V282.646H1134.94V277.63H1130.95V282.646H1127.91V286.142H1130.95V296.744C1130.95 299.784 1132.58 301.456 1135.66 301.456ZM1144.34 301.418C1145.78 301.418 1147 300.202 1147 298.758C1147 297.314 1145.78 296.098 1144.34 296.098C1142.89 296.098 1141.68 297.314 1141.68 298.758C1141.68 300.202 1142.89 301.418 1144.34 301.418Z" fill="white"/>
<path d="M551.696 101.688C540.944 101.688 533.84 106.936 533.84 115.192C533.84 131.064 557.52 126.328 557.52 134.264C557.52 136.824 555.28 138.168 551.696 138.168C547.024 138.168 540.112 135.48 535.504 131.448L531.088 140.216C536.4 144.568 544.08 147.384 551.568 147.384C561.552 147.384 569.488 142.648 569.488 133.688C569.488 117.496 545.808 121.912 545.808 114.168C545.808 111.992 547.792 110.904 550.736 110.904C554.384 110.904 560.336 112.824 565.072 115.576L569.36 106.68C564.752 103.672 558.16 101.688 551.696 101.688ZM590.208 112.12C579.52 112.12 572.224 119.16 572.224 129.848C572.224 140.344 579.264 147.384 590.528 147.384C596.864 147.384 602.048 145.144 605.568 141.304L599.744 135.608C597.44 137.912 594.496 139.128 591.488 139.128C587.392 139.128 584.448 136.824 583.36 132.728H607.616C608.384 120.12 602.368 112.12 590.208 112.12ZM583.168 126.776C583.872 122.616 586.496 119.8 590.336 119.8C594.304 119.8 596.992 122.552 596.992 126.776H583.168ZM628.208 112.12C617.52 112.12 610.224 119.16 610.224 129.848C610.224 140.344 617.264 147.384 628.528 147.384C634.864 147.384 640.048 145.144 643.568 141.304L637.744 135.608C635.44 137.912 632.496 139.128 629.488 139.128C625.392 139.128 622.448 136.824 621.36 132.728H645.616C646.384 120.12 640.368 112.12 628.208 112.12ZM621.168 126.776C621.872 122.616 624.496 119.8 628.336 119.8C632.304 119.8 634.992 122.552 634.992 126.776H621.168ZM685.575 137.464C683.911 138.168 682.439 138.616 681.287 138.616C679.239 138.68 678.087 137.528 678.087 134.84V121.336H687.111V114.04H678.087V104.504H667.079V114.104H662.279V121.336H667.079V136.568C667.079 143.736 671.879 147.512 678.535 147.512C681.863 147.512 685.255 146.616 687.751 145.144L685.575 137.464ZM715.767 111.992C710.647 112.056 706.615 114.104 704.183 118.2V99.512H693.111V147H704.183V129.976C704.183 125.24 706.871 121.784 711.223 121.784C714.999 121.784 717.303 124.28 717.303 128.312V147H728.375V125.24C728.375 117.176 723.383 111.992 715.767 111.992ZM750.77 112.12C740.082 112.12 732.786 119.16 732.786 129.848C732.786 140.344 739.826 147.384 751.09 147.384C757.426 147.384 762.61 145.144 766.13 141.304L760.306 135.608C758.002 137.912 755.058 139.128 752.05 139.128C747.954 139.128 745.01 136.824 743.922 132.728H768.178C768.946 120.12 762.93 112.12 750.77 112.12ZM743.73 126.776C744.434 122.616 747.058 119.8 750.898 119.8C754.866 119.8 757.554 122.552 757.554 126.776H743.73ZM805.001 107.768C806.281 107.768 807.817 108.28 809.033 109.176L812.937 101.432C810.313 99.896 806.665 99 803.273 99C795.849 99 790.089 103.224 790.089 110.84V114.04H785.417V121.336H790.089V147H801.033V121.336H808.841V114.04H801.033V111.544C801.033 108.984 802.761 107.704 805.001 107.768ZM827.604 112.12C816.276 112.12 808.724 119.096 808.724 129.72C808.724 140.344 816.276 147.384 827.604 147.384C838.868 147.384 846.42 140.344 846.42 129.72C846.42 119.096 838.868 112.12 827.604 112.12ZM827.604 120.888C832.148 120.888 835.284 124.536 835.284 129.848C835.284 135.224 832.148 138.808 827.604 138.808C822.996 138.808 819.86 135.224 819.86 129.848C819.86 124.536 822.996 120.888 827.604 120.888ZM862.926 112.504H851.854V147H862.926V129.272C863.502 124.408 867.726 121.4 874.126 121.976V111.992C869.198 112.056 865.294 114.296 862.926 118.328V112.504ZM893.77 112.12C883.082 112.12 875.786 119.16 875.786 129.848C875.786 140.344 882.826 147.384 894.09 147.384C900.426 147.384 905.61 145.144 909.13 141.304L903.306 135.608C901.002 137.912 898.058 139.128 895.05 139.128C890.954 139.128 888.01 136.824 886.922 132.728H911.178C911.946 120.12 905.93 112.12 893.77 112.12ZM886.73 126.776C887.434 122.616 890.058 119.8 893.898 119.8C897.866 119.8 900.554 122.552 900.554 126.776H886.73ZM929.018 111.992C921.018 111.992 915.002 115.832 915.002 122.936C914.938 135.032 932.794 132.408 932.794 137.464C932.794 139.064 931.194 139.832 929.018 139.832C925.178 139.832 920.698 138.296 916.794 135.544L913.274 142.584C917.434 145.784 923.002 147.448 928.762 147.448C937.082 147.448 943.29 143.544 943.29 136.44C943.354 124.408 925.178 126.712 925.178 121.976C925.178 120.376 926.586 119.608 928.57 119.608C931.45 119.608 935.29 120.824 939.45 123.064L943.226 115.896C939.002 113.4 934.01 111.992 929.018 111.992ZM969.075 137.464C967.411 138.168 965.939 138.616 964.787 138.616C962.739 138.68 961.587 137.528 961.587 134.84V121.336H970.611V114.04H961.587V104.504H950.579V114.104H945.779V121.336H950.579V136.568C950.579 143.736 955.379 147.512 962.035 147.512C965.363 147.512 968.755 146.616 971.251 145.144L969.075 137.464ZM570.448 173.336L563.728 207H559.376L560.464 201.688C558.843 203.48 556.923 204.867 554.704 205.848C552.485 206.829 550.032 207.32 547.344 207.32C544.485 207.32 541.947 206.744 539.728 205.592C537.509 204.44 535.781 202.797 534.544 200.664C533.307 198.488 532.688 195.949 532.688 193.048C532.688 189.251 533.499 185.837 535.12 182.808C536.784 179.779 539.067 177.411 541.968 175.704C544.869 173.955 548.112 173.08 551.696 173.08C554.896 173.08 557.584 173.72 559.76 175C561.936 176.237 563.515 178.029 564.496 180.376L565.904 173.336H570.448ZM548.304 203.288C551.077 203.288 553.573 202.627 555.792 201.304C558.011 199.939 559.739 198.061 560.976 195.672C562.256 193.24 562.896 190.531 562.896 187.544C562.896 184.259 561.915 181.699 559.952 179.864C558.032 177.987 555.323 177.048 551.824 177.048C549.051 177.048 546.555 177.731 544.336 179.096C542.117 180.461 540.368 182.36 539.088 184.792C537.851 187.181 537.232 189.869 537.232 192.856C537.232 196.141 538.192 198.701 540.112 200.536C542.075 202.371 544.805 203.288 548.304 203.288ZM592.987 173.08C596.784 173.08 599.728 174.061 601.819 176.024C603.952 177.944 605.019 180.611 605.019 184.024C605.019 185.219 604.891 186.499 604.635 187.864L600.795 207H596.251L600.091 187.8C600.304 186.605 600.411 185.581 600.411 184.728C600.411 182.296 599.664 180.44 598.171 179.16C596.72 177.837 594.566 177.176 591.707 177.176C588.08 177.176 585.094 178.179 582.747 180.184C580.4 182.147 578.822 185.069 578.011 188.952L574.427 207H569.883L576.539 173.336H580.891L579.803 178.712C583.003 174.957 587.398 173.08 592.987 173.08ZM647.013 159.512L637.541 207H633.189L634.277 201.688C632.655 203.48 630.735 204.867 628.517 205.848C626.298 206.829 623.845 207.32 621.157 207.32C618.298 207.32 615.759 206.744 613.541 205.592C611.322 204.44 609.594 202.797 608.357 200.664C607.119 198.488 606.501 195.949 606.501 193.048C606.501 189.251 607.311 185.837 608.933 182.808C610.597 179.779 612.879 177.411 615.781 175.704C618.682 173.955 621.925 173.08 625.509 173.08C628.666 173.08 631.333 173.72 633.509 175C635.727 176.237 637.327 178.029 638.309 180.376L642.469 159.512H647.013ZM622.117 203.288C624.89 203.288 627.386 202.627 629.605 201.304C631.823 199.939 633.551 198.061 634.789 195.672C636.069 193.24 636.708 190.531 636.708 187.544C636.708 184.259 635.727 181.699 633.765 179.864C631.845 177.987 629.135 177.048 625.637 177.048C622.863 177.048 620.367 177.731 618.149 179.096C615.93 180.461 614.181 182.36 612.901 184.792C611.663 187.181 611.045 189.869 611.045 192.856C611.045 196.141 612.005 198.701 613.925 200.536C615.887 202.371 618.618 203.288 622.117 203.288ZM679.575 197.464C677.911 198.168 676.439 198.616 675.287 198.616C673.239 198.68 672.087 197.528 672.087 194.84V181.336H681.111V174.04H672.087V164.504H661.079V174.104H656.279V181.336H661.079V196.568C661.079 203.736 665.879 207.512 672.535 207.512C675.863 207.512 679.255 206.616 681.751 205.144L679.575 197.464ZM709.767 171.992C704.647 172.056 700.615 174.104 698.183 178.2V159.512H687.111V207H698.183V189.976C698.183 185.24 700.871 181.784 705.223 181.784C708.999 181.784 711.303 184.28 711.303 188.312V207H722.375V185.24C722.375 177.176 717.383 171.992 709.767 171.992ZM744.77 172.12C734.082 172.12 726.786 179.16 726.786 189.848C726.786 200.344 733.826 207.384 745.09 207.384C751.426 207.384 756.61 205.144 760.13 201.304L754.306 195.608C752.002 197.912 749.058 199.128 746.05 199.128C741.954 199.128 739.01 196.824 737.922 192.728H762.178C762.946 180.12 756.93 172.12 744.77 172.12ZM737.73 186.776C738.434 182.616 741.058 179.8 744.898 179.8C748.866 179.8 751.554 182.552 751.554 186.776H737.73ZM802.137 197.464C800.473 198.168 799.001 198.616 797.849 198.616C795.801 198.68 794.649 197.528 794.649 194.84V181.336H803.673V174.04H794.649V164.504H783.641V174.104H778.841V181.336H783.641V196.568C783.641 203.736 788.441 207.512 795.097 207.512C798.425 207.512 801.817 206.616 804.313 205.144L802.137 197.464ZM820.426 172.504H809.354V207H820.426V189.272C821.002 184.408 825.226 181.4 831.626 181.976V171.992C826.698 172.056 822.794 174.296 820.426 178.328V172.504ZM851.27 172.12C840.582 172.12 833.286 179.16 833.286 189.848C833.286 200.344 840.326 207.384 851.59 207.384C857.926 207.384 863.11 205.144 866.63 201.304L860.806 195.608C858.502 197.912 855.558 199.128 852.55 199.128C848.454 199.128 845.51 196.824 844.422 192.728H868.678C869.446 180.12 863.43 172.12 851.27 172.12ZM844.23 186.776C844.934 182.616 847.558 179.8 851.398 179.8C855.366 179.8 858.054 182.552 858.054 186.776H844.23ZM889.27 172.12C878.582 172.12 871.286 179.16 871.286 189.848C871.286 200.344 878.326 207.384 889.59 207.384C895.926 207.384 901.11 205.144 904.63 201.304L898.806 195.608C896.502 197.912 893.558 199.128 890.55 199.128C886.454 199.128 883.51 196.824 882.422 192.728H906.678C907.446 180.12 901.43 172.12 889.27 172.12ZM882.23 186.776C882.934 182.616 885.558 179.8 889.398 179.8C893.366 179.8 896.054 182.552 896.054 186.776H882.23ZM924.518 171.992C916.518 171.992 910.502 175.832 910.502 182.936C910.438 195.032 928.294 192.408 928.294 197.464C928.294 199.064 926.694 199.832 924.518 199.832C920.678 199.832 916.198 198.296 912.294 195.544L908.774 202.584C912.934 205.784 918.502 207.448 924.262 207.448C932.582 207.448 938.79 203.544 938.79 196.44C938.854 184.408 920.678 186.712 920.678 181.976C920.678 180.376 922.086 179.608 924.07 179.608C926.95 179.608 930.79 180.824 934.95 183.064L938.726 175.896C934.502 173.4 929.51 171.992 924.518 171.992ZM947.807 196.824C944.671 196.824 942.495 199 942.495 202.136C942.495 205.336 944.671 207.512 947.807 207.512C950.943 207.512 953.183 205.336 953.183 202.136C953.183 199 950.943 196.824 947.807 196.824Z" fill="white"/>
</g>
<defs>
<radialGradient id="paint0_radial" cx="0" cy="0" r="1" gradientUnits="userSpaceOnUse" gradientTransform="translate(1834.67 -177.814) scale(1646.44 692.459)">
<stop stop-color="#282F35"/>
<stop offset="1" stop-color="#282F35"/>
</radialGradient>
<radialGradient id="paint1_radial" cx="0" cy="0" r="1" gradientUnits="userSpaceOnUse" gradientTransform="translate(599.833 514.645) scale(1234.83 519.344)">
<stop stop-color="#3AC1B9"/>
<stop offset="1" stop-color="#2AF8B4" stop-opacity="0"/>
</radialGradient>
<radialGradient id="paint2_radial" cx="0" cy="0" r="1" gradientUnits="userSpaceOnUse" gradientTransform="translate(599.833 -177.814) scale(1234.83 519.344)">
<stop stop-color="#282F35"/>
<stop offset="1" stop-color="#282F35" stop-opacity="0"/>
</radialGradient>
<radialGradient id="paint3_radial" cx="0" cy="0" r="1" gradientUnits="userSpaceOnUse" gradientTransform="translate(-635 514.645) scale(1646.44 692.459)">
<stop stop-color="#09C4A2"/>
<stop offset="1" stop-color="#06A497" stop-opacity="0"/>
</radialGradient>
<radialGradient id="paint4_radial" cx="0" cy="0" r="1" gradientUnits="userSpaceOnUse" gradientTransform="translate(1834.67 514.645) scale(1646.44 692.459)">
<stop stop-color="#06A497"/>
<stop offset="1" stop-color="#9DFCC5" stop-opacity="0"/>
</radialGradient>
<clipPath id="clip0">
<rect width="1200" height="400" fill="white"/>
</clipPath>
<clipPath id="clip1">
<rect width="2469.67" height="693" fill="white" transform="matrix(1 0 0 -1 -635 515)"/>
</clipPath>
<clipPath id="clip2">
<rect width="421.87" height="296.593" fill="white" transform="matrix(-1 0 0 1 503.87 125)"/>
</clipPath>
<clipPath id="clip3">
<rect width="316" height="119.043" fill="white" transform="translate(20 40)"/>
</clipPath>
</defs>
</svg>
