<svg width="400" height="1200" viewBox="0 0 400 1200" fill="none" xmlns="http://www.w3.org/2000/svg">
<g clip-path="url(#clip0)">
<rect width="400" height="1200" fill="white"/>
<g clip-path="url(#clip1)">
<path d="M1509 1423.18H-0.000152588V-177.57H1509V1423.18Z" fill="#282F35"/>
<path d="M1509 1423.18H-0.000152588V-177.57H1509V1423.18Z" fill="url(#paint0_radial)"/>
<path d="M1509 1423.18H-0.000152588V-177.57H1509V1423.18Z" fill="url(#paint1_radial)"/>
<path d="M1509 1423.18H-0.000152588V-177.57H1509V1423.18Z" fill="url(#paint2_radial)"/>
<path d="M1509 1423.18H-0.000152588V-177.57H1509V1423.18Z" fill="url(#paint3_radial)"/>
<path d="M1509 1423.18H-0.000152588V-177.57H1509V1423.18Z" fill="url(#paint4_radial)"/>
</g>
<g clip-path="url(#clip2)">
<path fill-rule="evenodd" clip-rule="evenodd" d="M42 82.5733C42 59.0607 61.084 40 84.5966 40C108.135 40 127.24 59.0816 127.24 82.6199V125.147H84.5733C61.0607 125.147 42 106.086 42 82.5733ZM75.9709 104.316C75.9709 99.5733 84.566 87.1441 84.566 87.1441C84.566 87.1441 93.1611 99.5733 93.1611 104.316C93.1611 109.058 89.3121 112.901 84.566 112.901C79.8199 112.901 75.9709 109.058 75.9709 104.316ZM84.566 77.9451C84.566 77.9451 75.9709 65.516 75.9709 60.7737C75.9709 56.0315 79.8199 52.188 84.566 52.188C89.3121 52.188 93.1611 56.0315 93.1611 60.7737C93.1611 65.516 84.566 77.9451 84.566 77.9451ZM98.6376 100.865C94.5262 98.4941 88.048 84.8441 88.048 84.8441C88.048 84.8441 103.121 83.6233 107.233 85.9944C111.344 88.3655 112.752 93.6169 110.379 97.7227C108.006 101.828 102.749 103.236 98.6376 100.865ZM81.0839 80.9345C81.0839 80.9345 66.0106 82.1554 61.8992 79.7843C57.7878 77.4132 56.3801 72.1618 58.7531 68.056C61.1262 63.9502 66.3829 62.5423 70.4943 64.9134C74.6057 67.2845 81.0839 80.9345 81.0839 80.9345ZM107.426 79.5951C103.314 81.9663 88.2409 80.7454 88.2409 80.7454C88.2409 80.7454 94.7191 67.0954 98.8305 64.7243C102.942 62.3531 108.199 63.7611 110.572 67.8668C112.945 71.9726 111.537 77.224 107.426 79.5951ZM81.2767 84.655C81.2767 84.655 74.7985 98.305 70.6871 100.676C66.5756 103.047 61.319 101.639 58.9459 97.5336C56.5729 93.4278 57.9805 88.1764 62.092 85.8053C66.2034 83.4342 81.2767 84.655 81.2767 84.655Z" fill="white"/>
<path d="M319.95 148.679L325.368 144.651C328.056 148.679 331.962 150.692 337.085 150.692C341.285 150.692 344.645 149.308 347.165 146.539C349.769 143.771 351.07 140.498 351.07 136.723V120.991C347.207 124.431 342.671 126.151 337.463 126.151C331.668 126.151 326.796 124.179 322.848 120.236C318.901 116.292 316.927 111.426 316.927 105.637V73.2924H323.856V105.637C323.856 109.412 325.2 112.643 327.888 115.328C330.66 117.929 333.852 119.229 337.463 119.229C341.411 119.229 344.645 117.887 347.165 115.202C349.769 112.433 351.07 109.245 351.07 105.637V73.2924H358V136.723C358 142.512 355.942 147.42 351.826 151.448C347.795 155.559 342.881 157.614 337.085 157.614C329.862 157.614 324.15 154.636 319.95 148.679Z" fill="white"/>
<path d="M209.639 143.941C213.67 149.395 219.256 152.121 226.396 152.121C232.107 152.121 236.979 150.15 241.011 146.206C245.126 142.347 247.184 137.397 247.184 131.356V117.134C241.725 123.175 234.963 126.196 226.899 126.196C219.508 126.196 213.124 123.511 207.749 118.141C202.373 112.771 199.685 106.395 199.685 99.0111C199.685 91.4599 202.373 85.0413 207.749 79.7555C213.124 74.4696 219.508 71.8267 226.899 71.8267C234.397 71.8267 240.843 74.5308 246.239 79.9391C246.345 80.0446 246.45 80.1512 246.554 80.2589L246.643 73.168L254.114 73.2111V131.356C254.114 139.075 251.384 145.619 245.924 150.989C240.465 156.359 233.955 159.043 226.396 159.043C217.324 159.043 209.975 155.436 204.347 148.22L209.639 143.941ZM226.899 78.7486C221.188 78.7486 216.358 80.7203 212.41 84.6638C208.547 88.5233 206.615 93.3057 206.615 99.0111C206.615 104.716 208.547 109.541 212.41 113.484C216.358 117.344 221.188 119.274 226.899 119.274C232.527 119.274 237.315 117.302 241.263 113.358C245.21 109.415 247.184 104.633 247.184 99.0111C247.184 93.3896 245.21 88.6072 241.263 84.6638C237.315 80.7203 232.527 78.7486 226.899 78.7486Z" fill="white"/>
<path d="M268.259 143.941C272.291 149.395 277.877 152.121 285.016 152.121C290.728 152.121 295.6 150.15 299.631 146.206C303.747 142.347 305.805 137.397 305.805 131.356V117.134C300.345 123.175 293.584 126.196 285.52 126.196C278.129 126.196 271.745 123.511 266.369 118.141C260.994 112.771 258.306 106.395 258.306 99.0111C258.306 91.4599 260.994 85.0413 266.369 79.7555C271.745 74.4696 278.129 71.8267 285.52 71.8267C293.017 71.8267 299.464 74.5308 304.86 79.9391C304.965 80.0446 305.07 80.1512 305.175 80.2589L305.264 73.168L312.734 73.2111V131.356C312.734 139.075 310.005 145.619 304.545 150.989C299.085 156.359 292.576 159.043 285.016 159.043C275.945 159.043 268.595 155.436 262.968 148.22L268.259 143.941ZM285.52 78.7486C279.809 78.7486 274.979 80.7203 271.031 84.6638C267.167 88.5233 265.236 93.3057 265.236 99.0111C265.236 104.716 267.167 109.541 271.031 113.484C274.979 117.344 279.809 119.274 285.52 119.274C291.148 119.274 295.936 117.302 299.883 113.358C303.831 109.415 305.805 104.633 305.805 99.0111C305.805 93.3896 303.831 88.6072 299.883 84.6638C295.936 80.7203 291.148 78.7486 285.52 78.7486Z" fill="white"/>
<path d="M131.262 125.202V61.9536C131.342 57.9683 132.22 54.4611 133.896 51.4322C135.651 48.3237 138.045 45.8926 141.077 44.139C144.189 42.3855 147.78 41.5087 151.849 41.5087H186.547L180.616 49.1606H152.687C148.777 49.1606 145.665 50.396 143.351 52.867C141.037 55.2582 139.88 58.2871 139.88 61.9536V80.7247H176.865V88.3767H139.88V125.202H131.262Z" fill="white"/>
<path d="M187.102 48.4267C189.85 46.1228 201.23 45.0554 201.23 45.0554C201.23 45.0554 198.202 56.0645 195.453 58.3683C192.704 60.6722 188.607 60.3134 186.301 57.5685C183.995 54.8237 184.353 50.7305 187.102 48.4267Z" fill="#0DE5A8"/>
<path d="M187.114 125.265V64.2887H195.493V125.265H187.114Z" fill="white"/>
</g>
<g clip-path="url(#clip3)">
<path d="M191.176 1068.9H220.313V1069.84H215.769V1078.77H214.829V1069.84H197.13V1078.77H196.19V1069.84H191.176V1068.9Z" fill="#384047"/>
<path d="M180.367 1045.87H187.886V1053.39H184.4V1078.73H183.46V1053.39H180.367V1045.87Z" fill="#384047"/>
<path d="M191.118 1066.09H220.256V1067.03H191.118V1066.09Z" fill="#384047"/>
<path d="M191.118 1063.74H220.256V1064.68H191.118V1063.74Z" fill="#384047"/>
<path d="M191.118 1061.39H220.256V1062.33H191.118V1061.39Z" fill="#384047"/>
<path d="M116.451 1081.48H117.391C117.391 1036.91 153.653 1000.65 198.225 1000.65C242.797 1000.65 279.059 1036.91 279.059 1081.48H279.999C279.999 1036.39 243.315 999.706 198.225 999.706C153.135 999.706 116.451 1036.39 116.451 1081.48Z" fill="#384047"/>
<path d="M334.161 1056.68C291.724 1056.68 257.322 1022.28 257.322 979.839C257.322 937.402 291.724 903 334.161 903C376.598 903 411 937.402 411 979.839C411 1022.28 376.598 1056.68 334.161 1056.68Z" fill="#0DE5A8"/>
<path opacity="0.2" d="M277.003 928.517C269.836 945.282 268.864 964.05 274.26 981.467C279.657 998.884 291.07 1013.81 306.461 1023.59C321.853 1033.37 340.219 1037.35 358.277 1034.83C376.336 1032.31 392.911 1023.46 405.04 1009.84C400.661 1020.08 394.108 1029.25 385.835 1036.71C377.561 1044.17 367.765 1049.74 357.124 1053.04C346.484 1056.34 335.254 1057.28 324.212 1055.81C313.17 1054.33 302.581 1050.48 293.177 1044.5C283.774 1038.53 275.782 1030.59 269.754 1021.22C263.727 1011.85 259.808 1001.28 258.269 990.251C256.731 979.218 257.609 967.982 260.844 957.322C264.079 946.663 269.593 936.834 277.003 928.517V928.517Z" fill="black"/>
<path d="M333.95 979.839H333.739L329.939 1197.69H337.961L333.95 979.839Z" fill="#384047"/>
<path d="M319.959 1098.5L321.729 1095.14L334.431 1101.83L332.66 1105.19L319.959 1098.5Z" fill="#384047"/>
<path d="M51.3214 1074.63C16.9741 1074.63 -10.8699 1046.79 -10.8699 1012.44C-10.8699 978.091 16.9741 950.247 51.3214 950.247C85.6687 950.247 113.513 978.091 113.513 1012.44C113.513 1046.79 85.6687 1074.63 51.3214 1074.63Z" fill="#0DE5A8"/>
<path opacity="0.2" d="M5.0596 970.9C-0.741458 984.469 -1.52843 999.66 2.83935 1013.76C7.20713 1027.85 16.4451 1039.94 28.9023 1047.85C41.3596 1055.76 56.2244 1058.99 70.8406 1056.95C85.4568 1054.91 98.872 1047.74 108.689 1036.72C105.145 1045.01 99.8413 1052.43 93.1448 1058.47C86.4484 1064.51 78.5194 1069.02 69.9073 1071.68C61.2951 1074.35 52.2057 1075.12 43.2688 1073.93C34.332 1072.73 25.7613 1069.61 18.1506 1064.78C10.5399 1059.94 4.07114 1053.51 -0.807443 1045.93C-5.68603 1038.35 -8.85782 1029.8 -10.1031 1020.87C-11.3483 1011.94 -10.6372 1002.84 -8.01901 994.214C-5.40086 985.587 -0.938271 977.631 5.0596 970.9V970.9Z" fill="black"/>
<path d="M51.1507 1012.44H50.9797L47.9043 1188.76H54.3966L51.1507 1012.44Z" fill="#384047"/>
<path d="M39.8266 1108.48L41.2593 1105.76L51.5398 1111.17L50.1071 1113.89L39.8266 1108.48Z" fill="#384047"/>
<path d="M234.842 1065.99C229.435 1065.99 225.052 1061.61 225.052 1056.2C225.052 1050.79 229.435 1046.41 234.842 1046.41C240.249 1046.41 244.633 1050.79 244.633 1056.2C244.633 1061.61 240.249 1065.99 234.842 1065.99Z" fill="#0DE5A8"/>
<path opacity="0.2" d="M227.56 1049.66C226.646 1051.8 226.523 1054.19 227.21 1056.41C227.898 1058.63 229.352 1060.53 231.313 1061.78C233.274 1063.02 235.614 1063.53 237.915 1063.21C240.216 1062.89 242.328 1061.76 243.873 1060.02C243.315 1061.33 242.481 1062.5 241.426 1063.45C240.372 1064.4 239.124 1065.11 237.768 1065.53C236.412 1065.95 234.982 1066.07 233.575 1065.88C232.168 1065.69 230.819 1065.2 229.62 1064.44C228.422 1063.68 227.404 1062.67 226.636 1061.47C225.868 1060.28 225.369 1058.93 225.173 1057.53C224.977 1056.12 225.089 1054.69 225.501 1053.33C225.913 1051.97 226.615 1050.72 227.56 1049.66V1049.66Z" fill="black"/>
<path d="M234.815 1056.2H234.789L234.304 1083.96H235.326L234.815 1056.2Z" fill="#384047"/>
<path d="M233.033 1071.32L233.258 1070.89L234.877 1071.74L234.651 1072.17L233.033 1071.32Z" fill="#384047"/>
<path d="M144.374 1049.71C130.532 1049.71 119.31 1038.49 119.31 1024.65C119.31 1010.8 130.532 999.583 144.374 999.583C158.217 999.583 169.438 1010.8 169.438 1024.65C169.438 1038.49 158.217 1049.71 144.374 1049.71Z" fill="#0DE5A8"/>
<path opacity="0.2" d="M125.73 1007.91C123.392 1013.38 123.075 1019.5 124.835 1025.18C126.595 1030.86 130.318 1035.73 135.339 1038.92C140.359 1042.11 146.35 1043.41 152.241 1042.59C158.131 1041.76 163.538 1038.87 167.494 1034.43C166.066 1037.77 163.929 1040.77 161.23 1043.2C158.531 1045.63 155.336 1047.45 151.865 1048.52C148.394 1049.6 144.731 1049.91 141.129 1049.43C137.527 1048.95 134.073 1047.69 131.006 1045.74C127.939 1043.79 125.332 1041.2 123.365 1038.14C121.399 1035.09 120.121 1031.64 119.619 1028.04C119.117 1024.44 119.404 1020.78 120.459 1017.3C121.514 1013.83 123.313 1010.62 125.73 1007.91V1007.91Z" fill="black"/>
<path d="M144.305 1024.65H144.237L142.997 1095.71H145.614L144.305 1024.65Z" fill="#384047"/>
<path d="M139.742 1063.35L140.319 1062.26L144.462 1064.44L143.885 1065.54L139.742 1063.35Z" fill="#384047"/>
<path d="M316.935 1186.85C316.935 1186.85 316.611 1180.05 309.958 1180.84Z" fill="#384047"/>
<path d="M318.815 1180.37C316.976 1180.37 315.485 1178.88 315.485 1177.04C315.485 1175.21 316.976 1173.71 318.815 1173.71C320.654 1173.71 322.145 1175.21 322.145 1177.04C322.145 1178.88 320.654 1180.37 318.815 1180.37Z" fill="#0DE5A8"/>
<path d="M318.417 1182.65H319.357V1189.23H318.417V1182.65Z" fill="#384047"/>
<path d="M293.437 1171.34C293.437 1171.34 293.113 1164.54 286.46 1165.33Z" fill="#384047"/>
<path d="M295.317 1164.87C293.478 1164.87 291.987 1163.37 291.987 1161.54C291.987 1159.7 293.478 1158.21 295.317 1158.21C297.156 1158.21 298.647 1159.7 298.647 1161.54C298.647 1163.37 297.156 1164.87 295.317 1164.87Z" fill="#0DE5A8"/>
<path d="M294.919 1167.14H295.859V1173.72H294.919V1167.14Z" fill="#384047"/>
<path d="M222.605 1118.72C222.605 1118.72 222.347 1113.32 217.063 1113.95Z" fill="#384047"/>
<path d="M224.098 1113.58C222.637 1113.58 221.453 1112.4 221.453 1110.94C221.453 1109.48 222.637 1108.29 224.098 1108.29C225.558 1108.29 226.742 1109.48 226.742 1110.94C226.742 1112.4 225.558 1113.58 224.098 1113.58Z" fill="#0DE5A8"/>
<path d="M223.781 1115.39H224.528V1120.62H223.781V1115.39Z" fill="#384047"/>
<path d="M119.212 1101.8C119.212 1101.8 118.955 1096.4 113.671 1097.03Z" fill="#384047"/>
<path d="M120.706 1096.66C119.245 1096.66 118.061 1095.48 118.061 1094.02C118.061 1092.56 119.245 1091.37 120.706 1091.37C122.166 1091.37 123.35 1092.56 123.35 1094.02C123.35 1095.48 122.166 1096.66 120.706 1096.66Z" fill="#0DE5A8"/>
<path d="M120.389 1098.47H121.136V1103.7H120.389V1098.47Z" fill="#384047"/>
<path d="M217.905 1132.82C217.905 1132.82 217.647 1127.42 212.363 1128.05Z" fill="#384047"/>
<path d="M219.398 1127.68C217.937 1127.68 216.753 1126.5 216.753 1125.04C216.753 1123.58 217.937 1122.39 219.398 1122.39C220.859 1122.39 222.043 1123.58 222.043 1125.04C222.043 1126.5 220.859 1127.68 219.398 1127.68Z" fill="#0DE5A8"/>
<path d="M219.082 1129.49H219.828V1134.72H219.082V1129.49Z" fill="#384047"/>
<path d="M229.184 1143.16C229.184 1143.16 228.926 1137.76 223.642 1138.39Z" fill="#384047"/>
<path d="M230.677 1138.02C229.216 1138.02 228.032 1136.84 228.032 1135.38C228.032 1133.91 229.216 1132.73 230.677 1132.73C232.138 1132.73 233.322 1133.91 233.322 1135.38C233.322 1136.84 232.138 1138.02 230.677 1138.02Z" fill="#0DE5A8"/>
<path d="M230.361 1139.83H231.107V1145.05H230.361V1139.83Z" fill="#384047"/>
<path d="M103.234 1110.73C103.234 1110.73 102.976 1105.33 97.6917 1105.96Z" fill="#384047"/>
<path d="M104.727 1105.59C103.266 1105.59 102.082 1104.41 102.082 1102.95C102.082 1101.49 103.266 1100.3 104.727 1100.3C106.187 1100.3 107.372 1101.49 107.372 1102.95C107.372 1104.41 106.187 1105.59 104.727 1105.59Z" fill="#0DE5A8"/>
<path d="M104.411 1107.4H105.157V1112.63H104.411V1107.4Z" fill="#384047"/>
<path d="M255.502 1122.48C255.502 1122.48 255.244 1117.08 249.96 1117.71Z" fill="#384047"/>
<path d="M256.995 1117.34C255.535 1117.34 254.35 1116.16 254.35 1114.7C254.35 1113.24 255.535 1112.05 256.995 1112.05C258.456 1112.05 259.64 1113.24 259.64 1114.7C259.64 1116.16 258.456 1117.34 256.995 1117.34Z" fill="#0DE5A8"/>
<path d="M256.679 1119.15H257.425V1124.38H256.679V1119.15Z" fill="#384047"/>
<path d="M133.311 1095.69C133.311 1095.69 133.054 1090.29 127.769 1090.92Z" fill="#384047"/>
<path d="M134.804 1090.55C133.344 1090.55 132.16 1089.37 132.16 1087.91C132.16 1086.45 133.344 1085.26 134.804 1085.26C136.265 1085.26 137.449 1086.45 137.449 1087.91C137.449 1089.37 136.265 1090.55 134.804 1090.55Z" fill="#0DE5A8"/>
<path d="M134.488 1092.36H135.235V1097.59H134.488V1092.36Z" fill="#384047"/>
<path d="M357.822 1188.26C357.822 1188.26 357.498 1181.46 350.845 1182.25Z" fill="#384047"/>
<path d="M359.702 1181.78C357.863 1181.78 356.372 1180.29 356.372 1178.45C356.372 1176.62 357.863 1175.12 359.702 1175.12C361.541 1175.12 363.032 1176.62 363.032 1178.45C363.032 1180.29 361.541 1181.78 359.702 1181.78Z" fill="#0DE5A8"/>
<path d="M359.304 1184.06H360.244V1190.64H359.304V1184.06Z" fill="#384047"/>
<path d="M34.017 1186.38C34.017 1186.38 33.6925 1179.58 27.0394 1180.37Z" fill="#384047"/>
<path d="M35.8968 1179.9C34.0578 1179.9 32.567 1178.41 32.567 1176.57C32.567 1174.74 34.0578 1173.24 35.8968 1173.24C37.7358 1173.24 39.2267 1174.74 39.2267 1176.57C39.2267 1178.41 37.7358 1179.9 35.8968 1179.9Z" fill="#0DE5A8"/>
<path d="M35.4987 1182.18H36.4387V1188.76H35.4987V1182.18Z" fill="#384047"/>
<path d="M61.2749 1170.4C61.2749 1170.4 60.9504 1163.6 54.2973 1164.39Z" fill="#384047"/>
<path d="M63.1548 1163.93C61.3158 1163.93 59.825 1162.43 59.825 1160.6C59.825 1158.76 61.3158 1157.27 63.1548 1157.27C64.9938 1157.27 66.4846 1158.76 66.4846 1160.6C66.4846 1162.43 64.9938 1163.93 63.1548 1163.93Z" fill="#0DE5A8"/>
<path d="M62.7567 1166.2H63.6966V1172.78H62.7567V1166.2Z" fill="#384047"/>
<path d="M65.0346 1194.37C65.0346 1194.37 64.7101 1187.56 58.057 1188.36Z" fill="#384047"/>
<path d="M66.9145 1187.89C65.0755 1187.89 63.5847 1186.4 63.5847 1184.56C63.5847 1182.73 65.0755 1181.23 66.9145 1181.23C68.7535 1181.23 70.2443 1182.73 70.2443 1184.56C70.2443 1186.4 68.7535 1187.89 66.9145 1187.89Z" fill="#0DE5A8"/>
<path d="M66.5164 1190.17H67.4563V1196.75H66.5164V1190.17Z" fill="#384047"/>
<path d="M352.412 1199.44C352.412 1199.44 204.374 1160.43 205.783 1120.49C208.368 1109.44 226.227 1106.62 226.227 1106.62C226.227 1106.62 268.524 1100.98 245.495 1087.35C222.467 1073.73 159.492 1077.01 159.492 1077.01C159.492 1077.01 224.347 1087.35 195.679 1092.99C172.651 1094.4 143.043 1100.51 143.043 1100.51C143.043 1100.51 82.8879 1113.2 74.4285 1144.22C65.9692 1175.24 73.0186 1199.21 73.0186 1199.21L352.412 1199.44Z" fill="#C2C4C6"/>
<path d="M191.173 1199.59L191.727 1198.82C190.944 1198.26 190.172 1197.7 189.413 1197.15L188.852 1197.92C189.615 1198.47 190.388 1199.03 191.173 1199.59Z" fill="white"/>
<path d="M184.263 1194.51L184.838 1193.75C183.299 1192.58 181.783 1191.41 180.332 1190.27L179.742 1191.01C181.198 1192.16 182.719 1193.34 184.263 1194.51ZM175.299 1187.41L175.907 1186.68C174.417 1185.44 172.961 1184.2 171.578 1182.99L170.949 1183.7C172.339 1184.92 173.802 1186.17 175.299 1187.41V1187.41ZM166.711 1179.86L167.363 1179.16C165.942 1177.83 164.571 1176.49 163.289 1175.19L162.611 1175.86C163.902 1177.17 165.281 1178.52 166.711 1179.86V1179.86ZM158.683 1171.69L159.392 1171.06C158.086 1169.6 156.851 1168.15 155.721 1166.73L154.976 1167.32C156.117 1168.75 157.365 1170.23 158.683 1171.69V1171.69ZM151.562 1162.71L152.349 1162.17C151.242 1160.55 150.243 1158.93 149.38 1157.36L148.545 1157.82C149.422 1159.42 150.438 1161.06 151.562 1162.71ZM146.086 1152.61L146.972 1152.26C146.281 1150.52 145.74 1148.72 145.355 1146.88L144.422 1147.07C144.818 1148.96 145.375 1150.81 146.086 1152.61V1152.61ZM144.814 1141.32C144.842 1139.47 145.1 1137.63 145.58 1135.84L144.66 1135.59C144.16 1137.46 143.891 1139.38 143.862 1141.31L144.814 1141.32ZM147.663 1130.7C148.568 1129.07 149.63 1127.53 150.833 1126.1L150.103 1125.49C148.859 1126.96 147.763 1128.56 146.828 1130.24L147.663 1130.7ZM154.769 1122.08C156.184 1120.83 157.667 1119.66 159.21 1118.58L158.66 1117.8C157.088 1118.91 155.578 1120.1 154.137 1121.37L154.769 1122.08ZM163.983 1115.51C165.541 1114.6 167.222 1113.69 168.977 1112.8L168.548 1111.95C166.774 1112.84 165.076 1113.77 163.5 1114.69L163.983 1115.51ZM174.125 1110.36C175.783 1109.63 177.549 1108.89 179.374 1108.16L179.021 1107.28C177.185 1108.01 175.408 1108.75 173.738 1109.49L174.125 1110.36ZM184.714 1106.14C186.411 1105.52 188.225 1104.89 190.105 1104.26L189.803 1103.36C187.915 1103.99 186.094 1104.62 184.389 1105.24L184.714 1106.14ZM195.539 1102.49C197.199 1101.97 198.986 1101.42 201.002 1100.81L200.726 1099.9C198.706 1100.51 196.916 1101.06 195.253 1101.59L195.539 1102.49ZM206.482 1099.16C208.409 1098.59 210.246 1098.04 211.966 1097.51L211.685 1096.6C209.968 1097.13 208.134 1097.68 206.209 1098.25L206.482 1099.16ZM217.428 1095.74C219.26 1095.14 221.052 1094.42 222.792 1093.58L222.363 1092.73C220.661 1093.55 218.908 1094.25 217.116 1094.84L217.428 1095.74ZM224.62 1089.5L225.299 1088.83C224.431 1087.95 222.713 1087.09 220.048 1086.19L219.746 1087.09C222.23 1087.93 223.87 1088.74 224.62 1089.5L224.62 1089.5ZM214.297 1085.54L214.527 1084.62C212.88 1084.21 211.003 1083.78 208.95 1083.34L208.752 1084.27C210.795 1084.71 212.66 1085.14 214.297 1085.54V1085.54ZM203.168 1083.15L203.346 1082.22C201.592 1081.88 199.702 1081.53 197.729 1081.19L197.562 1082.12C199.531 1082.47 201.417 1082.82 203.168 1083.15V1083.15ZM191.944 1081.16L192.101 1080.22C190.306 1079.91 188.428 1079.61 186.467 1079.29L186.316 1080.23C188.276 1080.55 190.152 1080.85 191.944 1081.16Z" fill="white"/>
<path d="M180.573 1079.33L180.719 1078.39C179.793 1078.24 178.851 1078.1 177.892 1077.95L177.749 1078.9C178.707 1079.04 179.648 1079.19 180.573 1079.33Z" fill="white"/>
<path d="M159.494 982.585L155.168 979.125C158.528 978.754 159.909 980.587 160.475 982.038C163.1 980.948 165.959 982.377 165.959 982.377L157.302 985.519C157.739 984.353 158.499 983.335 159.494 982.585V982.585Z" fill="#384047"/>
<path d="M239.858 1009.37L235.531 1005.91C238.892 1005.54 240.273 1007.38 240.838 1008.83C243.464 1007.74 246.323 1009.16 246.323 1009.16L237.666 1012.31C238.103 1011.14 238.863 1010.12 239.858 1009.37V1009.37Z" fill="#384047"/>
<path d="M218.709 953.918L214.383 950.457C217.744 950.087 219.125 951.92 219.69 953.37C222.316 952.28 225.174 953.709 225.174 953.709L216.518 956.852C216.955 955.685 217.715 954.667 218.709 953.918Z" fill="#384047"/>
<path d="M171.678 1107.99C171.678 1107.99 175.425 1107.99 175.842 1110.28C176.258 1112.57 176.882 1137.55 176.466 1140.67C176.05 1143.79 176.05 1143.17 176.05 1143.17C176.05 1143.17 176.88 1149.1 175.008 1149.36C173.135 1149.62 173.135 1142.54 173.135 1142.54L171.678 1117.15V1107.99Z" fill="#9E616A"/>
<path d="M155.44 1107.99C155.44 1107.99 151.693 1107.99 151.276 1110.28C150.86 1112.57 150.235 1137.55 150.652 1140.67C151.068 1143.79 151.068 1143.17 151.068 1143.17C151.068 1143.17 150.238 1149.1 152.11 1149.36C153.983 1149.62 153.982 1142.54 153.982 1142.54L155.44 1117.15V1107.99Z" fill="#9E616A"/>
<path d="M172.302 1195.01H173.968C174.46 1195.01 174.947 1195.1 175.402 1195.29C175.857 1195.48 176.27 1195.75 176.618 1196.1C176.966 1196.45 177.242 1196.86 177.43 1197.32C177.618 1197.77 177.715 1198.26 177.715 1198.75V1198.75H167.514V1193.96H172.302V1195.01Z" fill="#384047"/>
<path d="M156.273 1195.01H154.607C153.613 1195.01 152.66 1195.4 151.957 1196.1C151.255 1196.81 150.86 1197.76 150.86 1198.75V1198.75H161.061V1193.96H156.273V1195.01Z" fill="#384047"/>
<path d="M165.224 1103.2C162.235 1103.2 159.812 1100.77 159.812 1097.78C159.812 1094.8 162.235 1092.37 165.224 1092.37C168.214 1092.37 170.637 1094.8 170.637 1097.78C170.637 1100.77 168.214 1103.2 165.224 1103.2Z" fill="#9E616A"/>
<path d="M166.473 1100.7C166.473 1100.7 167.098 1107.57 167.931 1108.19C168.763 1108.82 159.187 1107.78 159.187 1107.78C159.187 1107.78 162.518 1102.78 161.893 1101.12C161.269 1099.45 166.473 1100.7 166.473 1100.7Z" fill="#9E616A"/>
<path d="M154.191 1107.99C154.191 1107.99 165.641 1103.2 173.135 1107.99C173.135 1107.99 175.009 1112.77 173.552 1115.48C172.094 1118.19 169.804 1124.64 172.094 1129.01C174.384 1133.38 171.886 1131.51 171.886 1131.51C171.886 1131.51 174.801 1143.17 175.217 1152.33C175.633 1161.49 173.968 1194.38 172.719 1194.59C171.47 1194.8 167.514 1195.21 167.098 1194.59C166.682 1193.96 163.767 1150.45 163.767 1150.45C163.767 1150.45 162.518 1195.01 161.269 1195.01C160.02 1195.01 156.689 1195.01 156.064 1193.96C155.44 1192.92 150.235 1152.74 152.109 1144.42C153.983 1136.09 155.232 1131.93 155.232 1131.93C155.232 1131.93 152.942 1130.47 153.566 1129.64C154.191 1128.8 157.313 1119.85 155.856 1118.39C154.399 1116.94 154.191 1107.99 154.191 1107.99Z" fill="#384047"/>
<path d="M161.789 1103.27C156.96 1103.27 153.046 1099.35 153.046 1094.52C153.046 1089.69 156.96 1085.78 161.789 1085.78C166.618 1085.78 170.533 1089.69 170.533 1094.52C170.533 1099.35 166.618 1103.27 161.789 1103.27Z" fill="#384047"/>
<path d="M156.329 1090.15C157.803 1089.8 159.086 1088.9 159.914 1087.63C160.741 1086.36 161.049 1084.83 160.773 1083.34C160.799 1083.43 160.823 1083.52 160.844 1083.61C161.201 1085.13 160.939 1086.73 160.116 1088.06C159.293 1089.38 157.977 1090.33 156.457 1090.69C154.937 1091.04 153.337 1090.78 152.009 1089.96C150.682 1089.14 149.735 1087.82 149.377 1086.3C149.355 1086.21 149.336 1086.12 149.319 1086.03C149.735 1087.49 150.695 1088.72 152.001 1089.49C153.306 1090.26 154.856 1090.49 156.329 1090.15V1090.15Z" fill="#384047"/>
<path d="M155.974 1091.28C153.61 1091.28 151.695 1089.37 151.695 1087.01C151.695 1084.64 153.61 1082.73 155.974 1082.73C158.337 1082.73 160.252 1084.64 160.252 1087.01C160.252 1089.37 158.337 1091.28 155.974 1091.28Z" fill="#384047"/>
</g>
<path d="M102.071 261.688C91.319 261.688 84.215 266.936 84.215 275.192C84.215 291.064 107.895 286.328 107.895 294.264C107.895 296.824 105.655 298.168 102.071 298.168C97.399 298.168 90.487 295.48 85.879 291.448L81.463 300.216C86.775 304.568 94.455 307.384 101.943 307.384C111.927 307.384 119.863 302.648 119.863 293.688C119.863 277.496 96.183 281.912 96.183 274.168C96.183 271.992 98.167 270.904 101.111 270.904C104.759 270.904 110.711 272.824 115.447 275.576L119.735 266.68C115.127 263.672 108.535 261.688 102.071 261.688ZM140.583 272.12C129.895 272.12 122.599 279.16 122.599 289.848C122.599 300.344 129.639 307.384 140.903 307.384C147.239 307.384 152.423 305.144 155.943 301.304L150.119 295.608C147.815 297.912 144.871 299.128 141.863 299.128C137.767 299.128 134.823 296.824 133.735 292.728H157.991C158.759 280.12 152.743 272.12 140.583 272.12ZM133.543 286.776C134.247 282.616 136.871 279.8 140.711 279.8C144.679 279.8 147.367 282.552 147.367 286.776H133.543ZM178.583 272.12C167.895 272.12 160.599 279.16 160.599 289.848C160.599 300.344 167.639 307.384 178.903 307.384C185.239 307.384 190.423 305.144 193.943 301.304L188.119 295.608C185.815 297.912 182.871 299.128 179.863 299.128C175.767 299.128 172.823 296.824 171.735 292.728H195.991C196.759 280.12 190.743 272.12 178.583 272.12ZM171.543 286.776C172.247 282.616 174.871 279.8 178.711 279.8C182.679 279.8 185.367 282.552 185.367 286.776H171.543ZM235.95 297.464C234.286 298.168 232.814 298.616 231.662 298.616C229.614 298.68 228.462 297.528 228.462 294.84V281.336H237.486V274.04H228.462V264.504H217.454V274.104H212.654V281.336H217.454V296.568C217.454 303.736 222.254 307.512 228.91 307.512C232.238 307.512 235.63 306.616 238.126 305.144L235.95 297.464ZM266.142 271.992C261.022 272.056 256.99 274.104 254.558 278.2V259.512H243.486V307H254.558V289.976C254.558 285.24 257.246 281.784 261.598 281.784C265.374 281.784 267.678 284.28 267.678 288.312V307H278.75V285.24C278.75 277.176 273.758 271.992 266.142 271.992ZM301.145 272.12C290.457 272.12 283.161 279.16 283.161 289.848C283.161 300.344 290.201 307.384 301.465 307.384C307.801 307.384 312.985 305.144 316.505 301.304L310.681 295.608C308.377 297.912 305.433 299.128 302.425 299.128C298.329 299.128 295.385 296.824 294.297 292.728H318.553C319.321 280.12 313.305 272.12 301.145 272.12ZM294.105 286.776C294.809 282.616 297.433 279.8 301.273 279.8C305.241 279.8 307.929 282.552 307.929 286.776H294.105ZM119.814 327.768C121.094 327.768 122.63 328.28 123.846 329.176L127.75 321.432C125.126 319.896 121.478 319 118.086 319C110.662 319 104.902 323.224 104.902 330.84V334.04H100.23V341.336H104.902V367H115.846V341.336H123.654V334.04H115.846V331.544C115.846 328.984 117.574 327.704 119.814 327.768ZM142.416 332.12C131.088 332.12 123.536 339.096 123.536 349.72C123.536 360.344 131.088 367.384 142.416 367.384C153.68 367.384 161.232 360.344 161.232 349.72C161.232 339.096 153.68 332.12 142.416 332.12ZM142.416 340.888C146.96 340.888 150.096 344.536 150.096 349.848C150.096 355.224 146.96 358.808 142.416 358.808C137.808 358.808 134.672 355.224 134.672 349.848C134.672 344.536 137.808 340.888 142.416 340.888ZM177.738 332.504H166.666V367H177.738V349.272C178.314 344.408 182.538 341.4 188.938 341.976V331.992C184.01 332.056 180.106 334.296 177.738 338.328V332.504ZM208.583 332.12C197.895 332.12 190.599 339.16 190.599 349.848C190.599 360.344 197.639 367.384 208.903 367.384C215.239 367.384 220.423 365.144 223.943 361.304L218.119 355.608C215.815 357.912 212.871 359.128 209.863 359.128C205.767 359.128 202.823 356.824 201.735 352.728H225.991C226.759 340.12 220.743 332.12 208.583 332.12ZM201.543 346.776C202.247 342.616 204.871 339.8 208.711 339.8C212.679 339.8 215.367 342.552 215.367 346.776H201.543ZM243.831 331.992C235.831 331.992 229.815 335.832 229.815 342.936C229.751 355.032 247.607 352.408 247.607 357.464C247.607 359.064 246.007 359.832 243.831 359.832C239.991 359.832 235.51 358.296 231.607 355.544L228.087 362.584C232.247 365.784 237.815 367.448 243.575 367.448C251.895 367.448 258.103 363.544 258.103 356.44C258.167 344.408 239.991 346.712 239.991 341.976C239.991 340.376 241.399 339.608 243.383 339.608C246.263 339.608 250.103 340.824 254.263 343.064L258.039 335.896C253.815 333.4 248.823 331.992 243.831 331.992ZM283.887 357.464C282.223 358.168 280.751 358.616 279.599 358.616C277.551 358.68 276.399 357.528 276.399 354.84V341.336H285.423V334.04H276.399V324.504H265.391V334.104H260.591V341.336H265.391V356.568C265.391 363.736 270.191 367.512 276.847 367.512C280.175 367.512 283.567 366.616 286.063 365.144L283.887 357.464ZM177.667 393.336L170.947 427H166.595L167.683 421.688C166.061 423.48 164.141 424.867 161.923 425.848C159.704 426.829 157.251 427.32 154.563 427.32C151.704 427.32 149.165 426.744 146.947 425.592C144.728 424.44 143 422.797 141.763 420.664C140.525 418.488 139.907 415.949 139.907 413.048C139.907 409.251 140.717 405.837 142.339 402.808C144.003 399.779 146.285 397.411 149.187 395.704C152.088 393.955 155.331 393.08 158.915 393.08C162.115 393.08 164.803 393.72 166.979 395C169.155 396.237 170.733 398.029 171.715 400.376L173.123 393.336H177.667ZM155.523 423.288C158.296 423.288 160.792 422.627 163.011 421.304C165.229 419.939 166.957 418.061 168.195 415.672C169.475 413.24 170.115 410.531 170.115 407.544C170.115 404.259 169.133 401.699 167.171 399.864C165.251 397.987 162.541 397.048 159.043 397.048C156.269 397.048 153.773 397.731 151.555 399.096C149.336 400.461 147.587 402.36 146.307 404.792C145.069 407.181 144.451 409.869 144.451 412.856C144.451 416.141 145.411 418.701 147.331 420.536C149.293 422.371 152.024 423.288 155.523 423.288ZM200.206 393.08C204.003 393.08 206.947 394.061 209.038 396.024C211.171 397.944 212.238 400.611 212.238 404.024C212.238 405.219 212.11 406.499 211.854 407.864L208.014 427H203.47L207.31 407.8C207.523 406.605 207.63 405.581 207.63 404.728C207.63 402.296 206.883 400.44 205.39 399.16C203.939 397.837 201.784 397.176 198.926 397.176C195.299 397.176 192.312 398.179 189.966 400.184C187.619 402.147 186.04 405.069 185.23 408.952L181.646 427H177.102L183.758 393.336H188.11L187.022 398.712C190.222 394.957 194.616 393.08 200.206 393.08ZM254.231 379.512L244.759 427H240.407L241.495 421.688C239.874 423.48 237.954 424.867 235.735 425.848C233.517 426.829 231.063 427.32 228.375 427.32C225.517 427.32 222.978 426.744 220.759 425.592C218.541 424.44 216.813 422.797 215.575 420.664C214.338 418.488 213.719 415.949 213.719 413.048C213.719 409.251 214.53 405.837 216.151 402.808C217.815 399.779 220.098 397.411 222.999 395.704C225.901 393.955 229.143 393.08 232.727 393.08C235.885 393.08 238.551 393.72 240.727 395C242.946 396.237 244.546 398.029 245.527 400.376L249.687 379.512H254.231ZM229.335 423.288C232.109 423.288 234.605 422.627 236.823 421.304C239.042 419.939 240.77 418.061 242.007 415.672C243.287 413.24 243.927 410.531 243.927 407.544C243.927 404.259 242.946 401.699 240.983 399.864C239.063 397.987 236.354 397.048 232.855 397.048C230.082 397.048 227.586 397.731 225.367 399.096C223.149 400.461 221.399 402.36 220.119 404.792C218.882 407.181 218.263 409.869 218.263 412.856C218.263 416.141 219.223 418.701 221.143 420.536C223.106 422.371 225.837 423.288 229.335 423.288ZM74.2308 477.464C72.5668 478.168 71.0948 478.616 69.9428 478.616C67.8948 478.68 66.7428 477.528 66.7428 474.84V461.336H75.7668V454.04H66.7428V444.504H55.7348V454.104H50.9348V461.336H55.7348V476.568C55.7348 483.736 60.5348 487.512 67.1908 487.512C70.5188 487.512 73.9108 486.616 76.4068 485.144L74.2308 477.464ZM104.423 451.992C99.3033 452.056 95.2713 454.104 92.8393 458.2V439.512H81.7673V487H92.8393V469.976C92.8393 465.24 95.5273 461.784 99.8793 461.784C103.655 461.784 105.959 464.28 105.959 468.312V487H117.031V465.24C117.031 457.176 112.039 451.992 104.423 451.992ZM139.426 452.12C128.738 452.12 121.442 459.16 121.442 469.848C121.442 480.344 128.482 487.384 139.746 487.384C146.082 487.384 151.266 485.144 154.786 481.304L148.962 475.608C146.658 477.912 143.714 479.128 140.706 479.128C136.61 479.128 133.666 476.824 132.578 472.728H156.834C157.602 460.12 151.586 452.12 139.426 452.12ZM132.386 466.776C133.09 462.616 135.714 459.8 139.554 459.8C143.522 459.8 146.21 462.552 146.21 466.776H132.386ZM196.793 477.464C195.129 478.168 193.657 478.616 192.505 478.616C190.457 478.68 189.305 477.528 189.305 474.84V461.336H198.329V454.04H189.305V444.504H178.297V454.104H173.497V461.336H178.297V476.568C178.297 483.736 183.097 487.512 189.753 487.512C193.081 487.512 196.473 486.616 198.969 485.144L196.793 477.464ZM215.082 452.504H204.01V487H215.082V469.272C215.658 464.408 219.882 461.4 226.282 461.976V451.992C221.354 452.056 217.45 454.296 215.082 458.328V452.504ZM245.926 452.12C235.238 452.12 227.942 459.16 227.942 469.848C227.942 480.344 234.982 487.384 246.246 487.384C252.582 487.384 257.766 485.144 261.286 481.304L255.462 475.608C253.158 477.912 250.214 479.128 247.206 479.128C243.11 479.128 240.166 476.824 239.078 472.728H263.334C264.102 460.12 258.086 452.12 245.926 452.12ZM238.886 466.776C239.59 462.616 242.214 459.8 246.054 459.8C250.022 459.8 252.71 462.552 252.71 466.776H238.886ZM283.926 452.12C273.238 452.12 265.942 459.16 265.942 469.848C265.942 480.344 272.982 487.384 284.246 487.384C290.582 487.384 295.766 485.144 299.286 481.304L293.462 475.608C291.158 477.912 288.214 479.128 285.206 479.128C281.11 479.128 278.166 476.824 277.078 472.728H301.334C302.102 460.12 296.086 452.12 283.926 452.12ZM276.886 466.776C277.59 462.616 280.214 459.8 284.054 459.8C288.022 459.8 290.71 462.552 290.71 466.776H276.886ZM319.174 451.992C311.174 451.992 305.158 455.832 305.158 462.936C305.094 475.032 322.95 472.408 322.95 477.464C322.95 479.064 321.35 479.832 319.174 479.832C315.334 479.832 310.854 478.296 306.95 475.544L303.43 482.584C307.59 485.784 313.158 487.448 318.918 487.448C327.238 487.448 333.446 483.544 333.446 476.44C333.51 464.408 315.334 466.712 315.334 461.976C315.334 460.376 316.742 459.608 318.726 459.608C321.606 459.608 325.446 460.824 329.606 463.064L333.382 455.896C329.158 453.4 324.166 451.992 319.174 451.992ZM342.463 476.824C339.327 476.824 337.151 479 337.151 482.136C337.151 485.336 339.327 487.512 342.463 487.512C345.599 487.512 347.839 485.336 347.839 482.136C347.839 479 345.599 476.824 342.463 476.824Z" fill="white"/>
<path d="M84.5207 586.474C75.7427 586.474 68.9387 592.858 68.9387 601.3C68.9387 609.7 75.7427 616.21 84.5207 616.21C93.2987 616.21 100.103 609.7 100.103 601.3C100.103 592.9 93.2987 586.474 84.5207 586.474ZM84.5627 590.926C90.3167 590.926 95.0207 595.462 95.0207 601.3C95.0207 607.138 90.3167 611.758 84.5627 611.758C78.8087 611.758 73.9787 607.138 73.9787 601.3C73.9787 595.462 78.7667 590.926 84.5627 590.926ZM116.935 593.488C113.449 593.488 110.761 594.916 109.123 597.52V593.656H104.293V624.148H109.123V612.136C110.761 614.74 113.449 616.168 117.019 616.168C123.403 616.168 127.603 611.59 127.603 604.912C127.603 598.108 123.277 593.488 116.935 593.488ZM115.927 612.052C111.937 612.052 109.123 609.07 109.123 604.744C109.123 600.544 111.937 597.52 115.927 597.52C119.917 597.52 122.731 600.586 122.731 604.744C122.731 609.028 119.917 612.052 115.927 612.052ZM140.828 593.488C134.192 593.53 129.53 598.108 129.53 604.87C129.53 611.59 134.066 616.168 140.954 616.168C144.818 616.168 148.01 614.782 150.194 612.388L147.632 609.658C145.994 611.338 143.768 612.262 141.332 612.262C137.804 612.262 135.158 610.12 134.402 606.676H151.286C151.874 598.612 148.682 593.488 140.828 593.488ZM134.318 603.148C134.864 599.578 137.342 597.352 140.87 597.352C144.524 597.352 146.918 599.536 147.086 603.148H134.318ZM168.383 593.488C164.603 593.488 161.747 594.832 160.151 597.94V593.656H155.321V616H160.151V604.114C160.487 600.628 162.797 598.066 166.493 598.024C169.853 598.024 171.869 600.082 171.869 603.442V616H176.699V602.098C176.699 596.764 173.591 593.488 168.383 593.488ZM191.495 604.87V601.552H181.163V604.87H191.495ZM203.311 593.446C199.027 593.446 195.079 595.378 195.079 599.914C195.037 607.978 206.797 605.416 206.797 609.994C206.797 611.674 205.201 612.388 203.143 612.388C200.707 612.388 197.599 611.338 195.667 609.616L193.945 613.06C196.171 615.076 199.657 616.168 202.933 616.168C207.427 616.168 211.501 614.11 211.501 609.532C211.543 601.426 199.657 603.652 199.657 599.536C199.657 597.94 201.043 597.31 202.933 597.31C204.907 597.31 207.385 598.066 209.359 599.284L211.123 595.714C209.107 594.286 206.125 593.446 203.311 593.446ZM224.938 593.488C218.008 593.488 213.262 598.066 213.262 604.828C213.262 611.548 218.008 616.168 224.938 616.168C231.826 616.168 236.572 611.548 236.572 604.828C236.572 598.066 231.826 593.488 224.938 593.488ZM224.938 597.646C228.928 597.646 231.742 600.586 231.742 604.87C231.742 609.196 228.928 612.136 224.938 612.136C220.906 612.136 218.092 609.196 218.092 604.87C218.092 600.586 220.906 597.646 224.938 597.646ZM260.898 593.656H256.068V604.66C256.068 608.566 253.8 611.548 249.936 611.632C246.702 611.632 244.728 609.574 244.728 606.214V593.656H239.898V607.558C239.898 612.892 242.964 616.168 248.088 616.168C251.742 616.126 254.556 614.74 256.068 611.632V616H260.898V593.656ZM271.881 593.656H267.051V616H271.881V604.324C272.259 600.502 275.115 597.856 279.609 598.108V593.488C276.081 593.488 273.393 595.084 271.881 598.108V593.656ZM291.737 593.488C285.101 593.488 280.481 598.108 280.481 604.87C280.481 611.59 285.101 616.168 291.737 616.168C295.979 616.168 299.213 614.656 301.229 612.01L298.541 609.322C297.029 611.086 294.761 612.01 291.947 612.01C288.083 612.01 285.311 609.112 285.311 604.87C285.311 600.628 288.083 597.73 291.947 597.73C294.635 597.688 296.777 598.654 298.331 600.25L300.977 597.142C298.919 594.79 295.769 593.488 291.737 593.488ZM313.583 593.488C306.947 593.53 302.285 598.108 302.285 604.87C302.285 611.59 306.821 616.168 313.709 616.168C317.573 616.168 320.765 614.782 322.949 612.388L320.387 609.658C318.749 611.338 316.523 612.262 314.087 612.262C310.559 612.262 307.913 610.12 307.157 606.676H324.041C324.629 598.612 321.437 593.488 313.583 593.488ZM307.073 603.148C307.619 599.578 310.097 597.352 313.625 597.352C317.279 597.352 319.673 599.536 319.841 603.148H307.073ZM329.085 610.918C327.573 610.918 326.481 612.052 326.481 613.606C326.481 614.488 326.859 615.286 327.615 615.79L326.019 619.444H328.497L330.891 615.832C331.353 615.16 331.647 614.446 331.647 613.606C331.647 611.926 330.429 610.918 329.085 610.918ZM88.0707 643.488C81.4347 643.488 76.8147 648.108 76.8147 654.87C76.8147 661.59 81.4347 666.168 88.0707 666.168C92.3127 666.168 95.5467 664.656 97.5627 662.01L94.8747 659.322C93.3627 661.086 91.0947 662.01 88.2807 662.01C84.4167 662.01 81.6447 659.112 81.6447 654.87C81.6447 650.628 84.4167 647.73 88.2807 647.73C90.9687 647.688 93.1107 648.654 94.6647 650.25L97.3107 647.142C95.2527 644.79 92.1027 643.488 88.0707 643.488ZM106.662 666V634.836H101.832V666H106.662ZM122.584 643.488C115.654 643.488 110.908 648.066 110.908 654.828C110.908 661.548 115.654 666.168 122.584 666.168C129.472 666.168 134.218 661.548 134.218 654.828C134.218 648.066 129.472 643.488 122.584 643.488ZM122.584 647.646C126.574 647.646 129.388 650.586 129.388 654.87C129.388 659.196 126.574 662.136 122.584 662.136C118.552 662.136 115.738 659.196 115.738 654.87C115.738 650.586 118.552 647.646 122.584 647.646ZM158.544 643.656H153.714V654.66C153.714 658.566 151.446 661.548 147.582 661.632C144.348 661.632 142.374 659.574 142.374 656.214V643.656H137.544V657.558C137.544 662.892 140.61 666.168 145.734 666.168C149.388 666.126 152.202 664.74 153.714 661.632V666H158.544V643.656ZM185.992 634.836H181.162V647.52C179.524 644.916 176.836 643.446 173.224 643.446C166.924 643.446 162.598 648.024 162.598 654.744C162.598 661.548 166.882 666.21 173.308 666.21C176.878 666.21 179.566 664.782 181.162 662.178V666H185.992V634.836ZM174.316 662.178C170.242 662.178 167.47 659.154 167.428 654.912C167.47 650.628 170.284 647.562 174.316 647.562C178.348 647.562 181.162 650.586 181.162 654.912C181.162 659.154 178.348 662.178 174.316 662.178ZM201.651 654.87V651.552H191.319V654.87H201.651ZM219.852 643.488C216.072 643.488 213.216 644.832 211.62 647.94V643.656H206.79V666H211.62V654.114C211.956 650.628 214.266 648.066 217.962 648.024C221.322 648.024 223.338 650.082 223.338 653.442V666H228.168V652.098C228.168 646.764 225.06 643.488 219.852 643.488ZM247.037 666H251.783L251.741 651.342C251.699 646.428 248.465 643.488 242.711 643.488C238.469 643.488 236.201 644.454 233.093 646.302L235.067 649.662C237.293 648.15 239.519 647.394 241.661 647.394C245.189 647.394 246.995 649.074 246.995 651.888V652.56H240.233C234.857 652.602 231.791 655.206 231.791 659.28C231.791 663.228 234.815 666.21 239.645 666.21C242.879 666.21 245.441 665.244 247.037 663.27V666ZM240.653 662.388C237.965 662.388 236.327 661.086 236.327 659.07C236.327 656.928 237.797 656.088 240.947 656.088H246.995V658.146C246.743 660.582 244.097 662.388 240.653 662.388ZM268.673 660.876C267.371 661.506 266.321 661.842 265.313 661.842C263.801 661.842 262.919 661.128 262.919 658.818V648.108H269.513V644.496H262.919V638.364H258.131V644.496H254.981V648.108H258.131V659.7C258.131 664.278 261.029 666.21 264.389 666.21C266.279 666.21 268.127 665.622 269.891 664.572L268.673 660.876ZM275.746 634.332C274.15 634.332 272.932 635.55 272.932 637.272C272.932 638.952 274.15 640.17 275.746 640.17C277.342 640.17 278.56 638.952 278.56 637.272C278.56 635.55 277.342 634.332 275.746 634.332ZM278.14 666V643.656H273.352V666H278.14ZM294.41 666L302.978 643.656H298.148L292.016 661.254L285.8 643.656H280.76L289.412 666H294.41ZM313.732 643.488C307.096 643.53 302.434 648.108 302.434 654.87C302.434 661.59 306.97 666.168 313.858 666.168C317.722 666.168 320.914 664.782 323.098 662.388L320.536 659.658C318.898 661.338 316.672 662.262 314.236 662.262C310.708 662.262 308.062 660.12 307.306 656.676H324.19C324.778 648.612 321.586 643.488 313.732 643.488ZM307.222 653.148C307.768 649.578 310.246 647.352 313.774 647.352C317.428 647.352 319.822 649.536 319.99 653.148H307.222ZM72.8539 693.488C66.2179 693.488 61.5979 698.108 61.5979 704.87C61.5979 711.59 66.2179 716.168 72.8539 716.168C77.0959 716.168 80.3299 714.656 82.3459 712.01L79.6579 709.322C78.1459 711.086 75.8779 712.01 73.0639 712.01C69.1999 712.01 66.4279 709.112 66.4279 704.87C66.4279 700.628 69.1999 697.73 73.0639 697.73C75.7519 697.688 77.8939 698.654 79.4479 700.25L82.0939 697.142C80.0359 694.79 76.8859 693.488 72.8539 693.488ZM95.0786 693.488C88.1486 693.488 83.4026 698.066 83.4026 704.828C83.4026 711.548 88.1486 716.168 95.0786 716.168C101.967 716.168 106.713 711.548 106.713 704.828C106.713 698.066 101.967 693.488 95.0786 693.488ZM95.0786 697.646C99.0686 697.646 101.883 700.586 101.883 704.87C101.883 709.196 99.0686 712.136 95.0786 712.136C91.0466 712.136 88.2326 709.196 88.2326 704.87C88.2326 700.586 91.0466 697.646 95.0786 697.646ZM123.815 693.488C120.035 693.488 117.179 694.832 115.583 697.94V693.656H110.753V716H115.583V704.114C115.919 700.628 118.229 698.066 121.925 698.024C125.285 698.024 127.301 700.082 127.301 703.442V716H132.131V702.098C132.131 696.764 129.023 693.488 123.815 693.488ZM154.402 690.17C155.998 690.17 157.216 688.952 157.216 687.272C157.216 685.55 155.998 684.332 154.402 684.332C152.806 684.332 151.588 685.55 151.588 687.272C151.588 688.952 152.806 690.17 154.402 690.17ZM138.526 694.454H135.586V698.066H138.526V716H143.314V698.066H149.152V694.454H143.314V691.85C143.314 689.666 144.616 688.868 146.338 688.868C147.514 688.868 148.9 689.246 150.202 689.834L150.37 685.634C149.194 684.962 147.724 684.626 146.212 684.626C142.474 684.626 138.526 686.978 138.526 692.312V694.454ZM152.008 693.656V716H156.796V693.656H152.008ZM183.094 693.656H178.306V697.268C176.752 694.832 174.19 693.446 170.746 693.488C164.824 693.53 160.834 697.814 160.834 704.114C160.834 710.54 164.866 714.908 170.914 714.908C174.274 714.908 176.794 713.564 178.306 711.128V713.942C178.306 717.806 175.534 720.284 171.292 720.284C168.562 720.284 166.378 719.402 164.278 717.848L162.22 721.334C164.95 723.182 168.016 724.274 171.502 724.274C178.516 724.274 183.094 720.242 183.094 713.816V693.656ZM171.88 711.128C168.016 711.128 165.412 708.272 165.37 704.24C165.412 700.25 168.058 697.394 171.88 697.394C175.66 697.394 178.306 700.208 178.306 704.24C178.306 708.272 175.66 711.128 171.88 711.128ZM209.085 693.656H204.255V704.66C204.255 708.566 201.987 711.548 198.123 711.632C194.889 711.632 192.915 709.574 192.915 706.214V693.656H188.085V707.558C188.085 712.892 191.151 716.168 196.275 716.168C199.929 716.126 202.743 714.74 204.255 711.632V716H209.085V693.656ZM220.069 693.656H215.239V716H220.069V704.324C220.447 700.502 223.303 697.856 227.797 698.108V693.488C224.269 693.488 221.581 695.084 220.069 698.108V693.656ZM243.264 716H248.01L247.968 701.342C247.926 696.428 244.692 693.488 238.938 693.488C234.696 693.488 232.428 694.454 229.32 696.302L231.294 699.662C233.52 698.15 235.746 697.394 237.888 697.394C241.416 697.394 243.222 699.074 243.222 701.888V702.56H236.46C231.084 702.602 228.018 705.206 228.018 709.28C228.018 713.228 231.042 716.21 235.872 716.21C239.106 716.21 241.668 715.244 243.264 713.27V716ZM236.88 712.388C234.192 712.388 232.554 711.086 232.554 709.07C232.554 706.928 234.024 706.088 237.174 706.088H243.222V708.146C242.97 710.582 240.324 712.388 236.88 712.388ZM264.899 710.876C263.597 711.506 262.547 711.842 261.539 711.842C260.027 711.842 259.145 711.128 259.145 708.818V698.108H265.739V694.496H259.145V688.364H254.357V694.496H251.207V698.108H254.357V709.7C254.357 714.278 257.255 716.21 260.615 716.21C262.505 716.21 264.353 715.622 266.117 714.572L264.899 710.876ZM271.973 684.332C270.377 684.332 269.159 685.55 269.159 687.272C269.159 688.952 270.377 690.17 271.973 690.17C273.569 690.17 274.787 688.952 274.787 687.272C274.787 685.55 273.569 684.332 271.973 684.332ZM274.367 716V693.656H269.579V716H274.367ZM290.09 693.488C283.16 693.488 278.414 698.066 278.414 704.828C278.414 711.548 283.16 716.168 290.09 716.168C296.978 716.168 301.724 711.548 301.724 704.828C301.724 698.066 296.978 693.488 290.09 693.488ZM290.09 697.646C294.08 697.646 296.894 700.586 296.894 704.87C296.894 709.196 294.08 712.136 290.09 712.136C286.058 712.136 283.244 709.196 283.244 704.87C283.244 700.586 286.058 697.646 290.09 697.646ZM318.826 693.488C315.046 693.488 312.19 694.832 310.594 697.94V693.656H305.764V716H310.594V704.114C310.93 700.628 313.24 698.066 316.936 698.024C320.296 698.024 322.312 700.082 322.312 703.442V716H327.142V702.098C327.142 696.764 324.034 693.488 318.826 693.488ZM146.51 766.798L148.988 764.278L144.2 759.616C145.376 758.02 146.384 756.13 147.266 754.03L144.116 751.678C143.36 753.694 142.478 755.458 141.47 756.97C138.95 754.492 136.892 752.392 135.296 750.586C138.908 748.696 142.436 746.596 142.436 742.564C142.436 738.952 139.412 736.39 135.002 736.39C130.424 736.39 127.358 739.12 127.358 743.026C127.358 745.126 128.24 747.226 130.172 749.83C126.854 751.594 123.83 753.82 123.83 757.978C123.83 762.724 127.82 766.21 133.07 766.21C136.304 766.21 139.328 764.782 141.932 762.304L146.51 766.798ZM131.18 742.984C131.18 740.968 132.692 739.414 135.044 739.414C137.228 739.414 138.614 740.674 138.614 742.606C138.614 745.21 136.22 746.722 133.364 748.192C131.894 746.176 131.18 744.538 131.18 742.984ZM133.238 762.556C130.214 762.556 127.82 760.54 127.82 757.6C127.82 755.206 129.71 753.652 132.146 752.266C133.994 754.366 136.346 756.76 139.286 759.7C137.438 761.506 135.38 762.556 133.238 762.556ZM168.361 743.446C164.077 743.446 160.129 745.378 160.129 749.914C160.087 757.978 171.847 755.416 171.847 759.994C171.847 761.674 170.251 762.388 168.193 762.388C165.757 762.388 162.649 761.338 160.717 759.616L158.995 763.06C161.221 765.076 164.707 766.168 167.983 766.168C172.477 766.168 176.551 764.11 176.551 759.532C176.593 751.426 164.707 753.652 164.707 749.536C164.707 747.94 166.093 747.31 167.983 747.31C169.957 747.31 172.435 748.066 174.409 749.284L176.173 745.714C174.157 744.286 171.175 743.446 168.361 743.446ZM189.61 743.488C182.974 743.53 178.312 748.108 178.312 754.87C178.312 761.59 182.848 766.168 189.736 766.168C193.6 766.168 196.792 764.782 198.976 762.388L196.414 759.658C194.776 761.338 192.55 762.262 190.114 762.262C186.586 762.262 183.94 760.12 183.184 756.676H200.068C200.656 748.612 197.464 743.488 189.61 743.488ZM183.1 753.148C183.646 749.578 186.124 747.352 189.652 747.352C193.306 747.352 195.7 749.536 195.868 753.148H183.1ZM213.259 743.488C206.623 743.488 202.003 748.108 202.003 754.87C202.003 761.59 206.623 766.168 213.259 766.168C217.501 766.168 220.735 764.656 222.751 762.01L220.063 759.322C218.551 761.086 216.283 762.01 213.469 762.01C209.605 762.01 206.833 759.112 206.833 754.87C206.833 750.628 209.605 747.73 213.469 747.73C216.157 747.688 218.299 748.654 219.853 750.25L222.499 747.142C220.441 744.79 217.291 743.488 213.259 743.488ZM231.64 743.656H226.81V766H231.64V754.324C232.018 750.502 234.874 747.856 239.368 748.108V743.488C235.84 743.488 233.152 745.084 231.64 748.108V743.656ZM251.538 743.488C244.902 743.53 240.24 748.108 240.24 754.87C240.24 761.59 244.776 766.168 251.664 766.168C255.528 766.168 258.72 764.782 260.904 762.388L258.342 759.658C256.704 761.338 254.478 762.262 252.042 762.262C248.514 762.262 245.868 760.12 245.112 756.676H261.996C262.584 748.612 259.392 743.488 251.538 743.488ZM245.028 753.148C245.574 749.578 248.052 747.352 251.58 747.352C255.234 747.352 257.628 749.536 257.796 753.148H245.028ZM277.455 760.876C276.153 761.506 275.103 761.842 274.095 761.842C272.583 761.842 271.701 761.128 271.701 758.818V748.108H278.295V744.496H271.701V738.364H266.913V744.496H263.763V748.108H266.913V759.7C266.913 764.278 269.811 766.21 273.171 766.21C275.061 766.21 276.909 765.622 278.673 764.572L277.455 760.876ZM90.2053 793.488C86.1313 793.488 83.1493 795.126 81.7213 798.864C80.6713 795.462 77.9413 793.488 73.9513 793.488C70.2553 793.488 67.3993 794.832 65.8453 797.982V793.656H61.0573V816H65.8453V804.954C65.8453 801.048 68.1973 798.108 72.0613 797.982C75.3373 797.982 77.3113 800.04 77.3113 803.442V816H82.1413V804.954C82.1413 801.048 84.4513 798.108 88.2733 797.982C91.5493 797.982 93.5653 800.04 93.5653 803.442V816H98.3953V802.098C98.3953 796.764 95.3293 793.488 90.2053 793.488ZM117.26 816H122.006L121.964 801.342C121.922 796.428 118.688 793.488 112.934 793.488C108.692 793.488 106.424 794.454 103.316 796.302L105.29 799.662C107.516 798.15 109.742 797.394 111.884 797.394C115.412 797.394 117.218 799.074 117.218 801.888V802.56H110.456C105.08 802.602 102.014 805.206 102.014 809.28C102.014 813.228 105.038 816.21 109.868 816.21C113.102 816.21 115.664 815.244 117.26 813.27V816ZM110.876 812.388C108.188 812.388 106.55 811.086 106.55 809.07C106.55 806.928 108.02 806.088 111.17 806.088H117.218V808.146C116.966 810.582 114.32 812.388 110.876 812.388ZM140.533 793.488C136.753 793.488 133.897 794.832 132.301 797.94V793.656H127.471V816H132.301V804.114C132.637 800.628 134.947 798.066 138.643 798.024C142.003 798.024 144.019 800.082 144.019 803.442V816H148.849V802.098C148.849 796.764 145.741 793.488 140.533 793.488ZM167.719 816H172.465L172.423 801.342C172.381 796.428 169.147 793.488 163.393 793.488C159.151 793.488 156.883 794.454 153.775 796.302L155.749 799.662C157.975 798.15 160.201 797.394 162.343 797.394C165.871 797.394 167.677 799.074 167.677 801.888V802.56H160.915C155.539 802.602 152.473 805.206 152.473 809.28C152.473 813.228 155.497 816.21 160.327 816.21C163.561 816.21 166.123 815.244 167.719 813.27V816ZM161.335 812.388C158.647 812.388 157.009 811.086 157.009 809.07C157.009 806.928 158.479 806.088 161.629 806.088H167.677V808.146C167.425 810.582 164.779 812.388 161.335 812.388ZM198.09 793.656H193.302V797.268C191.748 794.832 189.186 793.446 185.742 793.488C179.82 793.53 175.83 797.814 175.83 804.114C175.83 810.54 179.862 814.908 185.91 814.908C189.27 814.908 191.79 813.564 193.302 811.128V813.942C193.302 817.806 190.53 820.284 186.288 820.284C183.558 820.284 181.374 819.402 179.274 817.848L177.216 821.334C179.946 823.182 183.012 824.274 186.498 824.274C193.512 824.274 198.09 820.242 198.09 813.816V793.656ZM186.876 811.128C183.012 811.128 180.408 808.272 180.366 804.24C180.408 800.25 183.054 797.394 186.876 797.394C190.656 797.394 193.302 800.208 193.302 804.24C193.302 808.272 190.656 811.128 186.876 811.128ZM212.994 793.488C206.358 793.53 201.696 798.108 201.696 804.87C201.696 811.59 206.232 816.168 213.12 816.168C216.984 816.168 220.176 814.782 222.36 812.388L219.798 809.658C218.16 811.338 215.934 812.262 213.498 812.262C209.97 812.262 207.324 810.12 206.568 806.676H223.452C224.04 798.612 220.848 793.488 212.994 793.488ZM206.484 803.148C207.03 799.578 209.508 797.352 213.036 797.352C216.69 797.352 219.084 799.536 219.252 803.148H206.484ZM256.635 793.488C252.561 793.488 249.579 795.126 248.151 798.864C247.101 795.462 244.371 793.488 240.381 793.488C236.685 793.488 233.829 794.832 232.275 797.982V793.656H227.487V816H232.275V804.954C232.275 801.048 234.627 798.108 238.491 797.982C241.767 797.982 243.741 800.04 243.741 803.442V816H248.571V804.954C248.571 801.048 250.881 798.108 254.703 797.982C257.979 797.982 259.995 800.04 259.995 803.442V816H264.825V802.098C264.825 796.764 261.759 793.488 256.635 793.488ZM279.49 793.488C272.854 793.53 268.192 798.108 268.192 804.87C268.192 811.59 272.728 816.168 279.616 816.168C283.48 816.168 286.672 814.782 288.856 812.388L286.294 809.658C284.656 811.338 282.43 812.262 279.994 812.262C276.466 812.262 273.82 810.12 273.064 806.676H289.948C290.536 798.612 287.344 793.488 279.49 793.488ZM272.98 803.148C273.526 799.578 276.004 797.352 279.532 797.352C283.186 797.352 285.58 799.536 285.748 803.148H272.98ZM307.045 793.488C303.265 793.488 300.409 794.832 298.813 797.94V793.656H293.983V816H298.813V804.114C299.149 800.628 301.459 798.066 305.155 798.024C308.515 798.024 310.531 800.082 310.531 803.442V816H315.361V802.098C315.361 796.764 312.253 793.488 307.045 793.488ZM332.257 810.876C330.955 811.506 329.905 811.842 328.897 811.842C327.385 811.842 326.503 811.128 326.503 808.818V798.108H333.097V794.496H326.503V788.364H321.715V794.496H318.565V798.108H321.715V809.7C321.715 814.278 324.613 816.21 327.973 816.21C329.863 816.21 331.711 815.622 333.475 814.572L332.257 810.876ZM337.944 810.834C336.432 810.834 335.298 811.968 335.298 813.564C335.298 815.202 336.432 816.378 337.944 816.378C339.456 816.378 340.59 815.202 340.59 813.564C340.59 811.968 339.456 810.834 337.944 810.834Z" fill="white"/>
</g>
<defs>
<radialGradient id="paint0_radial" cx="0" cy="0" r="1" gradientUnits="userSpaceOnUse" gradientTransform="translate(1509 -177.57) scale(1006 1600.75)">
<stop stop-color="#282F35"/>
<stop offset="1" stop-color="#282F35"/>
</radialGradient>
<radialGradient id="paint1_radial" cx="0" cy="0" r="1" gradientUnits="userSpaceOnUse" gradientTransform="translate(754.5 1423.18) scale(754.5 1200.56)">
<stop stop-color="#3AC1B9"/>
<stop offset="1" stop-color="#2AF8B4" stop-opacity="0"/>
</radialGradient>
<radialGradient id="paint2_radial" cx="0" cy="0" r="1" gradientUnits="userSpaceOnUse" gradientTransform="translate(754.5 -177.57) scale(754.5 1200.56)">
<stop stop-color="#282F35"/>
<stop offset="1" stop-color="#282F35" stop-opacity="0"/>
</radialGradient>
<radialGradient id="paint3_radial" cx="0" cy="0" r="1" gradientUnits="userSpaceOnUse" gradientTransform="translate(-0.000152588 1423.18) scale(1006 1600.75)">
<stop stop-color="#09C4A2"/>
<stop offset="1" stop-color="#06A497" stop-opacity="0"/>
</radialGradient>
<radialGradient id="paint4_radial" cx="0" cy="0" r="1" gradientUnits="userSpaceOnUse" gradientTransform="translate(1509 1423.18) scale(1006 1600.75)">
<stop stop-color="#06A497"/>
<stop offset="1" stop-color="#9DFCC5" stop-opacity="0"/>
</radialGradient>
<clipPath id="clip0">
<rect width="400" height="1200" fill="white"/>
</clipPath>
<clipPath id="clip1">
<rect width="1509" height="1602" fill="white" transform="matrix(1 0 0 -1 0 1424)"/>
</clipPath>
<clipPath id="clip2">
<rect width="316" height="119.043" fill="white" transform="translate(42 40)"/>
</clipPath>
<clipPath id="clip3">
<rect width="421.87" height="296.593" fill="white" transform="matrix(-1 0 0 1 411 903)"/>
</clipPath>
</defs>
</svg>
